<?xml version="1.0" encoding="utf-8"?>
<svg version="1.1" xmlns:xlink="http://www.w3.org/1999/xlink" width="20px" height="13px" xmlns="http://www.w3.org/2000/svg">
  <g transform="matrix(1 0 0 1 -148 -283 )">
    <path d="M 20 2.88260869565217  C 20 3.10450885668277  19.9214226633581 3.29500805152979  19.7642679900744 3.45410628019324  L 10.5583126550868 12.7613526570048  C 10.4011579818031 12.9204508856683  10.2150537634409 13  10 13  C 9.78494623655914 13  9.59884201819686 12.9204508856683  9.44168734491315 12.7613526570048  L 0.235732009925558 3.45410628019324  C 0.0785773366418529 3.29500805152979  0 3.10450885668277  0 2.88260869565217  C 0 2.66070853462158  0.0785773366418529 2.47020933977456  0.235732009925558 2.31111111111111  L 2.29528535980149 0.238647342995169  C 2.45244003308519 0.0795491143317225  2.63854425144748 0  2.85359801488834 0  C 3.0686517783292 0  3.25475599669148 0.0795491143317225  3.41191066997519 0.238647342995169  L 10 6.90821256038647  L 16.5880893300248 0.238647342995169  C 16.7452440033085 0.0795491143317225  16.9313482216708 0  17.1464019851117 0  C 17.3614557485525 0  17.5475599669148 0.0795491143317225  17.7047146401985 0.238647342995169  L 19.7642679900744 2.31111111111111  C 19.9214226633581 2.47020933977456  20 2.66070853462158  20 2.88260869565217  Z " fill-rule="nonzero" fill="#000000" stroke="none" fill-opacity="0.87843137254902" transform="matrix(1 0 0 1 148 283 )" />
  </g>
</svg>