<?xml version="1.0" encoding="utf-8"?>
<svg version="1.1" xmlns:xlink="http://www.w3.org/1999/xlink" width="414px" height="571px" xmlns="http://www.w3.org/2000/svg">
  <g transform="matrix(1 0 0 1 0 -407 )">
    <path d="M 1 423  A 15 15 0 0 1 16 408 L 398 408  A 15 15 0 0 1 413 423 L 413 962  A 15 15 0 0 1 398 977 L 16 977  A 15 15 0 0 1 1 962 L 1 423  Z " fill-rule="nonzero" fill="#ffffff" stroke="none" />
    <path d="M 0.5 423  A 15.5 15.5 0 0 1 16 407.5 L 398 407.5  A 15.5 15.5 0 0 1 413.5 423 L 413.5 962  A 15.5 15.5 0 0 1 398 977.5 L 16 977.5  A 15.5 15.5 0 0 1 0.5 962 L 0.5 423  Z " stroke-width="1" stroke="#a5a5a5" fill="none" stroke-opacity="0.435294117647059" />
  </g>
</svg>