<?xml version="1.0" encoding="utf-8"?>
<svg version="1.1" xmlns:xlink="http://www.w3.org/1999/xlink" width="129px" height="35px" xmlns="http://www.w3.org/2000/svg">
  <g transform="matrix(1 0 0 1 -203 -61 )">
    <path d="M 204 78.5  A 16.5 16.5 0 0 1 220.5 62 L 314.5 62  A 16.5 16.5 0 0 1 331 78.5 A 16.5 16.5 0 0 1 314.5 95 L 220.5 95  A 16.5 16.5 0 0 1 204 78.5 Z " fill-rule="nonzero" fill="#fffccc" stroke="none" fill-opacity="0.498039215686275" />
    <path d="M 203.5 78.5  A 17 17 0 0 1 220.5 61.5 L 314.5 61.5  A 17 17 0 0 1 331.5 78.5 A 17 17 0 0 1 314.5 95.5 L 220.5 95.5  A 17 17 0 0 1 203.5 78.5 Z " stroke-width="1" stroke="#797979" fill="none" stroke-opacity="0.501960784313725" />
  </g>
</svg>