<?xml version="1.0" encoding="utf-8"?>
<svg version="1.1" xmlns:xlink="http://www.w3.org/1999/xlink" width="668px" height="85px" xmlns="http://www.w3.org/2000/svg">
  <g transform="matrix(1 0 0 1 -483 -2046 )">
    <path d="M 0.822154471544764 62.3200000000002  C 21.1042296579994 61.506776859504  34.530487804878 82  67.4166666666667 81.6355555555556  C 100.302845528455 81.2711111111112  102.448389776086 70.7863717965984  147.165650406504 70.7022222222222  C 188.548717917288 70.62434697968  179.64075203252 80.7244444444445  221.159552845529 80.5422222222223  C 262.678353658537 80.3600000000001  262.061737804878 52.7533333333331  297.619918699187 51.3866666666668  C 333.178099593496 50.02  344.071646341463 51.9333333333334  370.791666666667 50.2933333333335  C 418.854745879336 47.3433561645502  397.100609756098 0.546666666666624  439.030487804878 0.364444444444416  C 480.960365853658 0.182222222221981  477.260670731707 45.3733333333335  519.60162601626 45.1911111111112  C 543.10026654278 45.0899803154743  548.788109756098 35.5333333333333  587.840447154472 35.3511111111111  C 641.863052068923 35.0990360812011  628.948170731707 63.4133333333334  664.30081300813 63.4133333333334  " stroke-width="2" stroke="#ffa7a7" fill="none" transform="matrix(1 0 0 1 484 2047 )" />
  </g>
</svg>