<?xml version="1.0" encoding="utf-8"?>
<svg version="1.1" xmlns:xlink="http://www.w3.org/1999/xlink" width="707px" height="181px" xmlns="http://www.w3.org/2000/svg">
  <g transform="matrix(1 0 0 1 -482 -1971 )">
    <path d="M 705.463525835866 179.5  L 1.28753799392098 179.5  C 1.28753799392098 179.5  0.214589665653498 89.8000000000001  0.214589665653498 90.2  C 10.6437860318589 89.8220244596549  39.009331869287 88  60.8004052684904 88  C 98.1747720364742 88  95.1347517730496 116  125.892603850051 116  C 156.650455927052 116  145.414124377739 64.205553807075  192.415400202634 64.6666666666665  C 226.392097264438 65  231.340690323607 82.4816713087945  251.785207700101 82.6666666666665  C 288.623100303951 83  285.404255319149 0.33333333333303  321.884498480243 0.666666666666515  C 358.364741641338 1  339.437995071457 86.6037003010063  381.25430597771 92  C 404.501519756839 95  413.979229989868 91.5  444.915906788247 94  C 475.852583586626 96.5  475.316109422492 147  511.438703140831 147.333333333333  C 547.561296859169 147.666666666667  539.811101135513 129.190878621366  575.815602836879 129.333333333333  C 614.720951891266 129.487265481583  616.587639311043 148.666666666667  645.19959473151 149.333333333333  C 669.187554609439 149.892259593945  688.403647416413 115  703.854103343465 116  C 704.283282674772 116.6  705.463525835866 179.5  705.463525835866 179.5  Z " fill-rule="nonzero" fill="#2db6f4" stroke="none" transform="matrix(1 0 0 1 482 1971 )" />
  </g>
</svg>