<?xml version="1.0" encoding="utf-8"?>
<svg version="1.1" xmlns:xlink="http://www.w3.org/1999/xlink" width="707px" height="153px" xmlns="http://www.w3.org/2000/svg">
  <g transform="matrix(1 0 0 1 -481 -1971 )">
    <path d="M 0 89.3333333333333  C 0 89.3333333333333  23.4308943089431 88  60.8130081300813 88  C 98.1951219512195 88  95.1544715447154 116  125.918699186992 116  C 156.682926829268 116  145.444266184769 64.205553807075  192.455284552845 64.6666666666665  C 226.439024390244 65  231.388643206283 82.4816713087945  251.837398373984 82.6666666666665  C 288.682926829268 83  285.463414634146 0.33333333333303  321.951219512195 0.666666666666515  C 358.439024390244 1  339.508354636524 86.6037003010063  381.333333333333 92  C 404.585365853659 95  414.065040650406 91.5  445.008130081301 94  C 475.951219512195 96.5  475.414634146341 147  511.544715447154 147.333333333333  C 547.674796747967 147.666666666667  539.922994544165 129.190878621366  575.934959349593 129.333333333333  C 614.84837280301 129.487265481583  616.715447154471 148.666666666667  645.333333333333 149.333333333333  C 673.951219512195 150  685.634885439763 112.512396694215  703.284552845528 114  " stroke-width="2" stroke="#2db7f5" fill="none" transform="matrix(1 0 0 1 482 1972 )" />
  </g>
</svg>