<?xml version="1.0" encoding="utf-8"?>
<svg version="1.1" xmlns:xlink="http://www.w3.org/1999/xlink" width="723px" height="99px" xmlns="http://www.w3.org/2000/svg">
  <g transform="matrix(1 0 0 1 -482 -2047 )">
    <path d="M 0.616261398176334 97.7277777777776  L 704.55555555556 97.7277777777776  C 704.55555555556 97.7277777777776  704.55555555556 34.9896296296292  704.55555555556 35.2074074074071  C 692.575274743956 35.0016207243302  747.065180682207 31.4074074074069  704.55555555556 35.2074074074071  C 662.045930428912 39.0074074074073  694.55454238433 63.1555555555556  659.222222222223 63.1555555555556  C 623.889902060116 63.1555555555556  643.959129078829 34.956357072741  589.96757852077 35.2074074074071  C 550.937689969605 35.3888888888887  545.25311635631 44.9066877125661  521.76798378926 45.0074074074073  C 479.451367781155 45.1888888888889  483.148936170213 0.181481481481342  441.243161094225 0.362962962962911  C 399.337386018237 0.54444444444448  421.079016992987 47.1509034972146  373.043566362715 50.088888888889  C 346.338905775076 51.7222222222222  335.451621073961 49.8166666666666  299.913880445795 51.1777777777779  C 264.376139817629 52.5388888888888  264.992401215806 80.0333333333333  223.497467071935 80.2148148148149  C 182.002532928065 80.396296296296  190.905378157363 70.3372561382989  149.54609929078 70.4148148148147  C 104.854543932271 70.4986223177507  102.710233029382 80.9407407407407  69.8429584599799 81.3037037037038  C 42.287384152613 81.6080080011479  20.2133738601824 62.6111111111113  2.46504559270517 63.1555555555556  C 1.97203647416399 63.4822222222224  0.616261398176334 97.7277777777776  0.616261398176334 97.7277777777776  Z " fill-rule="nonzero" fill="#f47c7b" stroke="none" transform="matrix(1 0 0 1 482 2047 )" />
  </g>
</svg>