<?xml version="1.0" encoding="utf-8"?>
<svg version="1.1" xmlns:xlink="http://www.w3.org/1999/xlink" width="129px" height="235px" xmlns="http://www.w3.org/2000/svg">
  <defs>
    <mask fill="white" id="clip73">
      <path d="M 79.763358778626 127.291666666667  C 79.763358778626 154.927025330051  65.1891804822258 179.177643117099  43.2665111037986 192.858675679871  L 70.2755115373401 234.34304294966  C 105.607032395571 211.685200285291  129 172.204851927134  129 127.291666666667  C 129 56.9904203900414  71.685612627069 0  0.984732824427501 0  C 0.711145472635868 0  0.437758572289599 0.000853383527527795  0.164777280255096 0.0025577615444546  L 0.164771738274999 49.957905222893  C 0.764683715129274 49.9443262250325  1.36627297523959 49.9375  1.96946564885494 49.9375  C 44.9338464519982 49.9375  79.763358778626 84.5701400831794  79.763358778626 127.291666666667  Z " fill-rule="evenodd" />
    </mask>
  </defs>
  <g transform="matrix(1 0 0 1 -239 -720 )">
    <path d="M 79.763358778626 127.291666666667  C 79.763358778626 154.927025330051  65.1891804822258 179.177643117099  43.2665111037986 192.858675679871  L 70.2755115373401 234.34304294966  C 105.607032395571 211.685200285291  129 172.204851927134  129 127.291666666667  C 129 56.9904203900414  71.685612627069 0  0.984732824427501 0  C 0.711145472635868 0  0.437758572289599 0.000853383527527795  0.164777280255096 0.0025577615444546  L 0.164771738274999 49.957905222893  C 0.764683715129274 49.9443262250325  1.36627297523959 49.9375  1.96946564885494 49.9375  C 44.9338464519982 49.9375  79.763358778626 84.5701400831794  79.763358778626 127.291666666667  Z " fill-rule="nonzero" fill="#1890ff" stroke="none" transform="matrix(1 0 0 1 239 720 )" />
    <path d="M 79.763358778626 127.291666666667  C 79.763358778626 154.927025330051  65.1891804822258 179.177643117099  43.2665111037986 192.858675679871  L 70.2755115373401 234.34304294966  C 105.607032395571 211.685200285291  129 172.204851927134  129 127.291666666667  C 129 56.9904203900414  71.685612627069 0  0.984732824427501 0  C 0.711145472635868 0  0.437758572289599 0.000853383527527795  0.164777280255096 0.0025577615444546  L 0.164771738274999 49.957905222893  C 0.764683715129274 49.9443262250325  1.36627297523959 49.9375  1.96946564885494 49.9375  C 44.9338464519982 49.9375  79.763358778626 84.5701400831794  79.763358778626 127.291666666667  Z " stroke-width="2" stroke="#ffffff" fill="none" transform="matrix(1 0 0 1 239 720 )" mask="url(#clip73)" />
  </g>
</svg>