<?xml version="1.0" encoding="utf-8"?>
<svg version="1.1" xmlns:xlink="http://www.w3.org/1999/xlink" width="87px" height="97px" xmlns="http://www.w3.org/2000/svg">
  <defs>
    <mask fill="white" id="clip71">
      <path d="M 51.2657543934219 96.3498135001109  C 54.6434433086771 73.7286596808167  67.895935303547 54.296530087885  86.5415510670359 42.4950379337618  L 58.8821598288819 0.0788703662520538  C 28.0891914644269 19.3986866843779  6.15229096063355 51.3319212254795  0.466146281995407 88.5499943080991  L 51.2657543934219 96.3498135001109  Z " fill-rule="evenodd" />
    </mask>
  </defs>
  <g transform="matrix(1 0 0 1 -113 -739 )">
    <path d="M 51.2657543934219 96.3498135001109  C 54.6434433086771 73.7286596808167  67.895935303547 54.296530087885  86.5415510670359 42.4950379337618  L 58.8821598288819 0.0788703662520538  C 28.0891914644269 19.3986866843779  6.15229096063355 51.3319212254795  0.466146281995407 88.5499943080991  L 51.2657543934219 96.3498135001109  Z " fill-rule="nonzero" fill="#facc14" stroke="none" transform="matrix(1 0 0 1 113 739 )" />
    <path d="M 51.2657543934219 96.3498135001109  C 54.6434433086771 73.7286596808167  67.895935303547 54.296530087885  86.5415510670359 42.4950379337618  L 58.8821598288819 0.0788703662520538  C 28.0891914644269 19.3986866843779  6.15229096063355 51.3319212254795  0.466146281995407 88.5499943080991  L 51.2657543934219 96.3498135001109  Z " stroke-width="2" stroke="#ffffff" fill="none" transform="matrix(1 0 0 1 113 739 )" mask="url(#clip71)" />
  </g>
</svg>