<?xml version="1.0" encoding="utf-8"?>
<svg version="1.1" xmlns:xlink="http://www.w3.org/1999/xlink" width="152px" height="69px" xmlns="http://www.w3.org/2000/svg">
  <defs>
    <mask fill="white" id="clip69">
      <path d="M 83.3548387096775 18.7285714285715  C 64.2078098983584 18.7285714285715  46.6831242683577 11.7465890778058  33.1631888127136 0.177343236554216  L 0.836790186850382 39.3668677174787  C 22.9376935666358 57.8698423754065  51.3628340635232 69  82.3741935483871 69  C 107.827558059896 69  131.538658105371 61.5019195122908  151.440617578074 48.5833203067678  L 124.550703874813 6.81822691356702  C 112.617946535992 14.3639173417023  98.4934811860042 18.7285714285715  83.3548387096775 18.7285714285715  Z " fill-rule="evenodd" />
    </mask>
  </defs>
  <g transform="matrix(1 0 0 1 -157 -906 )">
    <path d="M 83.3548387096775 18.7285714285715  C 64.2078098983584 18.7285714285715  46.6831242683577 11.7465890778058  33.1631888127136 0.177343236554216  L 0.836790186850382 39.3668677174787  C 22.9376935666358 57.8698423754065  51.3628340635232 69  82.3741935483871 69  C 107.827558059896 69  131.538658105371 61.5019195122908  151.440617578074 48.5833203067678  L 124.550703874813 6.81822691356702  C 112.617946535992 14.3639173417023  98.4934811860042 18.7285714285715  83.3548387096775 18.7285714285715  Z " fill-rule="nonzero" fill="#13c2c2" stroke="none" transform="matrix(1 0 0 1 157 906 )" />
    <path d="M 83.3548387096775 18.7285714285715  C 64.2078098983584 18.7285714285715  46.6831242683577 11.7465890778058  33.1631888127136 0.177343236554216  L 0.836790186850382 39.3668677174787  C 22.9376935666358 57.8698423754065  51.3628340635232 69  82.3741935483871 69  C 107.827558059896 69  131.538658105371 61.5019195122908  151.440617578074 48.5833203067678  L 124.550703874813 6.81822691356702  C 112.617946535992 14.3639173417023  98.4934811860042 18.7285714285715  83.3548387096775 18.7285714285715  Z " stroke-width="2" stroke="#ffffff" fill="none" transform="matrix(1 0 0 1 157 906 )" mask="url(#clip69)" />
  </g>
</svg>