<?xml version="1.0" encoding="utf-8"?>
<svg version="1.1" xmlns:xlink="http://www.w3.org/1999/xlink" width="79px" height="119px" xmlns="http://www.w3.org/2000/svg">
  <defs>
    <mask fill="white" id="clip70">
      <path d="M 46.7079070964046 118.797299832581  L 78.710085851211 79.9078337038624  C 61.6118296483381 65.7740620583068  50.7160493827161 44.4013892472469  50.7160493827161 20.4836065573771  C 50.7160493827161 16.1900900437781  51.0671590441956 11.9785880941837  51.7422298174271 7.87625271276286  L 1.59646034895711 0.305628449916522  C 0.545827427070243 6.8767723064128  0 13.6164404050745  0 20.4836065573771  C 0 60.1404095050341  18.2026929172092 95.5453046099179  46.7079070964046 118.797299832581  Z " fill-rule="evenodd" />
    </mask>
  </defs>
  <g transform="matrix(1 0 0 1 -112 -826 )">
    <path d="M 46.7079070964046 118.797299832581  L 78.710085851211 79.9078337038624  C 61.6118296483381 65.7740620583068  50.7160493827161 44.4013892472469  50.7160493827161 20.4836065573771  C 50.7160493827161 16.1900900437781  51.0671590441956 11.9785880941837  51.7422298174271 7.87625271276286  L 1.59646034895711 0.305628449916522  C 0.545827427070243 6.8767723064128  0 13.6164404050745  0 20.4836065573771  C 0 60.1404095050341  18.2026929172092 95.5453046099179  46.7079070964046 118.797299832581  Z " fill-rule="nonzero" fill="#2fc25b" stroke="none" transform="matrix(1 0 0 1 112 826 )" />
    <path d="M 46.7079070964046 118.797299832581  L 78.710085851211 79.9078337038624  C 61.6118296483381 65.7740620583068  50.7160493827161 44.4013892472469  50.7160493827161 20.4836065573771  C 50.7160493827161 16.1900900437781  51.0671590441956 11.9785880941837  51.7422298174271 7.87625271276286  L 1.59646034895711 0.305628449916522  C 0.545827427070243 6.8767723064128  0 13.6164404050745  0 20.4836065573771  C 0 60.1404095050341  18.2026929172092 95.5453046099179  46.7079070964046 118.797299832581  Z " stroke-width="2" stroke="#ffffff" fill="none" transform="matrix(1 0 0 1 112 826 )" mask="url(#clip70)" />
  </g>
</svg>