<?xml version="1.0" encoding="utf-8"?>
<svg version="1.1" xmlns:xlink="http://www.w3.org/1999/xlink" width="70px" height="63px" xmlns="http://www.w3.org/2000/svg">
  <defs>
    <mask fill="white" id="clip72">
      <path d="M 27.8442874928699 62.2398175259755  C 39.8774008016495 54.3554573261816  54.2690005229085 49.6755071241565  69.7576077459497 49.4400991127793  L 69.7575040513233 0.000220713710412213  C 44.3480142424491 0.0464781504382842  20.6734823751676 7.3616281385762  0.770837496501519 19.9432127114559  L 27.8442874928699 62.2398175259755  Z " fill-rule="evenodd" />
    </mask>
  </defs>
  <g transform="matrix(1 0 0 1 -170 -720 )">
    <path d="M 27.8442874928699 62.2398175259755  C 39.8774008016495 54.3554573261816  54.2690005229085 49.6755071241565  69.7576077459497 49.4400991127793  L 69.7575040513233 0.000220713710412213  C 44.3480142424491 0.0464781504382842  20.6734823751676 7.3616281385762  0.770837496501519 19.9432127114559  L 27.8442874928699 62.2398175259755  Z " fill-rule="nonzero" fill="#f04864" stroke="none" transform="matrix(1 0 0 1 170 720 )" />
    <path d="M 27.8442874928699 62.2398175259755  C 39.8774008016495 54.3554573261816  54.2690005229085 49.6755071241565  69.7576077459497 49.4400991127793  L 69.7575040513233 0.000220713710412213  C 44.3480142424491 0.0464781504382842  20.6734823751676 7.3616281385762  0.770837496501519 19.9432127114559  L 27.8442874928699 62.2398175259755  Z " stroke-width="2" stroke="#ffffff" fill="none" transform="matrix(1 0 0 1 170 720 )" mask="url(#clip72)" />
  </g>
</svg>