<?xml version="1.0" encoding="utf-8"?>
<svg version="1.1" xmlns:xlink="http://www.w3.org/1999/xlink" width="12px" height="6px" xmlns="http://www.w3.org/2000/svg">
  <defs>
    <mask fill="white" id="clip76">
      <path d="M 0 3  C 0 4.6568542494  2.6862915012 6  6 6  C 9.3137084988 6  12 4.6568542494  12 3  C 12 1.3431457506  9.3137084988 0  6 0  C 2.6862915012 0  0 1.3431457506  0 3  Z " fill-rule="evenodd" />
    </mask>
  </defs>
  <g transform="matrix(1 0 0 1 -695 -394 )">
    <path d="M 0 3  C 0 4.6568542494  2.6862915012 6  6 6  C 9.3137084988 6  12 4.6568542494  12 3  C 12 1.3431457506  9.3137084988 0  6 0  C 2.6862915012 0  0 1.3431457506  0 3  Z " fill-rule="nonzero" fill="#5d7092" stroke="none" transform="matrix(1 0 0 1 695 394 )" />
    <path d="M 0 3  C 0 4.6568542494  2.6862915012 6  6 6  C 9.3137084988 6  12 4.6568542494  12 3  C 12 1.3431457506  9.3137084988 0  6 0  C 2.6862915012 0  0 1.3431457506  0 3  Z " stroke-width="2" stroke="#000000" fill="none" stroke-opacity="0.850980392156863" transform="matrix(1 0 0 1 695 394 )" mask="url(#clip76)" />
  </g>
</svg>