<?xml version="1.0" encoding="utf-8"?>
<svg version="1.1" xmlns:xlink="http://www.w3.org/1999/xlink" width="26px" height="20px" xmlns="http://www.w3.org/2000/svg">
  <g transform="matrix(1 0 0 1 -36 -278 )">
    <path d="M 4.875 10  L 8.125 10  L 8.125 16.6666666666667  L 4.875 16.6666666666667  L 4.875 10  Z M 10 3.33333333333333  L 13 3.33333333333333  L 13 16.6666666666667  L 10 16.6666666666667  L 10 3.33333333333333  Z M 2 18  L 26 18  L 26 20  L 0 20  L 0 0  L 2 0  L 2 18  Z M 14.625 6.66666666666667  L 17.875 6.66666666666667  L 17.875 16.6666666666667  L 14.625 16.6666666666667  L 14.625 6.66666666666667  Z M 19 1.66666666666667  L 22.75 1.66666666666667  L 22.75 16.6666666666667  L 19 16.6666666666667  L 19 1.66666666666667  Z " fill-rule="nonzero" fill="#000000" stroke="none" transform="matrix(1 0 0 1 36 278 )" />
  </g>
</svg>