<?xml version="1.0" encoding="utf-8"?>
<svg version="1.1" xmlns:xlink="http://www.w3.org/1999/xlink" width="25px" height="20px" xmlns="http://www.w3.org/2000/svg">
  <g transform="matrix(1 0 0 1 -36 -134 )">
    <path d="M 4.833984375 14.0127840909091  C 5.18275669642857 13.6576704545455  5.35714285714286 13.2291666666667  5.35714285714286 12.7272727272727  C 5.35714285714286 12.2253787878788  5.18275669642857 11.796875  4.833984375 11.4417613636364  C 4.48521205357143 11.0866477272727  4.06436011904762 10.9090909090909  3.57142857142857 10.9090909090909  C 3.07849702380952 10.9090909090909  2.65764508928571 11.0866477272727  2.30887276785714 11.4417613636364  C 1.96010044642857 11.796875  1.78571428571429 12.2253787878788  1.78571428571429 12.7272727272727  C 1.78571428571429 13.2291666666667  1.96010044642857 13.6576704545455  2.30887276785714 14.0127840909091  C 2.65764508928571 14.3678977272727  3.07849702380952 14.5454545454545  3.57142857142857 14.5454545454545  C 4.06436011904762 14.5454545454545  4.48521205357143 14.3678977272727  4.833984375 14.0127840909091  Z M 7.51255580357143 7.64914772727273  C 7.861328125 7.29403409090909  8.03571428571429 6.8655303030303  8.03571428571429 6.36363636363637  C 8.03571428571429 5.86174242424242  7.861328125 5.43323863636363  7.51255580357143 5.078125  C 7.16378348214286 4.72301136363637  6.74293154761905 4.54545454545455  6.25 4.54545454545455  C 5.75706845238095 4.54545454545455  5.33621651785714 4.72301136363637  4.98744419642857 5.078125  C 4.638671875 5.43323863636363  4.46428571428571 5.86174242424242  4.46428571428571 6.36363636363637  C 4.46428571428571 6.8655303030303  4.638671875 7.29403409090909  4.98744419642857 7.64914772727273  C 5.33621651785714 8.00426136363637  5.75706845238095 8.18181818181818  6.25 8.18181818181818  C 6.74293154761905 8.18181818181818  7.16378348214286 8.00426136363637  7.51255580357143 7.64914772727273  Z M 15.0111607142857 14.4886363636364  C 14.8065476190476 13.9488636363636  14.4717261904762 13.5179924242424  14.0066964285714 13.1960227272727  L 15.4157366071429 7.76988636363637  C 15.4715401785714 7.52367424242424  15.4366629464286 7.29403409090909  15.3111049107143 7.08096590909091  C 15.185546875 6.86789772727272  15.0065104166667 6.7282196969697  14.7739955357143 6.66193181818182  C 14.5414806547619 6.59564393939394  14.3182663690476 6.62642045454545  14.1043526785714 6.75426136363637  C 13.8904389880952 6.88210227272727  13.7509300595238 7.06912878787879  13.6858258928571 7.31534090909091  L 12.2767857142857 12.7414772727273  C 11.71875 12.7888257575758  11.2211681547619 12.9947916666667  10.7840401785714 13.359375  C 10.346912202381 13.7239583333333  10.053943452381 14.1903409090909  9.90513392857143 14.7585227272727  C 9.71912202380953 15.4876893939394  9.81212797619048 16.1789772727273  10.1841517857143 16.8323863636364  C 10.5561755952381 17.4857954545455  11.1002604166667 17.907196969697  11.81640625 18.0965909090909  C 12.5325520833333 18.2859848484848  13.2114955357143 18.1912878787879  13.8532366071429 17.8125  C 14.4949776785714 17.4337121212121  14.9088541666667 16.8797348484848  15.0948660714286 16.1505681818182  C 15.2436755952381 15.5823863636364  15.2157738095238 15.0284090909091  15.0111607142857 14.4886363636364  Z M 22.6911272321429 14.0127840909091  C 23.0398995535714 13.6576704545455  23.2142857142857 13.2291666666667  23.2142857142857 12.7272727272727  C 23.2142857142857 12.2253787878788  23.0398995535714 11.796875  22.6911272321429 11.4417613636364  C 22.3423549107143 11.0866477272727  21.9215029761905 10.9090909090909  21.4285714285714 10.9090909090909  C 20.9356398809524 10.9090909090909  20.5147879464286 11.0866477272727  20.166015625 11.4417613636364  C 19.8172433035714 11.796875  19.6428571428571 12.2253787878788  19.6428571428571 12.7272727272727  C 19.6428571428571 13.2291666666667  19.8172433035714 13.6576704545455  20.166015625 14.0127840909091  C 20.5147879464286 14.3678977272727  20.9356398809524 14.5454545454545  21.4285714285714 14.5454545454545  C 21.9215029761905 14.5454545454545  22.3423549107143 14.3678977272727  22.6911272321429 14.0127840909091  Z M 13.7625558035714 4.921875  C 14.111328125 4.56676136363637  14.2857142857143 4.13825757575758  14.2857142857143 3.63636363636364  C 14.2857142857143 3.1344696969697  14.111328125 2.70596590909091  13.7625558035714 2.35085227272727  C 13.4137834821429 1.99573863636364  12.992931547619 1.81818181818182  12.5 1.81818181818182  C 12.007068452381 1.81818181818182  11.5862165178571 1.99573863636364  11.2374441964286 2.35085227272727  C 10.888671875 2.70596590909091  10.7142857142857 3.1344696969697  10.7142857142857 3.63636363636364  C 10.7142857142857 4.13825757575758  10.888671875 4.56676136363637  11.2374441964286 4.921875  C 11.5862165178571 5.27698863636363  12.007068452381 5.45454545454545  12.5 5.45454545454545  C 12.992931547619 5.45454545454545  13.4137834821429 5.27698863636363  13.7625558035714 4.921875  Z M 20.0125558035714 7.64914772727273  C 20.361328125 7.29403409090909  20.5357142857143 6.8655303030303  20.5357142857143 6.36363636363637  C 20.5357142857143 5.86174242424242  20.361328125 5.43323863636363  20.0125558035714 5.078125  C 19.6637834821429 4.72301136363637  19.2429315476191 4.54545454545455  18.75 4.54545454545455  C 18.257068452381 4.54545454545455  17.8362165178571 4.72301136363637  17.4874441964286 5.078125  C 17.138671875 5.43323863636363  16.9642857142857 5.86174242424242  16.9642857142857 6.36363636363637  C 16.9642857142857 6.8655303030303  17.138671875 7.29403409090909  17.4874441964286 7.64914772727273  C 17.8362165178571 8.00426136363637  18.257068452381 8.18181818181818  18.75 8.18181818181818  C 19.2429315476191 8.18181818181818  19.6637834821429 8.00426136363637  20.0125558035714 7.64914772727273  Z M 24.0094866071429 7.78409090909091  C 24.6698288690476 9.35606060606061  25 11.0037878787879  25 12.7272727272727  C 25 15.1988636363636  24.3443080357143 17.4857954545455  23.0329241071429 19.5880681818182  C 22.8562127976191 19.8626893939394  22.6050967261905 20  22.2795758928571 20  L 2.72042410714286 20  C 2.39490327380952 20  2.14378720238095 19.8626893939394  1.96707589285714 19.5880681818182  C 0.655691964285714 17.4952651515152  0 15.2083333333333  0 12.7272727272727  C 0 11.0037878787879  0.330171130952381 9.35606060606061  0.990513392857143 7.78409090909091  C 1.6508556547619 6.21212121212121  2.5390625 4.85795454545455  3.65513392857143 3.72159090909091  C 4.77120535714286 2.58522727272727  6.10119047619048 1.68087121212121  7.64508928571429 1.00852272727273  C 9.1889880952381 0.336174242424241  10.8072916666667 0  12.5 0  C 14.1927083333333 0  15.8110119047619 0.336174242424241  17.3549107142857 1.00852272727273  C 18.8988095238095 1.68087121212121  20.2287946428571 2.58522727272727  21.3448660714286 3.72159090909091  C 22.4609375 4.85795454545455  23.3491443452381 6.21212121212121  24.0094866071429 7.78409090909091  Z " fill-rule="nonzero" fill="#000000" stroke="none" transform="matrix(1 0 0 1 36 134 )" />
  </g>
</svg>