<?xml version="1.0" encoding="utf-8"?>
<svg version="1.1" xmlns:xlink="http://www.w3.org/1999/xlink" width="26px" height="22px" xmlns="http://www.w3.org/2000/svg">
  <g transform="matrix(1 0 0 1 -36 -425 )">
    <path d="M 15.7083333333333 15.4  L 17.31640625 12.1  L 22.6653645833333 12.1  C 22.6540798611111 12.065625  22.6399739583333 12.0169270833333  22.623046875 11.95390625  C 22.6061197916667 11.8908854166667  22.5920138888889 11.8479166666667  22.5807291666667 11.825  L 18.9921875 3.3  L 7.0078125 3.3  L 3.41927083333333 11.825  C 3.40798611111111 11.859375  3.39388020833333 11.9080729166667  3.376953125 11.97109375  C 3.36002604166667 12.0341145833333  3.34592013888889 12.0770833333333  3.33463541666667 12.1  L 8.68359375 12.1  L 10.2916666666667 15.4  L 15.7083333333333 15.4  Z M 25.5768229166667 10.5015625  C 25.8589409722222 11.2005208333333  26 11.9052083333333  26 12.615625  L 26 20.9  C 26 21.1979166666667  25.8927951388889 21.4557291666667  25.6783854166667 21.6734375  C 25.4639756944444 21.8911458333333  25.2100694444444 22  24.9166666666667 22  L 1.08333333333333 22  C 0.789930555555556 22  0.536024305555556 21.8911458333333  0.321614583333333 21.6734375  C 0.107204861111111 21.4557291666667  0 21.1979166666667  0 20.9  L 0 12.615625  C 0 11.9052083333333  0.141059027777778 11.2005208333333  0.423177083333333 10.5015625  L 4.45182291666667 1.0140625  C 4.56467013888889 0.727604166666664  4.77061631944444 0.486979166666666  5.06966145833333 0.2921875  C 5.36870659722222 0.0973958333333302  5.66493055555556 0  5.95833333333333 0  L 20.0416666666667 0  C 20.3350694444444 0  20.6312934027778 0.0973958333333302  20.9303385416667 0.2921875  C 21.2293836805556 0.486979166666666  21.4353298611111 0.727604166666664  21.5481770833333 1.0140625  L 25.5768229166667 10.5015625  Z " fill-rule="nonzero" fill="#000000" stroke="none" transform="matrix(1 0 0 1 36 425 )" />
  </g>
</svg>