<?xml version="1.0" encoding="utf-8"?>
<svg version="1.1" xmlns:xlink="http://www.w3.org/1999/xlink" width="26px" height="26px" xmlns="http://www.w3.org/2000/svg">
  <g transform="matrix(1 0 0 1 -36 -349 )">
    <path d="M 12.6106770833333 15.3190104166667  C 12.7235243055556 15.4318576388889  12.7799479166667 15.5616319444444  12.7799479166667 15.7083333333333  C 12.7799479166667 15.8550347222222  12.7235243055556 15.9848090277778  12.6106770833333 16.09765625  L 6.99088541666667 21.7174479166667  L 9.42838541666667 24.1549479166667  C 9.64279513888889 24.3693576388889  9.75 24.6232638888889  9.75 24.9166666666667  C 9.75 25.2100694444444  9.64279513888889 25.4639756944444  9.42838541666667 25.6783854166667  C 9.21397569444444 25.8927951388889  8.96006944444444 26  8.66666666666667 26  L 1.08333333333333 26  C 0.789930555555556 26  0.536024305555556 25.8927951388889  0.321614583333333 25.6783854166667  C 0.107204861111111 25.4639756944444  0 25.2100694444444  0 24.9166666666667  L 0 17.3333333333333  C 0 17.0399305555556  0.107204861111111 16.7860243055556  0.321614583333333 16.5716145833333  C 0.536024305555556 16.3572048611111  0.789930555555556 16.25  1.08333333333333 16.25  C 1.37673611111111 16.25  1.63064236111111 16.3572048611111  1.84505208333333 16.5716145833333  L 4.28255208333333 19.0091145833333  L 9.90234375 13.3893229166667  C 10.0151909722222 13.2764756944444  10.1449652777778 13.2200520833333  10.2916666666667 13.2200520833333  C 10.4383680555556 13.2200520833333  10.5681423611111 13.2764756944444  10.6809895833333 13.3893229166667  L 12.6106770833333 15.3190104166667  Z M 25.6783854166667 0.321614583333332  C 25.8927951388889 0.536024305555552  26 0.789930555555552  26 1.08333333333333  L 26 8.66666666666667  C 26 8.96006944444444  25.8927951388889 9.21397569444444  25.6783854166667 9.42838541666667  C 25.4639756944444 9.64279513888889  25.2100694444444 9.75  24.9166666666667 9.75  C 24.6232638888889 9.75  24.3693576388889 9.64279513888889  24.1549479166667 9.42838541666667  L 21.7174479166667 6.99088541666667  L 16.09765625 12.6106770833333  C 15.9848090277778 12.7235243055556  15.8550347222222 12.7799479166667  15.7083333333333 12.7799479166667  C 15.5616319444444 12.7799479166667  15.4318576388889 12.7235243055556  15.3190104166667 12.6106770833333  L 13.3893229166667 10.6809895833333  C 13.2764756944444 10.5681423611111  13.2200520833333 10.4383680555556  13.2200520833333 10.2916666666667  C 13.2200520833333 10.1449652777778  13.2764756944444 10.0151909722222  13.3893229166667 9.90234375  L 19.0091145833333 4.28255208333333  L 16.5716145833333 1.84505208333333  C 16.3572048611111 1.63064236111111  16.25 1.37673611111111  16.25 1.08333333333333  C 16.25 0.789930555555552  16.3572048611111 0.536024305555552  16.5716145833333 0.321614583333332  C 16.7860243055556 0.10720486111111  17.0399305555556 0  17.3333333333333 0  L 24.9166666666667 0  C 25.2100694444444 0  25.4639756944444 0.10720486111111  25.6783854166667 0.321614583333332  Z " fill-rule="nonzero" fill="#000000" stroke="none" transform="matrix(1 0 0 1 36 349 )" />
  </g>
</svg>