<?xml version="1.0" encoding="utf-8"?>
<svg version="1.1" xmlns:xlink="http://www.w3.org/1999/xlink" width="35px" height="24px" xmlns="http://www.w3.org/2000/svg">
  <g transform="matrix(1 0 0 1 -1403 -58 )">
    <path d="M 17.5 13.0909090909091  L 17.5 6.54545454545455  L 10.9375 6.54545454545455  L 10.9375 13.0909090909091  L 17.5 13.0909090909091  Z M 8.75 17  L 19.6875 17  L 19.6875 19.6363636363636  L 8.75 19.6363636363636  L 8.75 17  Z M 9 4.36363636363636  L 19 4.36363636363636  L 19 15  L 9 15  L 9 4.36363636363636  Z M 21.875 17.4545454545455  L 30.625 17.4545454545455  L 30.625 19.6363636363636  L 21.875 19.6363636363636  L 21.875 17.4545454545455  Z M 21.875 13.0909090909091  L 30.625 13.0909090909091  L 30.625 15.2727272727273  L 21.875 15.2727272727273  L 21.875 13.0909090909091  Z M 21.875 8.72727272727273  L 30.625 8.72727272727273  L 30.625 10.9090909090909  L 21.875 10.9090909090909  L 21.875 8.72727272727273  Z M 21.875 4.36363636363636  L 30.625 4.36363636363636  L 30.625 6.54545454545455  L 21.875 6.54545454545455  L 21.875 4.36363636363636  Z M 4.05029296875 21.4943181818182  C 4.26676432291667 21.2784090909091  4.375 21.0227272727273  5 20.7272727272727  L 5 4.36363636363636  L 2.1875 4.36363636363636  L 2.1875 20.7272727272727  C 2.1875 21.0227272727273  2.29573567708333 21.2784090909091  2.51220703125 21.4943181818182  C 2.72867838541667 21.7102272727273  2.98502604166667 21.8181818181818  3.28125 21.8181818181818  C 3.57747395833333 21.8181818181818  3.83382161458333 21.7102272727273  4.05029296875 21.4943181818182  Z M 32.48779296875 21.4943181818182  C 32.7042643229167 21.2784090909091  32.8125 21.0227272727273  32.8125 20.7272727272727  L 32.8125 2.18181818181818  L 7 2.18181818181818  L 7 20.7272727272727  C 6.5625 21.1022727272727  6.49983723958333 21.4659090909091  6.37451171875 21.8181818181818  L 31.71875 21.8181818181818  C 32.0149739583333 21.8181818181818  32.2713216145833 21.7102272727273  32.48779296875 21.4943181818182  Z M 4.375 0  L 35 0  L 35 20.7272727272727  C 35 21.6363636363636  34.6809895833333 22.4090909090909  34.04296875 23.0454545454545  C 33.4049479166667 23.6818181818182  32.6302083333333 24  31.71875 24  L 3.28125 24  C 2.36979166666667 24  1.59505208333333 23.6818181818182  0.95703125 23.0454545454545  C 0.319010416666667 22.4090909090909  0 21.6363636363636  0 20.7272727272727  L 0 2.18181818181818  L 4.375 2.18181818181818  L 4.375 0  Z " fill-rule="nonzero" fill="#000000" stroke="none" transform="matrix(1 0 0 1 1403 58 )" />
  </g>
</svg>