<?xml version="1.0" encoding="utf-8"?>
<svg version="1.1" xmlns:xlink="http://www.w3.org/1999/xlink" width="31px" height="24px" xmlns="http://www.w3.org/2000/svg">
  <g transform="matrix(1 0 0 1 -1312 -58 )">
    <path d="M 6.478515625 17.6164772727273  C 6.58807663690476 17.7244318181818  6.64285714285714 17.8522727272727  6.64285714285714 18  L 6.64285714285714 19.0909090909091  C 6.64285714285714 19.2386363636364  6.58807663690476 19.3664772727273  6.478515625 19.4744318181818  C 6.36895461309524 19.5823863636364  6.23921130952381 19.6363636363636  6.08928571428571 19.6363636363636  L 4.98214285714286 19.6363636363636  C 4.83221726190476 19.6363636363636  4.70247395833333 19.5823863636364  4.59291294642857 19.4744318181818  C 4.48335193452381 19.3664772727273  4.42857142857143 19.2386363636364  4.42857142857143 19.0909090909091  L 4.42857142857143 18  C 4.42857142857143 17.8522727272727  4.48335193452381 17.7244318181818  4.59291294642857 17.6164772727273  C 4.70247395833333 17.5085227272727  4.83221726190476 17.4545454545455  4.98214285714286 17.4545454545455  L 6.08928571428571 17.4545454545455  C 6.23921130952381 17.4545454545455  6.36895461309524 17.5085227272727  6.478515625 17.6164772727273  Z M 6.478515625 13.2528409090909  C 6.58807663690476 13.3607954545455  6.64285714285714 13.4886363636364  6.64285714285714 13.6363636363636  L 6.64285714285714 14.7272727272727  C 6.64285714285714 14.875  6.58807663690476 15.0028409090909  6.478515625 15.1107954545455  C 6.36895461309524 15.21875  6.23921130952381 15.2727272727273  6.08928571428571 15.2727272727273  L 4.98214285714286 15.2727272727273  C 4.83221726190476 15.2727272727273  4.70247395833333 15.21875  4.59291294642857 15.1107954545455  C 4.48335193452381 15.0028409090909  4.42857142857143 14.875  4.42857142857143 14.7272727272727  L 4.42857142857143 13.6363636363636  C 4.42857142857143 13.4886363636364  4.48335193452381 13.3607954545455  4.59291294642857 13.2528409090909  C 4.70247395833333 13.1448863636364  4.83221726190476 13.0909090909091  4.98214285714286 13.0909090909091  L 6.08928571428571 13.0909090909091  C 6.23921130952381 13.0909090909091  6.36895461309524 13.1448863636364  6.478515625 13.2528409090909  Z M 6.478515625 8.88920454545455  C 6.58807663690476 8.99715909090909  6.64285714285714 9.125  6.64285714285714 9.27272727272727  L 6.64285714285714 10.3636363636364  C 6.64285714285714 10.5113636363636  6.58807663690476 10.6392045454545  6.478515625 10.7471590909091  C 6.36895461309524 10.8551136363636  6.23921130952381 10.9090909090909  6.08928571428571 10.9090909090909  L 4.98214285714286 10.9090909090909  C 4.83221726190476 10.9090909090909  4.70247395833333 10.8551136363636  4.59291294642857 10.7471590909091  C 4.48335193452381 10.6392045454545  4.42857142857143 10.5113636363636  4.42857142857143 10.3636363636364  L 4.42857142857143 9.27272727272727  C 4.42857142857143 9.125  4.48335193452381 8.99715909090909  4.59291294642857 8.88920454545455  C 4.70247395833333 8.78125  4.83221726190476 8.72727272727273  4.98214285714286 8.72727272727273  L 6.08928571428571 8.72727272727273  C 6.23921130952381 8.72727272727273  6.36895461309524 8.78125  6.478515625 8.88920454545455  Z M 26.4070870535714 17.6164772727273  C 26.5166480654762 17.7244318181818  26.5714285714286 17.8522727272727  26.5714285714286 18  L 26.5714285714286 19.0909090909091  C 26.5714285714286 19.2386363636364  26.5166480654762 19.3664772727273  26.4070870535714 19.4744318181818  C 26.2975260416667 19.5823863636364  26.1677827380952 19.6363636363636  26.0178571428571 19.6363636363636  L 9.41071428571428 19.6363636363636  C 9.26078869047619 19.6363636363636  9.13104538690476 19.5823863636364  9.021484375 19.4744318181818  C 8.91192336309524 19.3664772727273  8.85714285714286 19.2386363636364  8.85714285714286 19.0909090909091  L 8.85714285714286 18  C 8.85714285714286 17.8522727272727  8.91192336309524 17.7244318181818  9.021484375 17.6164772727273  C 9.13104538690476 17.5085227272727  9.26078869047619 17.4545454545455  9.41071428571428 17  L 26.0178571428571 17  C 26.1677827380952 17.4545454545455  26.2975260416667 17.5085227272727  26.4070870535714 17.6164772727273  Z M 26.4070870535714 13.2528409090909  C 26.5166480654762 13.3607954545455  26.5714285714286 13.4886363636364  26.5714285714286 13.6363636363636  L 26.5714285714286 14.7272727272727  C 26.5714285714286 14.875  26.5166480654762 15.0028409090909  26.4070870535714 15.1107954545455  C 26.2975260416667 15.21875  26.1677827380952 15.2727272727273  26.0178571428571 15  L 9.41071428571428 15  C 9.26078869047619 15.2727272727273  9.13104538690476 15.21875  9.021484375 15.1107954545455  C 8.91192336309524 15.0028409090909  8.85714285714286 14.875  8.85714285714286 14.7272727272727  L 8.85714285714286 13.6363636363636  C 8.85714285714286 13.4886363636364  8.91192336309524 13.3607954545455  9.021484375 13.2528409090909  C 9.13104538690476 13.1448863636364  9.26078869047619 13.0909090909091  9.41071428571428 13  L 26.0178571428571 13  C 26.1677827380952 13.0909090909091  26.2975260416667 13.1448863636364  26.4070870535714 13.2528409090909  Z M 26.4070870535714 8.88920454545455  C 26.5166480654762 8.99715909090909  26.5714285714286 9.125  26.5714285714286 9.27272727272727  L 26.5714285714286 10.3636363636364  C 26.5714285714286 10.5113636363636  26.5166480654762 10.6392045454545  26.4070870535714 10.7471590909091  C 26.2975260416667 10.8551136363636  26.1677827380952 10.9090909090909  26.0178571428571 11  L 9.41071428571428 11  C 9.26078869047619 10.9090909090909  9.13104538690476 10.8551136363636  9.021484375 10.7471590909091  C 8.91192336309524 10.6392045454545  8.85714285714286 10.5113636363636  8.85714285714286 10.3636363636364  L 8.85714285714286 9.27272727272727  C 8.85714285714286 9.125  8.91192336309524 8.99715909090909  9.021484375 8.88920454545455  C 9.13104538690476 8.78125  9.26078869047619 8.72727272727273  9.41071428571428 9  L 26.0178571428571 9  C 26.1677827380952 8.72727272727273  26.2975260416667 8.78125  26.4070870535714 8.88920454545455  Z M 28.6213727678571 21.65625  C 28.7309337797619 21.5482954545455  28.7857142857143 21.4204545454545  28.7857142857143 21.2727272727273  L 28.7857142857143 7.09090909090909  C 28.7857142857143 6.94318181818182  28.7309337797619 6.81534090909091  28.6213727678571 6.70738636363636  C 28.5118117559524 6.59943181818182  28.382068452381 6.54545454545455  28.2321428571429 7  L 2.76785714285714 7  C 2.61793154761905 6.54545454545455  2.48818824404762 6.59943181818182  2.37862723214286 6.70738636363636  C 2.2690662202381 6.81534090909091  2.21428571428571 6.94318181818182  2.21428571428571 7.09090909090909  L 2.21428571428571 21.2727272727273  C 2.21428571428571 21.4204545454545  2.2690662202381 21.5482954545455  2.37862723214286 21.65625  C 2.48818824404762 21.7642045454545  2.61793154761905 21.8181818181818  2.76785714285714 21.8181818181818  L 28.2321428571429 21.8181818181818  C 28.382068452381 21.8181818181818  28.5118117559524 21.7642045454545  28.6213727678571 21.65625  Z M 30.1869419642857 0.801136363636362  C 30.7289806547619 1.33522727272727  31 1.97727272727273  31 2.72727272727273  L 31 21.2727272727273  C 31 22.0227272727273  30.7289806547619 22.6647727272727  30.1869419642857 23.1988636363636  C 29.6449032738095 23.7329545454545  28.9933035714286 24  28.2321428571429 24  L 2.76785714285714 24  C 2.00669642857143 24  1.35509672619048 23.7329545454545  0.813058035714286 23.1988636363636  C 0.271019345238095 22.6647727272727  0 22.0227272727273  0 21.2727272727273  L 0 2.72727272727273  C 0 1.97727272727273  0.271019345238095 1.33522727272727  0.813058035714286 0.801136363636362  C 1.35509672619048 0.267045454545451  2.00669642857143 0  2.76785714285714 0  L 28.2321428571429 0  C 28.9933035714286 0  29.6449032738095 0.267045454545451  30.1869419642857 0.801136363636362  Z " fill-rule="nonzero" fill="#000000" stroke="none" transform="matrix(1 0 0 1 1312 58 )" />
  </g>
</svg>