<?xml version="1.0" encoding="UTF-8"?>
<svg width="347px" height="219px" viewBox="0 0 347 219" version="1.1" xmlns="http://www.w3.org/2000/svg" xmlns:xlink="http://www.w3.org/1999/xlink">
    <!-- Generator: Sketch 60.1 (88133) - https://sketch.com -->
    <title>业绩上升图</title>
    <desc>Created with Sketch.</desc>
    <defs>
        <path d="M8.848,0.118 C4.323,0.118 0.654,3.786 0.654,8.311 L0.654,8.311 L0.654,209.564 C0.654,214.09 4.323,217.758 8.848,217.758 L8.848,217.758 L338.357,217.758 C342.882,217.758 346.55,214.09 346.55,209.564 L346.55,209.564 L346.55,8.311 C346.55,3.786 342.882,0.118 338.357,0.118 L338.357,0.118 L8.848,0.118 Z" id="path-1"></path>
        <path d="M8.848,0.118 C4.323,0.118 0.654,3.786 0.654,8.311 L0.654,8.311 L0.654,17.629 L346.55,17.629 L346.55,8.311 C346.55,3.786 342.882,0.118 338.357,0.118 L338.357,0.118 L8.848,0.118 Z" id="path-3"></path>
        <linearGradient x1="-13.1986502%" y1="-59.901073%" x2="118.632883%" y2="-59.901073%" id="linearGradient-5">
            <stop stop-color="#A6DBF3" offset="0%"></stop>
            <stop stop-color="#A3CEE9" offset="100%"></stop>
        </linearGradient>
        <path d="M3.148,0.548 C1.54,0.548 0.237,1.852 0.237,3.46 L0.237,3.46 L0.237,88.833 C0.237,90.441 1.54,91.744 3.148,91.744 L3.148,91.744 L14.141,91.744 C15.749,91.744 17.053,90.441 17.053,88.833 L17.053,88.833 L17.053,3.46 C17.053,1.852 15.749,0.548 14.141,0.548 L14.141,0.548 L3.148,0.548 Z" id="path-6"></path>
        <path d="M3.074,0.548 C1.466,0.548 0.163,1.852 0.163,3.46 L0.163,3.46 L0.163,88.833 C0.163,90.441 1.466,91.744 3.074,91.744 L3.074,91.744 L14.067,91.744 C15.675,91.744 16.978,90.441 16.978,88.833 L16.978,88.833 L16.978,3.46 C16.978,1.852 15.675,0.548 14.067,0.548 L14.067,0.548 L3.074,0.548 Z" id="path-8"></path>
        <path d="M3.717,0.548 C2.109,0.548 0.805,1.852 0.805,3.46 L0.805,3.46 L0.805,88.833 C0.805,90.441 2.109,91.744 3.717,91.744 L3.717,91.744 L14.71,91.744 C16.318,91.744 17.622,90.441 17.622,88.833 L17.622,88.833 L17.622,3.46 C17.622,1.852 16.318,0.548 14.71,0.548 L14.71,0.548 L3.717,0.548 Z" id="path-10"></path>
        <path d="M3.643,0.548 C2.034,0.548 0.731,1.852 0.731,3.46 L0.731,3.46 L0.731,88.833 C0.731,90.441 2.034,91.744 3.643,91.744 L3.643,91.744 L14.635,91.744 C16.243,91.744 17.547,90.441 17.547,88.833 L17.547,88.833 L17.547,3.46 C17.547,1.852 16.243,0.548 14.635,0.548 L14.635,0.548 L3.643,0.548 Z" id="path-12"></path>
        <path d="M3.286,0.548 C1.679,0.548 0.374,1.852 0.374,3.46 L0.374,3.46 L0.374,88.833 C0.374,90.441 1.679,91.744 3.286,91.744 L3.286,91.744 L14.279,91.744 C15.887,91.744 17.19,90.441 17.19,88.833 L17.19,88.833 L17.19,3.46 C17.19,1.852 15.887,0.548 14.279,0.548 L14.279,0.548 L3.286,0.548 Z" id="path-14"></path>
        <path d="M3.21,0.548 C1.603,0.548 0.301,1.852 0.301,3.46 L0.301,3.46 L0.301,88.833 C0.301,90.441 1.603,91.744 3.21,91.744 L3.21,91.744 L14.204,91.744 C15.812,91.744 17.116,90.441 17.116,88.833 L17.116,88.833 L17.116,3.46 C17.116,1.852 15.812,0.548 14.204,0.548 L14.204,0.548 L3.21,0.548 Z" id="path-16"></path>
        <path d="M0.559,16.325 C0.559,25.171 7.728,32.341 16.573,32.341 L16.573,32.341 C25.419,32.341 32.589,25.171 32.589,16.325 L32.589,16.325 C32.589,7.48 25.419,0.309 16.573,0.309 L16.573,0.309 C7.728,0.309 0.559,7.48 0.559,16.325 L0.559,16.325 Z" id="path-18"></path>
        <path d="M0.294,7.053 C0.294,10.671 3.227,13.605 6.845,13.605 L6.845,13.605 C10.463,13.605 13.397,10.671 13.397,7.053 L13.397,7.053 C13.397,3.435 10.463,0.501 6.845,0.501 L6.845,0.501 C3.227,0.501 0.294,3.435 0.294,7.053 L0.294,7.053 Z" id="path-20"></path>
        <path d="M9.566,0.681 C4.432,0.681 0.271,3.984 0.271,8.059 L0.271,8.059 C0.271,12.135 4.432,15.438 9.566,15.438 L9.566,15.438 L94.732,15.438 C99.866,15.438 104.027,12.135 104.027,8.059 L104.027,8.059 C104.027,3.984 99.866,0.681 94.732,0.681 L94.732,0.681 L9.566,0.681 Z" id="path-22"></path>
        <path d="M6.467,0.618 C3.045,0.618 0.271,2.82 0.271,5.536 L0.271,5.536 C0.271,8.254 3.045,10.455 6.467,10.455 L6.467,10.455 L172.964,10.455 C176.387,10.455 179.161,8.254 179.161,5.536 L179.161,5.536 C179.161,2.82 176.387,0.618 172.964,0.618 L172.964,0.618 L6.467,0.618 Z" id="path-24"></path>
    </defs>
    <g id="页面-1" stroke="none" stroke-width="1" fill="none" fill-rule="evenodd">
        <g id="业绩上升图">
            <g id="编组" transform="translate(0.000000, 0.371000)">
                <mask id="mask-2" fill="white">
                    <use xlink:href="#path-1"></use>
                </mask>
                <g id="Clip-2"></g>
                <polygon id="Fill-1" fill="#FFFFFF" mask="url(#mask-2)" points="-9.588 228 356.791 228 356.791 -10.125 -9.588 -10.125"></polygon>
            </g>
            <g id="编组" transform="translate(0.000000, 0.371000)">
                <mask id="mask-4" fill="white">
                    <use xlink:href="#path-3"></use>
                </mask>
                <g id="Clip-4"></g>
                <path d="M8.848,0.118 C4.323,0.118 0.654,3.786 0.654,8.311 L0.654,8.311 L0.654,17.629 L346.55,17.629 L346.55,8.311 C346.55,3.786 342.882,0.118 338.357,0.118 L338.357,0.118 L8.848,0.118 Z" id="Fill-3" fill="url(#linearGradient-5)" mask="url(#mask-4)"></path>
            </g>
            <g id="编组" transform="translate(43.000000, 113.371000)">
                <mask id="mask-7" fill="white">
                    <use xlink:href="#path-6"></use>
                </mask>
                <g id="Clip-6"></g>
                <polygon id="Fill-5" fill="#F8F8FA" mask="url(#mask-7)" points="-7.043 99.024 24.333 99.024 24.333 -6.732 -7.043 -6.732"></polygon>
            </g>
            <g id="编组" transform="translate(91.000000, 113.371000)">
                <mask id="mask-9" fill="white">
                    <use xlink:href="#path-8"></use>
                </mask>
                <g id="Clip-8"></g>
                <polygon id="Fill-7" fill="#F8F8FA" mask="url(#mask-9)" points="-7.117 99.024 24.259 99.024 24.259 -6.732 -7.117 -6.732"></polygon>
            </g>
            <g id="编组" transform="translate(136.000000, 113.371000)">
                <mask id="mask-11" fill="white">
                    <use xlink:href="#path-10"></use>
                </mask>
                <g id="Clip-10"></g>
                <polygon id="Fill-9" fill="#F8F8FA" mask="url(#mask-11)" points="-6.474 99.024 24.902 99.024 24.902 -6.732 -6.474 -6.732"></polygon>
            </g>
            <g id="编组" transform="translate(184.000000, 113.371000)">
                <mask id="mask-13" fill="white">
                    <use xlink:href="#path-12"></use>
                </mask>
                <g id="Clip-12"></g>
                <polygon id="Fill-11" fill="#F8F8FA" mask="url(#mask-13)" points="-6.549 99.024 24.827 99.024 24.827 -6.732 -6.549 -6.732"></polygon>
            </g>
            <g id="编组" transform="translate(230.000000, 113.371000)">
                <mask id="mask-15" fill="white">
                    <use xlink:href="#path-14"></use>
                </mask>
                <g id="Clip-14"></g>
                <polygon id="Fill-13" fill="#F8F8FA" mask="url(#mask-15)" points="-6.905 99.024 24.471 99.024 24.471 -6.732 -6.905 -6.732"></polygon>
            </g>
            <g id="编组" transform="translate(278.000000, 113.371000)">
                <mask id="mask-17" fill="white">
                    <use xlink:href="#path-16"></use>
                </mask>
                <g id="Clip-16"></g>
                <polygon id="Fill-15" fill="#F8F8FA" mask="url(#mask-17)" points="-6.98 99.024 24.396 99.024 24.396 -6.732 -6.98 -6.732"></polygon>
            </g>
            <path d="M32.201,188.9631 L30.976,187.3821 C88.528,142.7711 129.582,161.4821 159.558,175.1441 C174.581,181.9901 186.446,187.3971 196.629,183.7811 C214.124,178.1521 229.35,159.2051 244.077,140.8801 C262.027,118.5441 280.589,95.4471 303.853,95.4471 L303.853,97.4471 C281.548,97.4471 263.291,120.1641 245.636,142.1331 C230.725,160.6881 215.307,179.8731 197.27,185.6761 C186.348,189.5521 173.551,183.7191 158.729,176.9631 C129.216,163.5141 88.799,145.0901 32.201,188.9631" id="Fill-17" fill="#F4AD92"></path>
            <g id="编组" transform="translate(280.000000, 55.371000)">
                <mask id="mask-19" fill="white">
                    <use xlink:href="#path-18"></use>
                </mask>
                <g id="Clip-20"></g>
                <polygon id="Fill-19" fill="#F4AD92" mask="url(#mask-19)" points="-6.722 39.62 39.869 39.62 39.869 -6.97 -6.722 -6.97"></polygon>
            </g>
            <path d="M32.3514,188.8186 L30.8264,187.5256 C85.4884,123.0266 129.5884,139.6786 161.7884,151.8356 C175.6124,157.0546 187.5474,161.5596 196.9364,158.1896 C212.7064,153.9436 227.1214,135.9066 242.3814,116.8106 C261.0724,93.4226 280.3994,69.2396 303.8534,69.2396 L303.8534,71.2396 C281.3614,71.2396 262.3394,95.0416 243.9444,118.0586 C228.4724,137.4186 213.8584,155.7056 197.5344,160.0956 C187.5304,163.6926 175.2744,159.0646 161.0824,153.7066 C129.4404,141.7606 86.1034,125.3966 32.3514,188.8186" id="Fill-21" fill="#F4AD92"></path>
            <g id="编组" transform="translate(289.000000, 65.371000)">
                <mask id="mask-21" fill="white">
                    <use xlink:href="#path-20"></use>
                </mask>
                <g id="Clip-24"></g>
                <polygon id="Fill-23" fill="#FFFFFF" mask="url(#mask-21)" points="-6.986 20.885 20.677 20.885 20.677 -6.778 -6.986 -6.778"></polygon>
            </g>
            <path d="M295.8455,78.9763 C292.2295,78.9763 289.2935,76.0403 289.2935,72.4243 C289.2935,68.8083 292.2295,65.8723 295.8455,65.8723 C299.4605,65.8723 302.3975,68.8083 302.3975,72.4243 C302.3975,76.0403 299.4605,78.9763 295.8455,78.9763 Z" id="Stroke-25" stroke="#F4AD92" stroke-width="2"></path>
            <g id="编组" transform="translate(38.000000, 41.371000)">
                <mask id="mask-23" fill="white">
                    <use xlink:href="#path-22"></use>
                </mask>
                <g id="Clip-28"></g>
                <polygon id="Fill-27" fill="#EBECF6" mask="url(#mask-23)" points="-8.628 22.5 112.926 22.5 112.926 -6.382 -8.628 -6.382"></polygon>
            </g>
            <g id="编组" transform="translate(38.000000, 69.371000)">
                <mask id="mask-25" fill="white">
                    <use xlink:href="#path-24"></use>
                </mask>
                <g id="Clip-30"></g>
                <polygon id="Fill-29" fill="#EBECF6" mask="url(#mask-25)" points="-8.628 17.518 188.06 17.518 188.06 -6.445 -8.628 -6.445"></polygon>
            </g>
        </g>
    </g>
</svg>