<?xml version="1.0" encoding="UTF-8"?>
<svg width="318px" height="176px" viewBox="0 0 318 176" version="1.1" xmlns="http://www.w3.org/2000/svg" xmlns:xlink="http://www.w3.org/1999/xlink">
    <!-- Generator: Sketch 60.1 (88133) - https://sketch.com -->
    <title>对话框</title>
    <desc>Created with Sketch.</desc>
    <defs>
        <path d="M38.08,0.391 C17.081,0.391 0.034,17.437 0.034,38.436 L0.034,38.436 L0.034,108.328 L0,108.307 L0.034,109.955 L0.034,114.528 C0.034,115.711 0.088,116.881 0.192,118.034 L0.192,118.034 L1.34,176 C10.851,160.153 33.636,153.536 56.806,152.573 L56.806,152.573 L69.067,152.573 C69.853,152.604 70.641,152.641 71.427,152.686 L71.427,152.686 L71.244,152.573 L279.711,152.573 C300.709,152.573 317.756,135.526 317.756,114.528 L317.756,114.528 L317.756,38.436 C317.756,17.437 300.709,0.391 279.711,0.391 L279.711,0.391 L38.08,0.391 Z" id="path-1"></path>
        <linearGradient x1="5.61751784e-05%" y1="44.3975075%" x2="280.355137%" y2="44.3975075%" id="linearGradient-3">
            <stop stop-color="#E7F3FC" offset="0%"></stop>
            <stop stop-color="#73B5E4" offset="100%"></stop>
        </linearGradient>
    </defs>
    <g id="页面-1" stroke="none" stroke-width="1" fill="none" fill-rule="evenodd">
        <g id="对话框" transform="translate(0.000000, -1.000000)">
            <g id="编组" transform="translate(0.000000, 0.609000)">
                <mask id="mask-2" fill="white">
                    <use xlink:href="#path-1"></use>
                </mask>
                <g id="Clip-2"></g>
                <path d="M38.08,0.391 C17.081,0.391 0.034,17.437 0.034,38.436 L0.034,38.436 L0.034,108.328 L0,108.307 L0.034,109.955 L0.034,114.528 C0.034,115.711 0.088,116.881 0.192,118.034 L0.192,118.034 L1.34,176 C10.851,160.153 33.636,153.536 56.806,152.573 L56.806,152.573 L69.067,152.573 C69.853,152.604 70.641,152.641 71.427,152.686 L71.427,152.686 L71.244,152.573 L279.711,152.573 C300.709,152.573 317.756,135.526 317.756,114.528 L317.756,114.528 L317.756,38.436 C317.756,17.437 300.709,0.391 279.711,0.391 L279.711,0.391 L38.08,0.391 Z" id="Fill-1" fill="url(#linearGradient-3)" mask="url(#mask-2)"></path>
            </g>
            <g id="编组" transform="translate(55.000000, 56.609000)" fill="#FFFFFF">
                <polygon id="Fill-3" points="0.05 16.758 217.25 16.758 217.25 0.78 0.05 0.78"></polygon>
                <polygon id="Fill-5" points="0.05 43.607 217.25 43.607 217.25 27.629 0.05 27.629"></polygon>
            </g>
        </g>
    </g>
</svg>