<?xml version="1.0" encoding="utf-8"?>
<svg version="1.1" xmlns:xlink="http://www.w3.org/1999/xlink" width="602px" height="492px" xmlns="http://www.w3.org/2000/svg">
  <g transform="matrix(1 0 0 1 0 -585 )">
    <path d="M 1 593  A 7 7 0 0 1 8 586 L 594 586  A 7 7 0 0 1 601 593 L 601 1069  A 7 7 0 0 1 594 1076 L 8 1076  A 7 7 0 0 1 1 1069 L 1 593  Z " fill-rule="nonzero" fill="#ffffff" stroke="none" />
    <path d="M 0.5 593  A 7.5 7.5 0 0 1 8 585.5 L 594 585.5  A 7.5 7.5 0 0 1 601.5 593 L 601.5 1069  A 7.5 7.5 0 0 1 594 1076.5 L 8 1076.5  A 7.5 7.5 0 0 1 0.5 1069 L 0.5 593  Z " stroke-width="1" stroke="#d2d2d2" fill="none" stroke-opacity="0.435294117647059" />
  </g>
</svg>