<?xml version="1.0" encoding="utf-8"?>
<svg version="1.1" xmlns:xlink="http://www.w3.org/1999/xlink" width="599px" height="492px" xmlns="http://www.w3.org/2000/svg">
  <g transform="matrix(1 0 0 1 -645 -585 )">
    <path d="M 646 593  A 7 7 0 0 1 653 586 L 1236 586  A 7 7 0 0 1 1243 593 L 1243 1069  A 7 7 0 0 1 1236 1076 L 653 1076  A 7 7 0 0 1 646 1069 L 646 593  Z " fill-rule="nonzero" fill="#ffffff" stroke="none" />
    <path d="M 645.5 593  A 7.5 7.5 0 0 1 653 585.5 L 1236 585.5  A 7.5 7.5 0 0 1 1243.5 593 L 1243.5 1069  A 7.5 7.5 0 0 1 1236 1076.5 L 653 1076.5  A 7.5 7.5 0 0 1 645.5 1069 L 645.5 593  Z " stroke-width="1" stroke="#d2d2d2" fill="none" stroke-opacity="0.435294117647059" />
  </g>
</svg>