<?xml version="1.0" encoding="utf-8"?>
<svg version="1.1" xmlns:xlink="http://www.w3.org/1999/xlink" width="1736px" height="695px" xmlns="http://www.w3.org/2000/svg">
  <defs>
    <linearGradient gradientUnits="userSpaceOnUse" x1="1197.98836363637" y1="3903.60189193523" x2="390.545454545454" y2="3903.60189193523" id="LinearGradient28">
      <stop id="Stop29" stop-color="#0e0e0e" stop-opacity="0.996078431372549" offset="0" />
      <stop id="Stop30" stop-color="#5e82ff" stop-opacity="0.117647058823529" offset="1" />
    </linearGradient>
  </defs>
  <g transform="matrix(1 0 0 1 -135 -3540 )">
    <path d="M 135.5 3556  A 15.5 15.5 0 0 1 151 3540.5 L 1855 3540.5  A 15.5 15.5 0 0 1 1870.5 3556 L 1870.5 4219  A 15.5 15.5 0 0 1 1855 4234.5 L 151 4234.5  A 15.5 15.5 0 0 1 135.5 4219 L 135.5 3556  Z " fill-rule="nonzero" fill="url(#LinearGradient28)" stroke="none" />
    <path d="M 135.5 3556  A 15.5 15.5 0 0 1 151 3540.5 L 1855 3540.5  A 15.5 15.5 0 0 1 1870.5 3556 L 1870.5 4219  A 15.5 15.5 0 0 1 1855 4234.5 L 151 4234.5  A 15.5 15.5 0 0 1 135.5 4219 L 135.5 3556  Z " stroke-width="1" stroke="#797979" fill="none" />
  </g>
</svg>