<?xml version="1.0" encoding="utf-8"?>
<svg version="1.1" xmlns:xlink="http://www.w3.org/1999/xlink" width="1736px" height="697px" xmlns="http://www.w3.org/2000/svg">
  <defs>
    <linearGradient gradientUnits="userSpaceOnUse" x1="1197.98836363637" y1="3901.6482283149" x2="390.545454545454" y2="3901.6482283149" id="LinearGradient32">
      <stop id="Stop33" stop-color="#0e0e0e" stop-opacity="0.996078431372549" offset="0" />
      <stop id="Stop34" stop-color="#5e82ff" stop-opacity="0.117647058823529" offset="1" />
    </linearGradient>
  </defs>
  <g transform="matrix(1 0 0 1 -135 -3537 )">
    <path d="M 135.5 3553  A 15.5 15.5 0 0 1 151 3537.5 L 1855 3537.5  A 15.5 15.5 0 0 1 1870.5 3553 L 1870.5 4218  A 15.5 15.5 0 0 1 1855 4233.5 L 151 4233.5  A 15.5 15.5 0 0 1 135.5 4218 L 135.5 3553  Z " fill-rule="nonzero" fill="url(#LinearGradient32)" stroke="none" />
    <path d="M 135.5 3553  A 15.5 15.5 0 0 1 151 3537.5 L 1855 3537.5  A 15.5 15.5 0 0 1 1870.5 3553 L 1870.5 4218  A 15.5 15.5 0 0 1 1855 4233.5 L 151 4233.5  A 15.5 15.5 0 0 1 135.5 4218 L 135.5 3553  Z " stroke-width="1" stroke="#797979" fill="none" />
  </g>
</svg>