<?xml version="1.0" encoding="utf-8"?>
<svg version="1.1" xmlns:xlink="http://www.w3.org/1999/xlink" width="37px" height="33px" xmlns="http://www.w3.org/2000/svg">
  <g transform="matrix(1 0 0 1 -1830 -34 )">
    <path d="M 36.774169921875 15.8278459821429  C 36.9247233072917 16.0181361607143  37 16.2360491071429  37 16.4815848214286  C 37 16.7393973214286  36.9217122395833 16.9634486607143  36.76513671875 17.1537388392857  C 36.6085611979167 17.3440290178571  36.4098307291667 17.4637276785714  36.1689453125 17.5128348214286  L 32.46533203125 24.0686383928571  C 32.50146484375 24.1791294642857  32.51953125 24.2896205357143  32.51953125 24.4001116071429  C 32.51953125 24.6456473214286  32.4442545572917 24.8635602678571  32.293701171875 25.0538504464286  C 32.1431477864583 25.244140625  31.9474283854167 25.3638392857143  31.70654296875 25.4129464285714  L 28.2197265625 31.6188616071429  C 28.255859375 31.7170758928571  28.27392578125 31.8152901785714  28.27392578125 31.9135044642857  C 28.27392578125 32.1958705357143  28.174560546875 32.44140625  27.975830078125 32.6501116071429  C 27.777099609375 32.8588169642857  27.533203125 32.9631696428571  27.244140625 32.9631696428571  C 26.9430338541667 32.9631696428571  26.6961263020833 32.8526785714286  26.50341796875 32.6316964285714  L 19.27685546875 32.6316964285714  C 19.0721028645833 32.8772321428571  18.8131510416667 33  18.5 33  C 18.1868489583333 33  17.9278971354167 32.8772321428571  17.72314453125 32.6316964285714  L 10.5146484375 32.6316964285714  C 10.3098958333333 32.8772321428571  10.0509440104167 33  9.73779296875 33  C 9.46077473958333 33  9.21988932291667 32.8987165178571  9.01513671875 32.6961495535714  C 8.81038411458333 32.4935825892857  8.7080078125 32.2449776785714  8.7080078125 31.9503348214286  C 8.7080078125 31.8521205357143  8.73209635416667 31.7293526785714  8.7802734375 31.58203125  L 5.29345703125 25.4129464285714  C 5.05257161458333 25.3638392857143  4.85685221354167 25.244140625  4.706298828125 25.0538504464286  C 4.55574544270833 24.8635602678571  4.48046875 24.6456473214286  4.48046875 24.4001116071429  C 4.48046875 24.2896205357143  4.49853515625 24.1791294642857  4.53466796875 24.0686383928571  L 0.81298828125 17.5128348214286  C 0.572102864583333 17.4514508928571  0.376383463541667 17.3256138392857  0.225830078125 17.1353236607143  C 0.0752766927083333 16.9450334821429  0 16.7271205357143  0 16.4815848214286  C 0 16.2237723214286  0.081298828125 15.9997209821429  0.243896484375 15.8094308035714  C 0.406494140625 15.619140625  0.608235677083333 15.4994419642857  0.84912109375 15.4503348214286  L 4.4443359375 9.11551339285714  C 4.4443359375 9.10323660714286  4.44132486979167 9.08482142857143  4.435302734375 9.06026785714286  C 4.42928059895833 9.03571428571428  4.42626953125 9.01729910714285  4.42626953125 9.00502232142857  C 4.42626953125 8.56305803571428  4.63102213541667 8.25  5.04052734375 8.06584821428572  L 8.81640625 1.38113839285714  C 8.76822916666667 1.25837053571429  8.744140625 1.14787946428571  8.744140625 1.04966517857143  C 8.744140625 0.755022321428572  8.84651692708333 0.506417410714284  9.05126953125 0.303850446428572  C 9.25602213541667 0.101283482142856  9.49690755208333 0  9.77392578125 0  C 10.0870768229167 0  10.35205078125 0.12890625  10.56884765625 0.38671875  L 17.72314453125 0.38671875  C 17.9158528645833 0.12890625  18.1748046875 0  18.5 0  C 18.8251953125 0  19.0841471354167 0.12890625  19.27685546875 0.38671875  L 26.46728515625 0.38671875  C 26.68408203125 0.12890625  26.9490559895833 0  27.26220703125 0  C 27.5392252604167 0  27.7801106770833 0.101283482142856  27.98486328125 0.303850446428572  C 28.1896158854167 0.506417410714284  28.2919921875 0.755022321428572  28.2919921875 1.04966517857143  C 28.2919921875 1.12332589285714  28.2679036458333 1.23381696428572  28.2197265625 1.38113839285714  L 31.95947265625 7.97377232142857  C 32.2364908854167 7.98604910714286  32.4713541666667 8.09347098214286  32.6640625 8.29603794642857  C 32.8567708333333 8.49860491071428  32.953125 8.73493303571428  32.953125 9.00502232142857  C 32.953125 9.16462053571428  32.9109700520833 9.33035714285714  32.82666015625 9.50223214285714  L 36.205078125 15.46875  C 36.4339192708333 15.5178571428571  36.6236165364583 15.6375558035714  36.774169921875 15.8278459821429  Z M 18.5 30.9006696428571  C 18.7529296875 30.9006696428571  18.98779296875 30.9988839285714  19.20458984375 31.1953125  L 26.232421875 31.1953125  L 20.0537109375 24.6763392857143  L 17.47021484375 24.6763392857143  L 11.29150390625 31.1953125  L 17.79541015625 31.1953125  C 18.01220703125 30.9988839285714  18.2470703125 30.9006696428571  18.5 30.9006696428571  Z M 5.5283203125 10.0546875  L 2.0234375 16.2421875  C 2.03548177083333 16.2912946428571  2.04150390625 16.37109375  2.04150390625 16.4815848214286  C 2.04150390625 16.6043526785714  2.02945963541667 16.6964285714286  2.00537109375 16.7578125  L 5.76318359375 23.3872767857143  L 6.0341796875 23.4977678571429  L 9.4306640625 19.8331473214286  L 9.4306640625 13.4430803571429  L 6.05224609375 9.87053571428572  C 5.89567057291667 9.96875  5.72102864583333 10.0301339285714  5.5283203125 10.0546875  Z M 18.5 2.09933035714286  C 18.2350260416667 2.09933035714286  18.0061848958333 2.00111607142857  17.8134765625 1.8046875  L 10.8037109375 1.8046875  L 14.236328125 5.48772321428572  L 24.2451171875 1.8046875  L 19.1865234375 1.8046875  C 18.9938151041667 2.00111607142857  18.7649739583333 2.09933035714286  18.5 2.09933035714286  Z M 29.14111328125 24.1238839285714  L 30.51416015625 24.1238839285714  C 30.5262044270833 24.0502232142857  30.5563151041667 23.9827008928571  30.6044921875 23.9213169642857  L 29.4482421875 22.6690848214286  L 29.14111328125 24.1238839285714  Z M 20.234375 24.1238839285714  L 28.59912109375 24.1238839285714  L 28.99658203125 22.1902901785714  L 24.44384765625 17.2918526785714  L 19.09619140625 22.9453125  L 20.234375 24.1238839285714  Z M 26.7744140625 30.9927455357143  C 26.8707682291667 30.9436383928571  26.9490559895833 30.9129464285714  27.00927734375 30.9006696428571  L 27.29833984375 30.3850446428571  L 28.47265625 24.6763392857143  L 20.75830078125 24.6763392857143  L 26.7744140625 30.9927455357143  Z M 10.044921875 30.9559151785714  C 10.2135416666667 31.0172991071429  10.3460286458333 31.0970982142857  10.4423828125 31.1953125  L 10.53271484375 31.1953125  L 16.71142578125 24.6763392857143  L 9.97265625 24.6763392857143  L 9.97265625 30.8454241071429  L 10.044921875 30.9559151785714  Z M 9.97265625 20.0541294642857  L 9.97265625 24.1238839285714  L 17.2353515625 24.1238839285714  L 18.3916015625 22.9084821428571  L 12.80908203125 16.9972098214286  L 9.97265625 20.0541294642857  Z M 6.3955078125 23.9029017857143  C 6.44368489583333 24.0011160714286  6.47379557291667 24.0747767857143  6.48583984375 24.1238839285714  L 9.4306640625 24.1238839285714  L 9.4306640625 20.6434151785714  L 6.3955078125 23.9029017857143  Z M 9.4306640625 7.84486607142857  L 6.4677734375 8.93136160714286  C 6.4677734375 8.94363839285714  6.47078450520833 8.95591517857143  6.476806640625 8.96819196428572  C 6.48282877604167 8.98046875  6.48583984375 8.99274553571428  6.48583984375 9.00502232142857  C 6.48583984375 9.20145089285714  6.43766276041667 9.37946428571428  6.34130859375 9.5390625  L 9.4306640625 12.7985491071429  L 9.4306640625 7.84486607142857  Z M 14.07373046875 6.13225446428572  L 9.97265625 7.64229910714286  L 9.97265625 13.3694196428571  L 12.73681640625 16.2606026785714  L 18.1025390625 10.4782366071429  L 14.07373046875 6.13225446428572  Z M 10.2255859375 1.98883928571428  C 10.1533203125 2.01339285714286  10.0930989583333 2.03180803571429  10.044921875 2.04408482142857  L 9.97265625 2.19140625  L 9.97265625 7.05301339285714  L 13.67626953125 5.69029017857143  L 10.2255859375 1.98883928571428  Z M 18.48193359375 10.0731026785714  L 26.14208984375 1.8046875  L 25.85302734375 1.8046875  L 14.6337890625 5.9296875  L 18.48193359375 10.0731026785714  Z M 24.08251953125 16.88671875  L 18.48193359375 10.8649553571429  L 13.1162109375 16.6657366071429  L 18.73486328125 22.5401785714286  L 24.08251953125 16.88671875  Z M 9.97265625 19.2438616071429  L 12.4296875 16.6104910714286  L 9.97265625 14.0139508928571  L 9.97265625 19.2438616071429  Z M 19.52978515625 24.1238839285714  L 18.7529296875 23.3136160714286  L 17.994140625 24.1238839285714  L 19.52978515625 24.1238839285714  Z M 31.435546875 9.92578125  L 24.8232421875 16.9051339285714  L 29.123046875 21.52734375  L 31.5078125 10.0362723214286  L 31.45361328125 9.94419642857143  L 31.435546875 9.92578125  Z M 24.4619140625 16.5  L 31.0380859375 9.5390625  C 30.9417317708333 9.37946428571428  30.8935546875 9.20145089285714  30.8935546875 9.00502232142857  L 30.8935546875 8.96819196428572  L 26.9912109375 2.04408482142857  C 26.9309895833333 2.03180803571429  26.8527018229167 2.00111607142857  26.75634765625 1.95200892857143  L 18.861328125 10.4782366071429  L 24.4619140625 16.5  Z M 6.48583984375 8.34207589285714  L 9.4306640625 7.25558035714286  L 9.4306640625 3.14899553571428  L 6.48583984375 8.34207589285714  Z M 9.4306640625 29.8878348214286  L 9.4306640625 24.6763392857143  L 6.48583984375 24.6763392857143  L 9.4306640625 29.8878348214286  Z M 30.51416015625 24.6763392857143  L 29.03271484375 24.6763392857143  L 28.16552734375 28.8565848214286  L 30.51416015625 24.6763392857143  Z M 30.9658203125 23.5161830357143  C 31.0260416666667 23.4793526785714  31.1163736979167 23.4363839285714  31.23681640625 23.3872767857143  L 34.9765625 16.7393973214286  C 34.9524739583333 16.6166294642857  34.9404296875 16.5306919642857  34.9404296875 16.4815848214286  C 34.9404296875 16.4693080357143  34.95849609375 16.37109375  34.99462890625 16.1869419642857  L 31.9052734375 10.7360491071429  L 29.57470703125 22.0061383928571  L 30.9658203125 23.5161830357143  Z " fill-rule="nonzero" fill="#ffffff" stroke="none" transform="matrix(1 0 0 1 1830 34 )" />
  </g>
</svg>