<?xml version="1.0" encoding="utf-8"?>
<svg version="1.1" xmlns:xlink="http://www.w3.org/1999/xlink" width="73px" height="73px" xmlns="http://www.w3.org/2000/svg">
  <g transform="matrix(1 0 0 1 -738 -1010 )">
    <path d="M 68.9840494791667 4.01595052083334  C 71.6613498263889 6.69325086805555  73 9.91710069444443  73 13.6875  L 73 59.3125  C 73 63.0828993055556  71.6613498263889 66.3067491319445  68.9840494791667 68.9840494791667  C 66.3067491319445 71.6613498263889  63.0828993055556 73  59.3125 73  L 13.6875 73  C 9.91710069444444 73  6.69325086805556 71.6613498263889  4.01595052083333 68.9840494791667  C 1.33865017361111 66.3067491319445  0 63.0828993055556  0 59.3125  L 0 13.6875  C 0 9.91710069444443  1.33865017361111 6.69325086805555  4.01595052083333 4.01595052083334  C 6.69325086805556 1.33865017361111  9.91710069444444 0  13.6875 0  L 59.3125 0  C 63.0828993055556 0  66.3067491319445 1.33865017361111  68.9840494791667 4.01595052083334  Z " fill-rule="nonzero" fill="#000000" stroke="none" fill-opacity="0.298039215686275" transform="matrix(1 0 0 1 738 1010 )" />
  </g>
</svg>