<?xml version="1.0" encoding="utf-8"?>
<svg version="1.1" xmlns:xlink="http://www.w3.org/1999/xlink" width="22px" height="22px" xmlns="http://www.w3.org/2000/svg">
  <g transform="matrix(1 0 0 1 -619 -5268 )">
    <path d="M 0 15.6160714285714  C 0 13.3653273809524  1.05239179954442 11.4583333333333  3.15717539863326 9.89508928571428  C 3.09035687167806 9.73958333333333  3.05694760820046 9.52678571428572  3.05694760820046 9.25669642857143  C 3.05694760820046 9.09300595238095  3.10288534548216 8.89248511904762  3.19476082004556 8.65513392857143  C 3.28663629460896 8.41778273809524  3.38686408504176 8.23363095238095  3.49544419134396 8.10267857142857  C 3.48709187547456 7.92261904761905  3.51841305998481 7.70572916666667  3.58940774487472 7.45200892857143  C 3.66040242976462 7.19828869047619  3.75436598329537 7.02232142857143  3.87129840546697 6.92410714285714  C 3.87129840546697 5.78645833333333  4.25759301442673 4.60584077380952  5.03018223234624 3.38225446428571  C 5.80277145026576 2.15866815476191  6.71108580106302 1.30133928571429  7.75512528473804 0.810267857142856  C 8.91609719058466 0.270089285714285  10.2691723614275 0  11.8143507972665 0  C 12.9252088078967 0  14.036066818527 0.225074404761907  15.1469248291572 0.675223214285715  C 15.5561883067578 0.847098214285715  15.9320425208808 1.04352678571429  16.2744874715262 1.26450892857143  C 16.6169324221716 1.48549107142857  16.9134396355353 1.71465773809524  17.1640091116173 1.95200892857143  C 17.4145785876993 2.18936011904762  17.6442672741078 2.46763392857143  17.8530751708428 2.78683035714286  C 18.0618830675778 3.10602678571429  18.2372817008352 3.40885416666667  18.379271070615 3.6953125  C 18.5212604403948 3.98177083333333  18.6569855732726 4.32756696428571  18.7864464692483 4.73270089285714  C 18.915907365224 5.13783482142857  19.0223993925588 5.50409226190476  19.1059225512528 5.83147321428571  C 19.1894457099468 6.15885416666667  19.2813211845103 6.55989583333333  19.3815489749431 7.03459821428571  L 19.3940774487472 7.09598214285714  C 19.8534548215642 7.77529761904762  20.0831435079727 8.38913690476191  20.0831435079727 8.9375  C 20.0831435079727 9.05208333333333  20.0455580865604 9.21577380952381  19.9703872437358 9.42857142857143  C 19.8952164009112 9.64136904761905  19.8576309794989 9.796875  19.8576309794989 9.89508928571428  C 19.8576309794989 9.90327380952381  19.8638952164009 9.91759672619048  19.876423690205 9.93805803571428  C 19.8889521640091 9.95851934523809  19.9035687167806 9.97898065476191  19.9202733485194 9.99944196428572  C 19.9369779802582 10.0199032738095  19.9453302961276 10.0342261904762  19.9453302961276 10.0424107142857  C 20.5884586180714 10.9754464285714  21.0916856492027 11.8532366071429  21.4550113895216 12.67578125  C 21.8183371298405 13.4983258928571  22 14.3515625  22 15.2354910714286  C 22 15.5874255952381  21.9185649202733 15.9966517857143  21.75569476082 16.4631696428571  C 21.5928246013667 16.9296875  21.3610478359909 17.1629464285714  21.0603644646925 17.1629464285714  C 20.9851936218679 17.1629464285714  20.9037585421412 17.1322544642857  20.8160592255125 17.0708705357143  C 20.7283599088838 17.0094866071429  20.6490129081245 16.9378720238095  20.5780182232346 16.8560267857143  C 20.5070235383447 16.774181547619  20.4276765375854 16.6677827380952  20.3399772209567 16.5368303571429  C 20.252277904328 16.4058779761905  20.1854593773728 16.2974330357143  20.1395216400911 16.2114955357143  C 20.0935839028094 16.1255580357143  20.037205770691 16.0191592261905  19.9703872437358 15.8922991071429  C 19.9035687167806 15.7654389880952  19.8659832953683 15.6938244047619  19.8576309794989 15.6774553571429  C 19.8492786636295 15.6692708333333  19.8367501898254 15.6651785714286  19.8200455580866 15.6651785714286  L 19.7574031890661 15.7142857142857  C 19.2646165527714 16.9747023809524  18.713363705391 17.8872767857143  18.1036446469248 18.4520089285714  C 18.2706909643128 18.6156994047619  18.5275246772969 18.7732514880952  18.874145785877 18.9246651785714  C 19.2207668944571 19.0760788690476  19.5089217919514 19.2459077380952  19.7386104783599 19.4341517857143  C 19.9682991647684 19.6223958333333  20.1165527714503 19.8883928571429  20.1833712984055 20.2321428571429  C 20.1666666666667 20.264880952381  20.1499620349279 20.3303571428571  20.1332574031891 20.4285714285714  C 20.1165527714503 20.5267857142857  20.0873196659074 20.6004464285714  20.0455580865604 20.6495535714286  C 19.5110098709188 21.4434523809524  18.2498101746393 21.8404017857143  16.2619589977221 21.8404017857143  C 15.8192862566439 21.8404017857143  15.3578208048595 21.8035714285714  14.877562642369 21.7299107142857  C 14.3973044798785 21.65625  13.9880410022779 21.5744047619048  13.6497722095672 21.484375  C 13.3115034168565 21.3943452380952  12.8750949126803 21.2715773809524  12.3405466970387 21.1160714285714  C 12.2152619589977 21.0751488095238  12.1192103264996 21.0465029761905  12.0523917995444 21.0301339285714  C 11.9354593773728 20.9973958333333  11.7433561123766 20.9789806547619  11.4760820045558 20.9748883928571  C 11.208807896735 20.9707961309524  11.041761579347 20.9646577380952  10.9749430523918 20.9564732142857  C 10.6324981017464 21.3247767857143  10.1000379650721 21.5907738095238  9.37756264236902 21.7544642857143  C 8.65508731966591 21.9181547619048  7.95140470766895 22  7.26651480637813 22  C 6.97418375094913 22  6.68602885345482 21.9938616071429  6.40205011389522 21.9815848214286  C 6.11807137433561 21.9693080357143  5.7296886864085 21.9324776785714  5.2369020501139 21.87109375  C 4.74411541381929 21.8097098214286  4.32232346241458 21.725818452381  3.97152619589977 21.6194196428571  C 3.62072892938497 21.5130208333333  3.30960516324981 21.3493303571429  3.03815489749431 21.1283482142857  C 2.7667046317388 20.9073660714286  2.63097949886105 20.6454613095238  2.63097949886105 20.3426339285714  C 2.63097949886105 20.0152529761905  2.67274107820805 19.7717633928571  2.75626423690205 19.6121651785714  C 2.83978739559605 19.4525669642857  3.01100987091875 19.2540922619048  3.26993166287016 19.0167410714286  C 3.36180713743356 19.0003720238095  3.53094153378891 18.9471726190476  3.77733485193622 18.8571428571429  C 4.02372817008352 18.7671130952381  4.23044798785118 18.718005952381  4.39749430523918 18.7098214285714  C 4.43090356871678 18.7098214285714  4.48936977980258 18.7016369047619  4.57289293849658 18.6852678571429  C 4.58959757023538 18.6688988095238  4.59794988610478 18.6525297619048  4.59794988610478 18.6361607142857  L 4.57289293849658 18.5993303571429  C 4.17198177676538 18.5093005952381  3.72095671981777 18.0775669642857  3.21981776765376 17.3041294642857  C 2.71867881548975 16.5306919642857  2.41381928625664 15.8902529761905  2.30523917995444 15.3828125  L 2.24259681093394 15.3459821428571  C 2.20918754745634 15.3459821428571  2.15907365223994 15.4278273809524  2.09225512528474 15.5915178571429  C 1.94191343963554 15.9270833333333  1.71431283219438 16.2319568452381  1.40945330296128 16.5061383928571  C 1.10459377372817 16.7803199404762  0.780941533788914 16.9337797619048  0.438496583143508 16.9665178571429  L 0.425968109339408 16.9665178571429  C 0.392558845861807 16.9665178571429  0.367501898253607 16.9481026785714  0.350797266514806 16.9112723214286  C 0.334092634776006 16.8744419642857  0.313211845102506 16.8519345238095  0.288154897494305 16.84375  C 0.0960516324981018 16.4017857142857  0 15.9925595238095  0 15.6160714285714  Z " fill-rule="nonzero" fill="#ffffff" stroke="none" transform="matrix(1 0 0 1 619 5268 )" />
  </g>
</svg>