<?xml version="1.0" encoding="utf-8"?>
<svg version="1.1" xmlns:xlink="http://www.w3.org/1999/xlink" width="27px" height="22px" xmlns="http://www.w3.org/2000/svg">
  <g transform="matrix(1 0 0 1 -690 -5268 )">
    <path d="M 23.8134517766497 3.471875  C 24.8756345177665 3.35729166666667  25.9378172588833 3.07083333333333  27 2.6125  C 26.2347715736041 3.73541666666666  25.3096446700508 4.6921875  24.2246192893401 5.4828125  C 24.2360406091371 5.64322916666667  24.2417512690355 5.88385416666666  24.2417512690355 6.2046875  C 24.2417512690355 7.69427083333333  24.0247461928934 9.18098958333333  23.5907360406091 10.66484375  C 23.1567258883249 12.1486979166667  22.4971446700508 13.5723958333333  21.6119923857868 14.9359375  C 20.7268401015228 16.2994791666667  19.6732233502538 17.50546875  18.4511421319797 18.55390625  C 17.2290609137056 19.60234375  15.7557106598985 20.4388020833333  14.0310913705584 21.06328125  C 12.3064720812183 21.6877604166667  10.4619289340102 22  8.49746192893401 22  C 5.40228426395939 22  2.56979695431472 21.1692708333333  0 19.5078125  C 0.399746192893401 19.5536458333333  0.845177664974619 19.5765625  1.33629441624365 19.5765625  C 3.90609137055838 19.5765625  6.19606598984772 18.7859375  8.20621827411168 17.2046875  C 7.00697969543147 17.1817708333333  5.93337563451777 16.8122395833333  4.98540609137056 16.09609375  C 4.03743654822335 15.3799479166667  3.38642131979696 14.4661458333333  3.03236040609137 13.3546875  C 3.40926395939086 13.4119791666667  3.75761421319797 13.440625  4.07741116751269 13.440625  C 4.56852791878173 13.440625  5.05393401015228 13.3776041666667  5.53362944162437 13.2515625  C 4.25444162436548 12.9880208333333  3.19511421319797 12.34921875  2.35564720812183 11.33515625  C 1.51618020304569 10.32109375  1.09644670050761 9.14375  1.09644670050761 7.803125  L 1.09644670050761 7.734375  C 1.87309644670051 8.16979166666667  2.70685279187817 8.4046875  3.59771573604061 8.4390625  C 2.84390862944162 7.93489583333333  2.24428934010152 7.27604166666667  1.7988578680203 6.4625  C 1.35342639593909 5.64895833333333  1.13071065989848 4.76666666666666  1.13071065989848 3.815625  C 1.13071065989848 2.80729166666667  1.38197969543147 1.8734375  1.88451776649746 1.0140625  C 3.26649746192893 2.72135416666667  4.94828680203046 4.08776041666667  6.92988578680203 5.11328125  C 8.9114847715736 6.13880208333333  11.0329949238579 6.70885416666667  13.2944162436548 6.8234375  C 13.2030456852792 6.38802083333333  13.1573604060914 5.9640625  13.1573604060914 5.5515625  C 13.1573604060914 4.01614583333333  13.6970177664975 2.70703125  14.7763324873096 1.62421875  C 15.8556472081218 0.541406250000001  17.1605329949239 0  18.6909898477157 0  C 20.2899746192893 0  21.6376903553299 0.584375000000001  22.7341370558376 1.753125  C 23.9790609137056 1.5125  25.1497461928934 1.065625  26.246192893401 0.412500000000001  C 25.8236040609137 1.73020833333333  25.01269035533 2.75  23.8134517766497 3.471875  Z " fill-rule="nonzero" fill="#ffffff" stroke="none" transform="matrix(1 0 0 1 690 5268 )" />
  </g>
</svg>