<?xml version="1.0" encoding="utf-8"?>
<svg version="1.1" xmlns:xlink="http://www.w3.org/1999/xlink" width="27px" height="22px" xmlns="http://www.w3.org/2000/svg">
  <g transform="matrix(1 0 0 1 -767 -5268 )">
    <path d="M 7.31689453125 6.12649880095923  C 7.53662109375 5.91107114308553  7.646484375 5.62310151878497  7.646484375 5.26258992805755  C 7.646484375 4.90207833733013  7.53662109375 4.6119104716227  7.31689453125 4.39208633093525  C 7.09716796875 4.1722621902478  6.80712890625 4.06235011990408  6.44677734375 4.06235011990408  C 6.06884765625 4.06235011990408  5.73486328125 4.17446043165468  5.44482421875 4.39868105515587  C 5.15478515625 4.62290167865708  5.009765625 4.91087130295763  5.009765625 5.26258992805755  C 5.009765625 5.60551558752998  5.15478515625 5.88908872901679  5.44482421875 6.11330935251799  C 5.73486328125 6.33752997601918  6.06884765625 6.44964028776978  6.44677734375 6.44964028776978  C 6.80712890625 6.44964028776978  7.09716796875 6.34192645883293  7.31689453125 6.12649880095923  Z M 17.105712890625 12.6223021582734  C 17.329833984375 12.4288569144684  17.44189453125 12.2046362909672  17.44189453125 11.9496402877698  C 17.44189453125 11.7034372501998  17.329833984375 11.4836131095124  17.105712890625 11.2901678657074  C 16.881591796875 11.0967226219025  16.59375 11  16.2421875 11  C 16.0048828125 11  15.787353515625 11.0989208633094  15.589599609375 11.2967625899281  C 15.391845703125 11.4946043165468  15.29296875 11.7122302158273  15.29296875 11.9496402877698  C 15.29296875 12.1958433253397  15.391845703125 12.4178657074341  15.589599609375 12.6157074340528  C 15.787353515625 12.8135491606715  16.0048828125 12.9124700239808  16.2421875 12.9124700239808  C 16.59375 12.9124700239808  16.881591796875 12.8157474020783  17.105712890625 12.6223021582734  Z M 14.007568359375 6.12649880095923  C 14.222900390625 5.91107114308553  14.33056640625 5.62310151878497  14.33056640625 5.26258992805755  C 14.33056640625 4.90207833733013  14.222900390625 4.6119104716227  14.007568359375 4.39208633093525  C 13.792236328125 4.1722621902478  13.50439453125 4.06235011990408  13.14404296875 4.06235011990408  C 12.76611328125 4.06235011990408  12.43212890625 4.17446043165468  12.14208984375 4.39868105515587  C 11.85205078125 4.62290167865708  11.70703125 4.91087130295763  11.70703125 5.26258992805755  C 11.70703125 5.60551558752998  11.85205078125 5.88908872901679  12.14208984375 6.11330935251799  C 12.43212890625 6.33752997601918  12.76611328125 6.44964028776978  13.14404296875 6.44964028776978  C 13.50439453125 6.44964028776978  13.792236328125 6.34192645883293  14.007568359375 6.12649880095923  Z M 22.359375 12.6223021582734  C 22.587890625 12.4288569144684  22.7021484375 12.2046362909672  22.7021484375 11.9496402877698  C 22.7021484375 11.7034372501998  22.587890625 11.4836131095124  22.359375 11.2901678657074  C 22.130859375 11.0967226219025  21.84521484375 11  21.50244140625 11  C 21.26513671875 11  21.047607421875 11.0989208633094  20.849853515625 11.2967625899281  C 20.652099609375 11.4946043165468  20.55322265625 11.7122302158273  20.55322265625 11.9496402877698  C 20.55322265625 12.1958433253397  20.652099609375 12.4178657074341  20.849853515625 12.6157074340528  C 21.047607421875 12.8135491606715  21.26513671875 12.9124700239808  21.50244140625 12.9124700239808  C 21.84521484375 12.9124700239808  22.130859375 12.8157474020783  22.359375 12.6223021582734  Z M 17.395751953125 3.27757793764988  C 18.322998046875 4.3019584332534  18.9228515625 5.44724220623501  19.1953125 6.71342925659472  C 18.9228515625 6.67825739408473  18.615234375 6.66067146282974  18.2724609375 6.66067146282974  C 16.787109375 6.66067146282974  15.42041015625 6.99920063948841  14.17236328125 7.67625899280576  C 12.92431640625 8.3533173461231  11.942138671875 9.26998401278977  11.225830078125 10.4262589928058  C 10.509521484375 11.5825339728217  10.1513671875 12.8465227817746  10.1513671875 14.2182254196643  C 10.1513671875 14.9040767386091  10.25244140625 15.572342126299  10.45458984375 16.2230215827338  C 10.14697265625 16.2494004796163  9.84814453125 16.2625899280576  9.55810546875 16.2625899280576  C 9.32958984375 16.2625899280576  9.10986328125 16.2559952038369  8.89892578125 16.2428057553957  C 8.68798828125 16.2296163069544  8.4462890625 16.2010391686651  8.173828125 16.1570743405276  C 7.9013671875 16.1131095123901  7.705810546875 16.0823341326938  7.587158203125 16.0647482014388  C 7.468505859375 16.0471622701839  7.22900390625 16.0009992006395  6.86865234375 15.9262589928058  C 6.50830078125 15.851518784972  6.28857421875 15.8053557154277  6.20947265625 15.7877697841727  L 2.8740234375 17.462829736211  L 3.8232421875 14.5875299760192  C 1.2744140625 12.8025579536371  0 10.6482813749001  0 8.12470023980815  C 0 6.63868904876099  0.428466796875 5.27138289368505  1.285400390625 4.02278177458034  C 2.142333984375 2.77418065547562  3.302490234375 1.79156674660272  4.765869140625 1.07494004796163  C 6.229248046875 0.358313349320542  7.82666015625 0  9.55810546875 0  C 11.10498046875 0  12.566162109375 0.290167865707435  13.941650390625 0.870503597122302  C 15.317138671875 1.45083932853717  16.468505859375 2.25319744204636  17.395751953125 3.27757793764988  Z M 25.872802734375 10.6372901678657  C 26.624267578125 11.7056354916067  27 12.8641087130296  27 14.1127098321343  C 27 15.1414868105516  26.698974609375 16.1241007194245  26.096923828125 17.060551558753  C 25.494873046875 17.9970023980815  24.6796875 18.847721822542  23.6513671875 19.6127098321343  L 24.37646484375 22  L 21.7529296875 20.5623501199041  C 20.4345703125 20.8876898481215  19.4765625 21.0503597122302  18.87890625 21.0503597122302  C 17.3935546875 21.0503597122302  16.02685546875 20.7404076738609  14.77880859375 20.1205035971223  C 13.53076171875 19.5005995203837  12.548583984375 18.6586730615508  11.832275390625 17.5947242206235  C 11.115966796875 16.5307753796962  10.7578125 15.3701039168665  10.7578125 14.1127098321343  C 10.7578125 12.8553157474021  11.115966796875 11.6946442845723  11.832275390625 10.6306954436451  C 12.548583984375 9.56674660271782  13.53076171875 8.72482014388489  14.77880859375 8.10491606714628  C 16.02685546875 7.48501199040767  17.3935546875 7.17505995203837  18.87890625 7.17505995203837  C 20.2939453125 7.17505995203837  21.62548828125 7.48501199040767  22.87353515625 8.10491606714628  C 24.12158203125 8.72482014388489  25.121337890625 9.5689448441247  25.872802734375 10.6372901678657  Z " fill-rule="nonzero" fill="#ffffff" stroke="none" transform="matrix(1 0 0 1 767 5268 )" />
  </g>
</svg>