<?xml version="1.0" encoding="utf-8"?>
<svg version="1.1" xmlns:xlink="http://www.w3.org/1999/xlink" width="330px" height="270px" xmlns="http://www.w3.org/2000/svg">
  <defs>
    <linearGradient gradientUnits="userSpaceOnUse" x1="300" y1="3210.11320754717" x2="300" y2="3477" id="LinearGradient10">
      <stop id="Stop11" stop-color="#fffcfc" stop-opacity="0.192156862745098" offset="0" />
      <stop id="Stop12" stop-color="#76a1ba" stop-opacity="0.631372549019608" offset="1" />
    </linearGradient>
  </defs>
  <g transform="matrix(1 0 0 1 -135 -3207 )">
    <path d="M 135.5 3223  A 15.5 15.5 0 0 1 151 3207.5 L 449 3207.5  A 15.5 15.5 0 0 1 464.5 3223 L 464.5 3461  A 15.5 15.5 0 0 1 449 3476.5 L 151 3476.5  A 15.5 15.5 0 0 1 135.5 3461 L 135.5 3223  Z " fill-rule="nonzero" fill="url(#LinearGradient10)" stroke="none" />
    <path d="M 135.5 3223  A 15.5 15.5 0 0 1 151 3207.5 L 449 3207.5  A 15.5 15.5 0 0 1 464.5 3223 L 464.5 3461  A 15.5 15.5 0 0 1 449 3476.5 L 151 3476.5  A 15.5 15.5 0 0 1 135.5 3461 L 135.5 3223  Z " stroke-width="1" stroke="#797979" fill="none" />
  </g>
</svg>