<?xml version="1.0" encoding="utf-8"?>
<svg version="1.1" xmlns:xlink="http://www.w3.org/1999/xlink" width="1254px" height="293px" xmlns="http://www.w3.org/2000/svg">
  <g transform="matrix(1 0 0 1 -11 -1504 )">
    <path d="M 12 1512  A 7 7 0 0 1 19 1505 L 1257 1505  A 7 7 0 0 1 1264 1512 L 1264 1789  A 7 7 0 0 1 1257 1796 L 19 1796  A 7 7 0 0 1 12 1789 L 12 1512  Z " fill-rule="nonzero" fill="#ffffff" stroke="none" />
    <path d="M 11.5 1512  A 7.5 7.5 0 0 1 19 1504.5 L 1257 1504.5  A 7.5 7.5 0 0 1 1264.5 1512 L 1264.5 1789  A 7.5 7.5 0 0 1 1257 1796.5 L 19 1796.5  A 7.5 7.5 0 0 1 11.5 1789 L 11.5 1512  Z " stroke-width="1" stroke="#d2d2d2" fill="none" stroke-opacity="0.435294117647059" />
  </g>
</svg>