<?xml version="1.0" encoding="utf-8"?>
<svg version="1.1" xmlns:xlink="http://www.w3.org/1999/xlink" width="1254px" height="259px" xmlns="http://www.w3.org/2000/svg">
  <g transform="matrix(1 0 0 1 -11 -694 )">
    <path d="M 12 710  A 15 15 0 0 1 27 695 L 1249 695  A 15 15 0 0 1 1264 710 L 1264 937  A 15 15 0 0 1 1249 952 L 27 952  A 15 15 0 0 1 12 937 L 12 710  Z " fill-rule="nonzero" fill="#fffefe" stroke="none" fill-opacity="0.996078431372549" />
    <path d="M 11.5 710  A 15.5 15.5 0 0 1 27 694.5 L 1249 694.5  A 15.5 15.5 0 0 1 1264.5 710 L 1264.5 937  A 15.5 15.5 0 0 1 1249 952.5 L 27 952.5  A 15.5 15.5 0 0 1 11.5 937 L 11.5 710  Z " stroke-width="1" stroke="#a5a5a5" fill="none" stroke-opacity="0.435294117647059" />
  </g>
</svg>