<?xml version="1.0" encoding="utf-8"?>
<svg version="1.1" xmlns:xlink="http://www.w3.org/1999/xlink" width="148px" height="55px" xmlns="http://www.w3.org/2000/svg">
  <defs>
    <mask fill="white" id="clip85">
      <path d="M 0 6.25  L 0 0  L 148 0  L 148 55  L 0 55  L 0 22.25  L 5 20  L 5 9  L 0 6.25  Z " fill-rule="evenodd" />
    </mask>
  </defs>
  <g transform="matrix(1 0 0 1 -407 -415 )">
    <path d="M 0 6.25  L 0 0  L 148 0  L 148 55  L 0 55  L 0 22.25  L 5 20  L 5 9  L 0 6.25  Z " fill-rule="nonzero" fill="#ffffff" stroke="none" fill-opacity="0" transform="matrix(1 0 0 1 407 415 )" />
    <path d="M 0 6.25  L 0 0  L 148 0  L 148 55  L 0 55  L 0 22.25  L 5 20  L 5 9  L 0 6.25  Z " stroke-width="2" stroke="#30db80" fill="none" transform="matrix(1 0 0 1 407 415 )" mask="url(#clip85)" />
  </g>
</svg>