<?xml version="1.0" encoding="utf-8"?>
<svg version="1.1" xmlns:xlink="http://www.w3.org/1999/xlink" width="5px" height="5px" xmlns="http://www.w3.org/2000/svg">
  <g transform="matrix(1 0 0 1 -235 -462 )">
    <path d="M 237.5 462  C 238.9 462  240 463.1  240 464.5  C 240 465.9  238.9 467  237.5 467  C 236.1 467  235 465.9  235 464.5  C 235 463.1  236.1 462  237.5 462  Z " fill-rule="nonzero" fill="#0151ba" stroke="none" />
    <path d="M 237.5 462.5  C 238.62 462.5  239.5 463.38  239.5 464.5  C 239.5 465.62  238.62 466.5  237.5 466.5  C 236.38 466.5  235.5 465.62  235.5 464.5  C 235.5 463.38  236.38 462.5  237.5 462.5  Z " stroke-width="1" stroke="#0151ba" fill="none" />
  </g>
</svg>