<?xml version="1.0" encoding="utf-8"?>
<svg version="1.1" xmlns:xlink="http://www.w3.org/1999/xlink" width="148px" height="55px" xmlns="http://www.w3.org/2000/svg">
  <defs>
    <mask fill="white" id="clip106">
      <path d="M 148 6.25  L 148 0  L 0 0  L 0 55  L 148 55  L 148 22.25  L 143 20  L 143 9  L 148 6.25  Z " fill-rule="evenodd" />
    </mask>
  </defs>
  <g transform="matrix(1 0 0 1 -22 -447 )">
    <path d="M 148 6.25  L 148 0  L 0 0  L 0 55  L 148 55  L 148 22.25  L 143 20  L 143 9  L 148 6.25  Z " fill-rule="nonzero" fill="#ffffff" stroke="none" fill-opacity="0" transform="matrix(1 0 0 1 22 447 )" />
    <path d="M 148 6.25  L 148 0  L 0 0  L 0 55  L 148 55  L 148 22.25  L 143 20  L 143 9  L 148 6.25  Z " stroke-width="2" stroke="#0151ba" fill="none" transform="matrix(1 0 0 1 22 447 )" mask="url(#clip106)" />
  </g>
</svg>