<?xml version="1.0" encoding="utf-8"?>
<svg version="1.1" xmlns:xlink="http://www.w3.org/1999/xlink" width="1254px" height="463px" xmlns="http://www.w3.org/2000/svg">
  <g transform="matrix(1 0 0 1 -11 -984 )">
    <path d="M 12 992  A 7 7 0 0 1 19 985 L 1257 985  A 7 7 0 0 1 1264 992 L 1264 1439  A 7 7 0 0 1 1257 1446 L 19 1446  A 7 7 0 0 1 12 1439 L 12 992  Z " fill-rule="nonzero" fill="#ffffff" stroke="none" />
    <path d="M 11.5 992  A 7.5 7.5 0 0 1 19 984.5 L 1257 984.5  A 7.5 7.5 0 0 1 1264.5 992 L 1264.5 1439  A 7.5 7.5 0 0 1 1257 1446.5 L 19 1446.5  A 7.5 7.5 0 0 1 11.5 1439 L 11.5 992  Z " stroke-width="1" stroke="#d2d2d2" fill="none" stroke-opacity="0.435294117647059" />
  </g>
</svg>