<?xml version="1.0" encoding="utf-8"?>
<svg version="1.1" xmlns:xlink="http://www.w3.org/1999/xlink" width="194px" height="194px" xmlns="http://www.w3.org/2000/svg">
  <g transform="matrix(1 0 0 1 -51 -18 )">
    <path d="M 148 20  C 201.2 20  243 61.8  243 115  C 243 168.2  201.2 210  148 210  C 94.8 210  53 168.2  53 115  C 53 61.8  94.8 20  148 20  Z " fill-rule="nonzero" fill="#d1d1d1" stroke="none" fill-opacity="0" />
    <path d="M 148 19.5  C 201.48 19.5  243.5 61.52  243.5 115  C 243.5 168.48  201.48 210.5  148 210.5  C 94.52 210.5  52.5 168.48  52.5 115  C 52.5 61.52  94.52 19.5  148 19.5  Z " stroke-width="3" stroke="#000000" fill="none" />
  </g>
</svg>