<?xml version="1.0" encoding="utf-8"?>
<svg version="1.1" xmlns:xlink="http://www.w3.org/1999/xlink" width="176px" height="176px" xmlns="http://www.w3.org/2000/svg">
  <g transform="matrix(1 0 0 1 -60 -25 )">
    <path d="M 148 27  C 196.16 27  234 64.84  234 113  C 234 161.16  196.16 199  148 199  C 99.84 199  62 161.16  62 113  C 62 64.84  99.84 27  148 27  Z " fill-rule="nonzero" fill="#d1d1d1" stroke="none" fill-opacity="0" />
    <path d="M 148 26.5  C 196.44 26.5  234.5 64.56  234.5 113  C 234.5 161.44  196.44 199.5  148 199.5  C 99.56 199.5  61.5 161.44  61.5 113  C 61.5 64.56  99.56 26.5  148 26.5  Z " stroke-width="3" stroke="#000000" fill="none" />
  </g>
</svg>