<?xml version="1.0" encoding="utf-8"?>
<svg version="1.1" xmlns:xlink="http://www.w3.org/1999/xlink" width="803px" height="217px" xmlns="http://www.w3.org/2000/svg">
  <g transform="matrix(1 0 0 1 -420.5 -1086.5 )">
    <path d="M 0 213  L 32.8356164383562 169.232876712329  L 64.7591324200913 116.712328767123  L 96.6826484018265 96.2876712328767  L 128.899116922021 69.0413793103448  L 160.529680365297 56.8972602739726  L 192.453196347032 35.013698630137  L 224.890835699582 0  L 255.388127853881 29.1780821917808  L 288.223744292237 71.486301369863  L 320.147260273973 125.465753424658  L 352.070776255708 121.08904109589  L 383.994292237443 180.904109589041  L 415.917808219178 107.958904109589  L 447.841324200913 134.219178082192  L 479.764840182648 87.5342465753425  L 512.600456621005 94.8287671232877  L 542.699771689498 74.4041095890411  L 575.535388127854 55.4383561643836  L 608.37100456621 62.7328767123288  L 639.382420091324 71.486301369863  L 672.21803652968 42.3082191780822  L 703.229452054794 115.253424657534  L 736.065068493151 78.7808219178082  L 767.076484018265 56.8972602739726  L 799 29.1780821917808  " stroke-width="3" stroke="#61a5e8" fill="none" transform="matrix(1 0 0 1 422 1088 )" />
  </g>
</svg>