<?xml version="1.0" encoding="utf-8"?>
<svg version="1.1" xmlns:xlink="http://www.w3.org/1999/xlink" width="10px" height="10px" xmlns="http://www.w3.org/2000/svg">
  <g transform="matrix(1 0 0 1 -705 -1188 )">
    <path d="M 710 1189  C 712.24 1189  714 1190.76  714 1193  C 714 1195.24  712.24 1197  710 1197  C 707.76 1197  706 1195.24  706 1193  C 706 1190.76  707.76 1189  710 1189  Z " fill-rule="nonzero" fill="#ffffff" stroke="none" />
    <path d="M 710 1189  C 712.24 1189  714 1190.76  714 1193  C 714 1195.24  712.24 1197  710 1197  C 707.76 1197  706 1195.24  706 1193  C 706 1190.76  707.76 1189  710 1189  Z " stroke-width="2" stroke="#7ecf51" fill="none" />
  </g>
</svg>