<?xml version="1.0" encoding="utf-8"?>
<svg version="1.1" xmlns:xlink="http://www.w3.org/1999/xlink" width="10px" height="11px" xmlns="http://www.w3.org/2000/svg">
  <g transform="matrix(1 0 0 1 -705 -1156 )">
    <path d="M 710 1157  C 712.24 1157  714 1158.98  714 1161.5  C 714 1164.02  712.24 1166  710 1166  C 707.76 1166  706 1164.02  706 1161.5  C 706 1158.98  707.76 1157  710 1157  Z " fill-rule="nonzero" fill="#ffffff" stroke="none" />
    <path d="M 710 1157  C 712.24 1157  714 1158.98  714 1161.5  C 714 1164.02  712.24 1166  710 1166  C 707.76 1166  706 1164.02  706 1161.5  C 706 1158.98  707.76 1157  710 1157  Z " stroke-width="2" stroke="#61a5e8" fill="none" />
  </g>
</svg>