<?xml version="1.0" encoding="utf-8"?>
<svg version="1.1" xmlns:xlink="http://www.w3.org/1999/xlink" width="802px" height="217px" xmlns="http://www.w3.org/2000/svg">
  <g transform="matrix(1 0 0 1 -420.5 -1063.5 )">
    <path d="M 0 213  L 31.92 194.034246575342  L 63.84 172.150684931507  L 96.672 96.2876712328767  L 128.592 46.6849315068493  L 160.512 57.5  L 191.52 57.5  L 224.866066746463 0  L 252.624 138.595890410959  L 287.28 128.383561643836  L 320.112 125.465753424658  L 350.208 96.2876712328767  L 383.952 180.904109589041  L 416.784 175.068493150685  L 447.792 134.219178082192  L 479.712 87.5342465753425  L 511.632 56.8972602739726  L 542.64 74.4041095890411  L 573.648 67.1095890410959  L 605.568 115.253424657534  L 639.312 132.760273972603  L 670.32 96.2876712328767  L 702.24 102.123287671233  L 733.248 64.1917808219178  L 766.992 56.8972602739726  L 798 74.4041095890411  " stroke-width="3" stroke="#7ecf51" fill="none" transform="matrix(1 0 0 1 422 1065 )" />
  </g>
</svg>