<?xml version="1.0" encoding="utf-8"?>
<svg version="1.1" xmlns:xlink="http://www.w3.org/1999/xlink" width="1254px" height="90px" xmlns="http://www.w3.org/2000/svg">
  <g transform="matrix(1 0 0 1 -11 -2078 )">
    <path d="M 12 2086  A 7 7 0 0 1 19 2079 L 1257 2079  A 7 7 0 0 1 1264 2086 L 1264 2160  A 7 7 0 0 1 1257 2167 L 19 2167  A 7 7 0 0 1 12 2160 L 12 2086  Z " fill-rule="nonzero" fill="#ffffff" stroke="none" />
    <path d="M 11.5 2086  A 7.5 7.5 0 0 1 19 2078.5 L 1257 2078.5  A 7.5 7.5 0 0 1 1264.5 2086 L 1264.5 2160  A 7.5 7.5 0 0 1 1257 2167.5 L 19 2167.5  A 7.5 7.5 0 0 1 11.5 2160 L 11.5 2086  Z " stroke-width="1" stroke="#d2d2d2" fill="none" stroke-opacity="0.435294117647059" />
  </g>
</svg>