<?xml version="1.0" encoding="utf-8"?>
<svg version="1.1" xmlns:xlink="http://www.w3.org/1999/xlink" width="93px" height="59px" xmlns="http://www.w3.org/2000/svg">
  <defs>
    <linearGradient gradientUnits="userSpaceOnUse" x1="0" y1="29.5" x2="93" y2="29.5" id="LinearGradient145">
      <stop id="Stop146" stop-color="#013dbf" offset="0" />
      <stop id="Stop147" stop-color="#016cbf" offset="1" />
    </linearGradient>
    <linearGradient gradientUnits="userSpaceOnUse" x1="0" y1="29.5" x2="93" y2="29.5" id="LinearGradient148">
      <stop id="Stop149" stop-color="#013dbf" offset="0" />
      <stop id="Stop150" stop-color="#016cbf" offset="1" />
    </linearGradient>
    <mask fill="white" id="clip151">
      <path d="M 93 1  L 87.5 11.5  C 87.5 11.5  33.2926733771245 11.8140416583117  30 27.5  C 29.3230368479919 30.7249830411454  30.3835274153775 37.5139788386198  35 41  C 42.2757439615015 46.4941076654638  55.3333333333333 49  55.3333333333333 49  L 38.6666666666667 58.6666666666667  C 38.6666666666667 58.6666666666667  30.2932785824303 56.9212251838239  23.75 54.25  C 16.2832726849193 51.2017865098478  11.0122267699195 46.6835260440298  9.25 45.25  C 2.70113786889328 39.9226694975071  -0.0812011829086714 34.261526378607  1 28.6666666666667  C 2.65084579142024 20.1240838846204  15.4062616289232 12.4120699462853  30 8.33333333333326  C 56.8915845310603 0.81752843001118  93 1  93 1  Z " fill-rule="evenodd" />
    </mask>
  </defs>
  <g transform="matrix(1 0 0 1 -216 -436 )">
    <path d="M 93 1  L 87.5 11.5  C 87.5 11.5  33.2926733771245 11.8140416583117  30 27.5  C 29.3230368479919 30.7249830411454  30.3835274153775 37.5139788386198  35 41  C 42.2757439615015 46.4941076654638  55.3333333333333 49  55.3333333333333 49  L 38.6666666666667 58.6666666666667  C 38.6666666666667 58.6666666666667  30.2932785824303 56.9212251838239  23.75 54.25  C 16.2832726849193 51.2017865098478  11.0122267699195 46.6835260440298  9.25 45.25  C 2.70113786889328 39.9226694975071  -0.0812011829086714 34.261526378607  1 28.6666666666667  C 2.65084579142024 20.1240838846204  15.4062616289232 12.4120699462853  30 8.33333333333326  C 56.8915845310603 0.81752843001118  93 1  93 1  Z " fill-rule="nonzero" fill="url(#LinearGradient145)" stroke="none" transform="matrix(1 0 0 1 216 436 )" />
    <path d="M 93 1  L 87.5 11.5  C 87.5 11.5  33.2926733771245 11.8140416583117  30 27.5  C 29.3230368479919 30.7249830411454  30.3835274153775 37.5139788386198  35 41  C 42.2757439615015 46.4941076654638  55.3333333333333 49  55.3333333333333 49  L 38.6666666666667 58.6666666666667  C 38.6666666666667 58.6666666666667  30.2932785824303 56.9212251838239  23.75 54.25  C 16.2832726849193 51.2017865098478  11.0122267699195 46.6835260440298  9.25 45.25  C 2.70113786889328 39.9226694975071  -0.0812011829086714 34.261526378607  1 28.6666666666667  C 2.65084579142024 20.1240838846204  15.4062616289232 12.4120699462853  30 8.33333333333326  C 56.8915845310603 0.81752843001118  93 1  93 1  Z " stroke-width="2" stroke="url(#LinearGradient148)" fill="none" transform="matrix(1 0 0 1 216 436 )" mask="url(#clip151)" />
  </g>
</svg>