<?xml version="1.0" encoding="utf-8"?>
<svg version="1.1" xmlns:xlink="http://www.w3.org/1999/xlink" width="93px" height="58px" xmlns="http://www.w3.org/2000/svg">
  <defs>
    <linearGradient gradientUnits="userSpaceOnUse" x1="0" y1="29" x2="93" y2="29" id="LinearGradient110">
      <stop id="Stop111" stop-color="#013dbf" offset="0" />
      <stop id="Stop112" stop-color="#016cbf" offset="1" />
    </linearGradient>
    <linearGradient gradientUnits="userSpaceOnUse" x1="0" y1="29" x2="93" y2="29" id="LinearGradient113">
      <stop id="Stop114" stop-color="#013dbf" offset="0" />
      <stop id="Stop115" stop-color="#016cbf" offset="1" />
    </linearGradient>
    <mask fill="white" id="clip116">
      <path d="M 92.3333333333333 0.333333333333258  L 88.3333333333333 10.6666666666667  C 88.3333333333333 10.6666666666667  76.1089324678765 9.58585028362336  62.25 11.75  C 47.8104516761721 14.0048161254158  31.6801155049111 19.6627686783777  30 27.6666666666667  C 29.3230368479919 30.8916497078121  31.3835274153775 36.5139788386198  36 40  C 43.2757439615015 45.4941076654638  55.3333333333333 48  55.3333333333333 48  L 38.6666666666667 57.6666666666667  C 38.6666666666667 57.6666666666667  31.8766119157636 57.0045585171572  25.3333333333333 54.3333333333333  C 17.8666060182526 51.2851198431811  10.4288934365862 46.1001927106965  8.66666666666669 44.6666666666667  C 2.11780453555997 39.3393361641738  -0.0812011829086714 33.261526378607  1 27.6666666666667  C 2.65084579142024 19.1240838846204  15.4062616289232 11.4120699462853  30 7.33333333333326  C 56.8915845310603 -0.18247156998882  92.3333333333333 0.333333333333258  92.3333333333333 0.333333333333258  Z " fill-rule="evenodd" />
    </mask>
  </defs>
  <g transform="matrix(1 0 0 1 -216 -502 )">
    <path d="M 92.3333333333333 0.333333333333258  L 88.3333333333333 10.6666666666667  C 88.3333333333333 10.6666666666667  76.1089324678765 9.58585028362336  62.25 11.75  C 47.8104516761721 14.0048161254158  31.6801155049111 19.6627686783777  30 27.6666666666667  C 29.3230368479919 30.8916497078121  31.3835274153775 36.5139788386198  36 40  C 43.2757439615015 45.4941076654638  55.3333333333333 48  55.3333333333333 48  L 38.6666666666667 57.6666666666667  C 38.6666666666667 57.6666666666667  31.8766119157636 57.0045585171572  25.3333333333333 54.3333333333333  C 17.8666060182526 51.2851198431811  10.4288934365862 46.1001927106965  8.66666666666669 44.6666666666667  C 2.11780453555997 39.3393361641738  -0.0812011829086714 33.261526378607  1 27.6666666666667  C 2.65084579142024 19.1240838846204  15.4062616289232 11.4120699462853  30 7.33333333333326  C 56.8915845310603 -0.18247156998882  92.3333333333333 0.333333333333258  92.3333333333333 0.333333333333258  Z " fill-rule="nonzero" fill="url(#LinearGradient110)" stroke="none" transform="matrix(1 0 0 1 216 502 )" />
    <path d="M 92.3333333333333 0.333333333333258  L 88.3333333333333 10.6666666666667  C 88.3333333333333 10.6666666666667  76.1089324678765 9.58585028362336  62.25 11.75  C 47.8104516761721 14.0048161254158  31.6801155049111 19.6627686783777  30 27.6666666666667  C 29.3230368479919 30.8916497078121  31.3835274153775 36.5139788386198  36 40  C 43.2757439615015 45.4941076654638  55.3333333333333 48  55.3333333333333 48  L 38.6666666666667 57.6666666666667  C 38.6666666666667 57.6666666666667  31.8766119157636 57.0045585171572  25.3333333333333 54.3333333333333  C 17.8666060182526 51.2851198431811  10.4288934365862 46.1001927106965  8.66666666666669 44.6666666666667  C 2.11780453555997 39.3393361641738  -0.0812011829086714 33.261526378607  1 27.6666666666667  C 2.65084579142024 19.1240838846204  15.4062616289232 11.4120699462853  30 7.33333333333326  C 56.8915845310603 -0.18247156998882  92.3333333333333 0.333333333333258  92.3333333333333 0.333333333333258  Z " stroke-width="2" stroke="url(#LinearGradient113)" fill="none" transform="matrix(1 0 0 1 216 502 )" mask="url(#clip116)" />
  </g>
</svg>