<?xml version="1.0" encoding="utf-8"?>
<svg version="1.1" xmlns:xlink="http://www.w3.org/1999/xlink" width="60px" height="69px" xmlns="http://www.w3.org/2000/svg">
  <defs>
    <linearGradient gradientUnits="userSpaceOnUse" x1="0" y1="34.5" x2="60" y2="34.5" id="LinearGradient131">
      <stop id="Stop132" stop-color="#013dbf" offset="0" />
      <stop id="Stop133" stop-color="#016cbf" offset="1" />
    </linearGradient>
    <linearGradient gradientUnits="userSpaceOnUse" x1="0" y1="34.5" x2="60" y2="34.5" id="LinearGradient134">
      <stop id="Stop135" stop-color="#013dbf" offset="0" />
      <stop id="Stop136" stop-color="#016cbf" offset="1" />
    </linearGradient>
    <mask fill="white" id="clip137">
      <path d="M 59.5 65.5  L 59.5 0  C 59.5 0  4.38313758975323 1.19266695129022  1 17  C 0.285554614359683 20.3381663784933  2.50053963282335 27.1357619575028  7.25 30.75  C 14.6136147825534 36.3535537976752  26 38.25  26 38.25  L 26 68.75  C 26 68.75  32.4790993495392 66.1110759731771  42.25 65.5  C 51.2793892762294 64.9352984400771  59.5 65.5  59.5 65.5  Z " fill-rule="evenodd" />
    </mask>
  </defs>
  <g transform="matrix(1 0 0 1 -244 -447 )">
    <path d="M 59.5 65.5  L 59.5 0  C 59.5 0  4.38313758975323 1.19266695129022  1 17  C 0.285554614359683 20.3381663784933  2.50053963282335 27.1357619575028  7.25 30.75  C 14.6136147825534 36.3535537976752  26 38.25  26 38.25  L 26 68.75  C 26 68.75  32.4790993495392 66.1110759731771  42.25 65.5  C 51.2793892762294 64.9352984400771  59.5 65.5  59.5 65.5  Z " fill-rule="nonzero" fill="url(#LinearGradient131)" stroke="none" transform="matrix(1 0 0 1 244 447 )" />
    <path d="M 59.5 65.5  L 59.5 0  C 59.5 0  4.38313758975323 1.19266695129022  1 17  C 0.285554614359683 20.3381663784933  2.50053963282335 27.1357619575028  7.25 30.75  C 14.6136147825534 36.3535537976752  26 38.25  26 38.25  L 26 68.75  C 26 68.75  32.4790993495392 66.1110759731771  42.25 65.5  C 51.2793892762294 64.9352984400771  59.5 65.5  59.5 65.5  Z " stroke-width="2" stroke="url(#LinearGradient134)" fill="none" transform="matrix(1 0 0 1 244 447 )" mask="url(#clip137)" />
  </g>
</svg>