<?xml version="1.0" encoding="utf-8"?>
<svg version="1.1" xmlns:xlink="http://www.w3.org/1999/xlink" width="123px" height="57px" xmlns="http://www.w3.org/2000/svg">
  <defs>
    <linearGradient gradientUnits="userSpaceOnUse" x1="0" y1="28.5" x2="123" y2="28.5" id="LinearGradient188">
      <stop id="Stop189" stop-color="#ffcc00" offset="0" />
      <stop id="Stop190" stop-color="#ff9900" offset="1" />
    </linearGradient>
    <linearGradient gradientUnits="userSpaceOnUse" x1="0" y1="28.5" x2="123" y2="28.5" id="LinearGradient191">
      <stop id="Stop192" stop-color="#ffcc00" offset="0" />
      <stop id="Stop193" stop-color="#ff9900" offset="1" />
    </linearGradient>
    <mask fill="white" id="clip194">
      <path d="M 70.5 26  C 35.4530144049217 32.8191812007831  0 23.6666666666667  0 23.6666666666667  L 0 52.5  C 0 52.5  44.4669295992504 60.8242218484018  80.3333333333333 54  C 113.991800861722 47.5958773231373  123 29  123 29  L 123 0.333333333333258  C 123 0.333333333333258  104.27011835751 19.4292621079489  70.5 26  Z " fill-rule="evenodd" />
    </mask>
  </defs>
  <g transform="matrix(1 0 0 1 -255 -507 )">
    <path d="M 70.5 26  C 35.4530144049217 32.8191812007831  0 23.6666666666667  0 23.6666666666667  L 0 52.5  C 0 52.5  44.4669295992504 60.8242218484018  80.3333333333333 54  C 113.991800861722 47.5958773231373  123 29  123 29  L 123 0.333333333333258  C 123 0.333333333333258  104.27011835751 19.4292621079489  70.5 26  Z " fill-rule="nonzero" fill="url(#LinearGradient188)" stroke="none" transform="matrix(1 0 0 1 255 507 )" />
    <path d="M 70.5 26  C 35.4530144049217 32.8191812007831  0 23.6666666666667  0 23.6666666666667  L 0 52.5  C 0 52.5  44.4669295992504 60.8242218484018  80.3333333333333 54  C 113.991800861722 47.5958773231373  123 29  123 29  L 123 0.333333333333258  C 123 0.333333333333258  104.27011835751 19.4292621079489  70.5 26  Z " stroke-width="2" stroke="url(#LinearGradient191)" fill="none" transform="matrix(1 0 0 1 255 507 )" mask="url(#clip194)" />
  </g>
</svg>