<?xml version="1.0" encoding="utf-8"?>
<svg version="1.1" xmlns:xlink="http://www.w3.org/1999/xlink" width="123px" height="30px" xmlns="http://www.w3.org/2000/svg">
  <defs>
    <linearGradient gradientUnits="userSpaceOnUse" x1="0" y1="15" x2="123" y2="15" id="LinearGradient181">
      <stop id="Stop182" stop-color="#ffcc00" offset="0" />
      <stop id="Stop183" stop-color="#ff9900" offset="1" />
    </linearGradient>
    <linearGradient gradientUnits="userSpaceOnUse" x1="0" y1="15" x2="123" y2="15" id="LinearGradient184">
      <stop id="Stop185" stop-color="#ffcc00" offset="0" />
      <stop id="Stop186" stop-color="#ff9900" offset="1" />
    </linearGradient>
    <mask fill="white" id="clip187">
      <path d="M 69.8911290322581 13.25  C 42.4918584399131 19.4028055228496  14.766129032258 13.25  14.766129032258 13.25  L 0 24.75  C 0 24.75  42.94960470849 33.0881355703009  77 26.75  C 112.879656234893 20.0713660668061  122.75 0.5  122.75 0.5  L 94.5322580645161 0.5  C 94.5322580645161 0.5  86.5237662346534 9.51495962023728  69.8911290322581 13.25  Z " fill-rule="evenodd" />
    </mask>
  </defs>
  <g transform="matrix(1 0 0 1 -255 -535 )">
    <path d="M 69.8911290322581 13.25  C 42.4918584399131 19.4028055228496  14.766129032258 13.25  14.766129032258 13.25  L 0 24.75  C 0 24.75  42.94960470849 33.0881355703009  77 26.75  C 112.879656234893 20.0713660668061  122.75 0.5  122.75 0.5  L 94.5322580645161 0.5  C 94.5322580645161 0.5  86.5237662346534 9.51495962023728  69.8911290322581 13.25  Z " fill-rule="nonzero" fill="url(#LinearGradient181)" stroke="none" transform="matrix(1 0 0 1 255 535 )" />
    <path d="M 69.8911290322581 13.25  C 42.4918584399131 19.4028055228496  14.766129032258 13.25  14.766129032258 13.25  L 0 24.75  C 0 24.75  42.94960470849 33.0881355703009  77 26.75  C 112.879656234893 20.0713660668061  122.75 0.5  122.75 0.5  L 94.5322580645161 0.5  C 94.5322580645161 0.5  86.5237662346534 9.51495962023728  69.8911290322581 13.25  Z " stroke-width="2" stroke="url(#LinearGradient184)" fill="none" transform="matrix(1 0 0 1 255 535 )" mask="url(#clip187)" />
  </g>
</svg>