<?xml version="1.0" encoding="utf-8"?>
<svg version="1.1" xmlns:xlink="http://www.w3.org/1999/xlink" width="46px" height="67px" xmlns="http://www.w3.org/2000/svg">
  <defs>
    <linearGradient gradientUnits="userSpaceOnUse" x1="0" y1="33.5" x2="46" y2="33.5" id="LinearGradient167">
      <stop id="Stop168" stop-color="#105749" offset="0" />
      <stop id="Stop169" stop-color="#31f9a1" offset="1" />
    </linearGradient>
    <linearGradient gradientUnits="userSpaceOnUse" x1="0" y1="33.5" x2="46" y2="33.5" id="LinearGradient170">
      <stop id="Stop171" stop-color="#105749" offset="0" />
      <stop id="Stop172" stop-color="#31f9a1" offset="1" />
    </linearGradient>
    <mask fill="white" id="clip173">
      <path d="M 43 14.75  C 27.1636286757131 -0.692944592553431  0 0.75  0 0.75  L 0 43.25  C 0 43.25  23.6668958392321 45.1260615393758  39.25 55.5  C 47.3607208550924 60.8994453321991  45.75 66.25  45.75 66.25  L 45.75 24.25  C 45.75 24.25  46.8737407598045 18.5275044986367  43 14.75  Z " fill-rule="evenodd" />
    </mask>
  </defs>
  <g transform="matrix(1 0 0 1 -304 -468 )">
    <path d="M 43 14.75  C 27.1636286757131 -0.692944592553431  0 0.75  0 0.75  L 0 43.25  C 0 43.25  23.6668958392321 45.1260615393758  39.25 55.5  C 47.3607208550924 60.8994453321991  45.75 66.25  45.75 66.25  L 45.75 24.25  C 45.75 24.25  46.8737407598045 18.5275044986367  43 14.75  Z " fill-rule="nonzero" fill="url(#LinearGradient167)" stroke="none" transform="matrix(1 0 0 1 304 468 )" />
    <path d="M 43 14.75  C 27.1636286757131 -0.692944592553431  0 0.75  0 0.75  L 0 43.25  C 0 43.25  23.6668958392321 45.1260615393758  39.25 55.5  C 47.3607208550924 60.8994453321991  45.75 66.25  45.75 66.25  L 45.75 24.25  C 45.75 24.25  46.8737407598045 18.5275044986367  43 14.75  Z " stroke-width="2" stroke="url(#LinearGradient170)" fill="none" transform="matrix(1 0 0 1 304 468 )" mask="url(#clip173)" />
  </g>
</svg>