<?xml version="1.0" encoding="utf-8"?>
<svg version="1.1" xmlns:xlink="http://www.w3.org/1999/xlink" width="1245px" height="848px" xmlns="http://www.w3.org/2000/svg">
  <g transform="matrix(1 0 0 1 -257 -122 )">
    <path d="M 258 130  A 7 7 0 0 1 265 123 L 1494 123  A 7 7 0 0 1 1501 130 L 1501 962  A 7 7 0 0 1 1494 969 L 265 969  A 7 7 0 0 1 258 962 L 258 130  Z " fill-rule="nonzero" fill="#ffffff" stroke="none" />
    <path d="M 257.5 130  A 7.5 7.5 0 0 1 265 122.5 L 1494 122.5  A 7.5 7.5 0 0 1 1501.5 130 L 1501.5 962  A 7.5 7.5 0 0 1 1494 969.5 L 265 969.5  A 7.5 7.5 0 0 1 257.5 962 L 257.5 130  Z " stroke-width="1" stroke="#d2d2d2" fill="none" stroke-opacity="0.435294117647059" />
  </g>
</svg>