<?xml version="1.0" encoding="utf-8"?>
<svg version="1.1" xmlns:xlink="http://www.w3.org/1999/xlink" width="237px" height="27px" xmlns="http://www.w3.org/2000/svg">
  <g transform="matrix(1 0 0 1 -105 -573 )">
    <path d="M 106 578  A 4 4 0 0 1 110 574 L 337 574  A 4 4 0 0 1 341 578 L 341 595  A 4 4 0 0 1 337 599 L 110 599  A 4 4 0 0 1 106 595 L 106 578  Z " fill-rule="nonzero" fill="#ffffff" stroke="none" />
    <path d="M 105.5 578  A 4.5 4.5 0 0 1 110 573.5 L 337 573.5  A 4.5 4.5 0 0 1 341.5 578 L 341.5 595  A 4.5 4.5 0 0 1 337 599.5 L 110 599.5  A 4.5 4.5 0 0 1 105.5 595 L 105.5 578  Z " stroke-width="1" stroke="#797979" fill="none" stroke-opacity="0.592156862745098" />
  </g>
</svg>