<?xml version="1.0" encoding="utf-8"?>
<svg version="1.1" xmlns:xlink="http://www.w3.org/1999/xlink" width="17px" height="17px" xmlns="http://www.w3.org/2000/svg">
  <g transform="matrix(1 0 0 1 -105 -532 )">
    <path d="M 113.5 532  C 118.26 532  122 535.74  122 540.5  C 122 545.26  118.26 549  113.5 549  C 108.74 549  105 545.26  105 540.5  C 105 535.74  108.74 532  113.5 532  Z " fill-rule="nonzero" fill="#ffffff" stroke="none" />
    <path d="M 113.5 532.5  C 117.98 532.5  121.5 536.02  121.5 540.5  C 121.5 544.98  117.98 548.5  113.5 548.5  C 109.02 548.5  105.5 544.98  105.5 540.5  C 105.5 536.02  109.02 532.5  113.5 532.5  Z " stroke-width="1" stroke="#797979" fill="none" />
  </g>
</svg>