<?xml version="1.0" encoding="utf-8"?>
<svg version="1.1" xmlns:xlink="http://www.w3.org/1999/xlink" width="237px" height="27px" xmlns="http://www.w3.org/2000/svg">
  <defs>
    <mask fill="white" id="clip83">
      <path d="M 0 22  L 0 5  C 0 2.2  2.20000000000005 0  5 0  L 232 0  C 234.8 0  237 2.2  237 5  L 237 22  C 237 24.8  234.8 27  232 27  L 71.8048780487815 27  L 5 27  C 2.20000000000005 27  0 24.8  0 22  Z " fill-rule="evenodd" />
    </mask>
  </defs>
  <g transform="matrix(1 0 0 1 -739 -576 )">
    <path d="M 0 22  L 0 5  C 0 2.2  2.20000000000005 0  5 0  L 232 0  C 234.8 0  237 2.2  237 5  L 237 22  C 237 24.8  234.8 27  232 27  L 71.8048780487815 27  L 5 27  C 2.20000000000005 27  0 24.8  0 22  Z " fill-rule="nonzero" fill="#ffffff" stroke="none" transform="matrix(1 0 0 1 739 576 )" />
    <path d="M 0 22  L 0 5  C 0 2.2  2.20000000000005 0  5 0  L 232 0  C 234.8 0  237 2.2  237 5  L 237 22  C 237 24.8  234.8 27  232 27  L 71.8048780487815 27  L 5 27  C 2.20000000000005 27  0 24.8  0 22  Z " stroke-width="2" stroke="#797979" fill="none" stroke-opacity="0.592156862745098" transform="matrix(1 0 0 1 739 576 )" mask="url(#clip83)" />
  </g>
</svg>