<?xml version="1.0" encoding="utf-8"?>
<svg version="1.1" xmlns:xlink="http://www.w3.org/1999/xlink" width="24px" height="24px" xmlns="http://www.w3.org/2000/svg">
  <g transform="matrix(1 0 0 1 -168 -5162 )">
    <path d="M 2.14285714285714 5.14285714285714  L 3.85714285714286 5.14285714285714  C 4.44642857142857 5.14285714285714  4.95089285714286 5.35267857142857  5.37053571428571 5.77232142857143  C 5.79017857142857 6.19196428571428  6 6.69642857142857  6 7.28571428571429  L 6 21.8571428571429  C 6 22.4464285714286  5.79017857142857 22.9508928571429  5.37053571428571 23.3705357142857  C 4.95089285714286 23.7901785714286  4.44642857142857 24  3.85714285714286 24  L 2.14285714285714 24  C 1.55357142857143 24  1.04910714285714 23.7901785714286  0.629464285714286 23.3705357142857  C 0.209821428571429 22.9508928571429  0 22.4464285714286  0 21.8571428571429  L 0 7.28571428571429  C 0 6.69642857142857  0.209821428571429 6.19196428571428  0.629464285714286 5.77232142857143  C 1.04910714285714 5.35267857142857  1.55357142857143 5.14285714285714  2.14285714285714 5.14285714285714  Z M 22.2857142857143 5.14285714285714  L 22.2857142857143 7.32589285714286  C 22.8035714285714 7.62946428571428  23.21875 8.04464285714286  23.53125 8.57142857142857  C 23.84375 9.09821428571428  24 9.66964285714286  24 10.2857142857143  L 24 20.5714285714286  C 24 21.5178571428571  23.6651785714286 22.3258928571429  22.9955357142857 22.9955357142857  C 22.3258928571429 23.6651785714286  21.5178571428571 24  20.5714285714286 24  L 9 24  C 8.41071428571428 24  7.90625 23.7901785714286  7.48660714285714 23.3705357142857  C 7.06696428571429 22.9508928571429  6.85714285714286 22.4464285714286  7 21.8571428571429  L 7 1.28571428571429  C 6.85714285714286 0.928571428571428  6.98214285714286 0.624999999999999  7.23214285714286 0.375  C 7.48214285714286 0.125000000000001  7.78571428571429 0  8.14285714285714 0  L 17.1428571428571 0  C 17.5 0  17.8928571428571 0.0892857142857153  18.3214285714286 0.267857142857143  C 18.75 0.446428571428571  19.0892857142857 0.660714285714285  19.3392857142857 0.910714285714286  L 21.375 2.94642857142857  C 21.625 3.19642857142857  21.8392857142857 3.53571428571429  22.0178571428571 3.96428571428571  C 22.1964285714286 4.39285714285714  22.2857142857143 4.78571428571428  22.2857142857143 5.14285714285714  Z M 12.3080357142857 20.8794642857143  C 12.3883928571429 20.7991071428571  12.4285714285714 20.6964285714286  12.4285714285714 20.5714285714286  L 12.4285714285714 18.8571428571429  C 12.4285714285714 18.7321428571429  12.3883928571429 18.6294642857143  12.3080357142857 18.5491071428571  C 12.2276785714286 18.46875  12.125 18.4285714285714  12 18.4285714285714  L 10.2857142857143 18.4285714285714  C 10.1607142857143 18.4285714285714  10.0580357142857 18.46875  9.97767857142857 18.5491071428571  C 9.89732142857143 18.6294642857143  9.85714285714286 18.7321428571429  9.85714285714286 18.8571428571429  L 9.85714285714286 20.5714285714286  C 9.85714285714286 20.6964285714286  9.89732142857143 20.7991071428571  9.97767857142857 20.8794642857143  C 10.0580357142857 20.9598214285714  10.1607142857143 21  10.2857142857143 21  L 12 21  C 12.125 21  12.2276785714286 20.9598214285714  12.3080357142857 20.8794642857143  Z M 12.3080357142857 17.4508928571429  C 12.3883928571429 17.3705357142857  12.4285714285714 17.2678571428571  12.4285714285714 17.1428571428571  L 12.4285714285714 15.4285714285714  C 12.4285714285714 15.3035714285714  12.3883928571429 15.2008928571429  12.3080357142857 15.1205357142857  C 12.2276785714286 15.0401785714286  12.125 15  12 15  L 10.2857142857143 15  C 10.1607142857143 15  10.0580357142857 15.0401785714286  9.97767857142857 15.1205357142857  C 9.89732142857143 15.2008928571429  9.85714285714286 15.3035714285714  9.85714285714286 15.4285714285714  L 9.85714285714286 17.1428571428571  C 9.85714285714286 17.2678571428571  9.89732142857143 17.3705357142857  9.97767857142857 17.4508928571429  C 10.0580357142857 17.53125  10.1607142857143 17.5714285714286  10.2857142857143 17.5714285714286  L 12 17.5714285714286  C 12.125 17.5714285714286  12.2276785714286 17.53125  12.3080357142857 17.4508928571429  Z M 12.3080357142857 14.0223214285714  C 12.3883928571429 13.9419642857143  12.4285714285714 13.8392857142857  12.4285714285714 13.7142857142857  L 12.4285714285714 12  C 12.4285714285714 11.875  12.3883928571429 11.7723214285714  12.3080357142857 11.6919642857143  C 12.2276785714286 11.6116071428571  12.125 11.5714285714286  12 11.5714285714286  L 10.2857142857143 11.5714285714286  C 10.1607142857143 11.5714285714286  10.0580357142857 11.6116071428571  9.97767857142857 11.6919642857143  C 9.89732142857143 11.7723214285714  9.85714285714286 11.875  9.85714285714286 12  L 9.85714285714286 13.7142857142857  C 9.85714285714286 13.8392857142857  9.89732142857143 13.9419642857143  9.97767857142857 14.0223214285714  C 10.0580357142857 14.1026785714286  10.1607142857143 14.1428571428571  10.2857142857143 14.1428571428571  L 12 14.1428571428571  C 12.125 14.1428571428571  12.2276785714286 14.1026785714286  12.3080357142857 14.0223214285714  Z M 15.7366071428571 20.8794642857143  C 15.8169642857143 20.7991071428571  15.8571428571429 20.6964285714286  15.8571428571429 20.5714285714286  L 15.8571428571429 18.8571428571429  C 15.8571428571429 18.7321428571429  15.8169642857143 18.6294642857143  15.7366071428571 18.5491071428571  C 15.65625 18.46875  15.5535714285714 18.4285714285714  15.4285714285714 18.4285714285714  L 13.7142857142857 18.4285714285714  C 13.5892857142857 18.4285714285714  13.4866071428571 18.46875  13.40625 18.5491071428571  C 13.3258928571429 18.6294642857143  13.2857142857143 18.7321428571429  13.2857142857143 18.8571428571429  L 13.2857142857143 20.5714285714286  C 13.2857142857143 20.6964285714286  13.3258928571429 20.7991071428571  13.40625 20.8794642857143  C 13.4866071428571 20.9598214285714  13.5892857142857 21  13.7142857142857 21  L 15.4285714285714 21  C 15.5535714285714 21  15.65625 20.9598214285714  15.7366071428571 20.8794642857143  Z M 15.7366071428571 17.4508928571429  C 15.8169642857143 17.3705357142857  15.8571428571429 17.2678571428571  15.8571428571429 17.1428571428571  L 15.8571428571429 15.4285714285714  C 15.8571428571429 15.3035714285714  15.8169642857143 15.2008928571429  15.7366071428571 15.1205357142857  C 15.65625 15.0401785714286  15.5535714285714 15  15.4285714285714 15  L 13.7142857142857 15  C 13.5892857142857 15  13.4866071428571 15.0401785714286  13.40625 15.1205357142857  C 13.3258928571429 15.2008928571429  13.2857142857143 15.3035714285714  13.2857142857143 15.4285714285714  L 13.2857142857143 17.1428571428571  C 13.2857142857143 17.2678571428571  13.3258928571429 17.3705357142857  13.40625 17.4508928571429  C 13.4866071428571 17.53125  13.5892857142857 17.5714285714286  13.7142857142857 17.5714285714286  L 15.4285714285714 17.5714285714286  C 15.5535714285714 17.5714285714286  15.65625 17.53125  15.7366071428571 17.4508928571429  Z M 15.7366071428571 14.0223214285714  C 15.8169642857143 13.9419642857143  15.8571428571429 13.8392857142857  15.8571428571429 13.7142857142857  L 15.8571428571429 12  C 15.8571428571429 11.875  15.8169642857143 11.7723214285714  15.7366071428571 11.6919642857143  C 15.65625 11.6116071428571  15.5535714285714 11.5714285714286  15.4285714285714 11.5714285714286  L 13.7142857142857 11.5714285714286  C 13.5892857142857 11.5714285714286  13.4866071428571 11.6116071428571  13.40625 11.6919642857143  C 13.3258928571429 11.7723214285714  13.2857142857143 11.875  13.2857142857143 12  L 13.2857142857143 13.7142857142857  C 13.2857142857143 13.8392857142857  13.3258928571429 13.9419642857143  13.40625 14.0223214285714  C 13.4866071428571 14.1026785714286  13.5892857142857 14.1428571428571  13.7142857142857 14.1428571428571  L 15.4285714285714 14.1428571428571  C 15.5535714285714 14.1428571428571  15.65625 14.1026785714286  15.7366071428571 14.0223214285714  Z M 19.1651785714286 20.8794642857143  C 19.2455357142857 20.7991071428571  19.2857142857143 20.6964285714286  19.2857142857143 20.5714285714286  L 19.2857142857143 18.8571428571429  C 19.2857142857143 18.7321428571429  19.2455357142857 18.6294642857143  19.1651785714286 18.5491071428571  C 19.0848214285714 18.46875  18.9821428571429 18.4285714285714  18.8571428571429 18.4285714285714  L 17.1428571428571 18.4285714285714  C 17.0178571428571 18.4285714285714  16.9151785714286 18.46875  16.8348214285714 18.5491071428571  C 16.7544642857143 18.6294642857143  16.7142857142857 18.7321428571429  16.7142857142857 18.8571428571429  L 16.7142857142857 20.5714285714286  C 16.7142857142857 20.6964285714286  16.7544642857143 20.7991071428571  16.8348214285714 20.8794642857143  C 16.9151785714286 20.9598214285714  17.0178571428571 21  17.1428571428571 21  L 18.8571428571429 21  C 18.9821428571429 21  19.0848214285714 20.9598214285714  19.1651785714286 20.8794642857143  Z M 19.1651785714286 17.4508928571429  C 19.2455357142857 17.3705357142857  19.2857142857143 17.2678571428571  19.2857142857143 17.1428571428571  L 19.2857142857143 15.4285714285714  C 19.2857142857143 15.3035714285714  19.2455357142857 15.2008928571429  19.1651785714286 15.1205357142857  C 19.0848214285714 15.0401785714286  18.9821428571429 15  18.8571428571429 15  L 17.1428571428571 15  C 17.0178571428571 15  16.9151785714286 15.0401785714286  16.8348214285714 15.1205357142857  C 16.7544642857143 15.2008928571429  16.7142857142857 15.3035714285714  16.7142857142857 15.4285714285714  L 16.7142857142857 17.1428571428571  C 16.7142857142857 17.2678571428571  16.7544642857143 17.3705357142857  16.8348214285714 17.4508928571429  C 16.9151785714286 17.53125  17.0178571428571 17.5714285714286  17.1428571428571 17.5714285714286  L 18.8571428571429 17.5714285714286  C 18.9821428571429 17.5714285714286  19.0848214285714 17.53125  19.1651785714286 17.4508928571429  Z M 19.1651785714286 14.0223214285714  C 19.2455357142857 13.9419642857143  19.2857142857143 13.8392857142857  19.2857142857143 13.7142857142857  L 19.2857142857143 12  C 19.2857142857143 11.875  19.2455357142857 11.7723214285714  19.1651785714286 11.6919642857143  C 19.0848214285714 11.6116071428571  18.9821428571429 11.5714285714286  18.8571428571429 11.5714285714286  L 17.1428571428571 11.5714285714286  C 17.0178571428571 11.5714285714286  16.9151785714286 11.6116071428571  16.8348214285714 11.6919642857143  C 16.7544642857143 11.7723214285714  16.7142857142857 11.875  16.7142857142857 12  L 16.7142857142857 13.7142857142857  C 16.7142857142857 13.8392857142857  16.7544642857143 13.9419642857143  16.8348214285714 14.0223214285714  C 16.9151785714286 14.1026785714286  17.0178571428571 14.1428571428571  17.1428571428571 14.1428571428571  L 18.8571428571429 14.1428571428571  C 18.9821428571429 14.1428571428571  19.0848214285714 14.1026785714286  19.1651785714286 14.0223214285714  Z M 8.57142857142857 9  L 20.5714285714286 9  L 20.5714285714286 5.14285714285714  L 18.4285714285714 5.14285714285714  C 18.0714285714286 5.14285714285714  17.7678571428571 5.01785714285714  17.5178571428571 4.76785714285714  C 17.2678571428571 4.51785714285714  17.1428571428571 4.21428571428571  17.1428571428571 3.85714285714286  L 17.1428571428571 1.71428571428571  L 8.57142857142857 1.71428571428571  L 8.57142857142857 9  Z " fill-rule="nonzero" fill="#fdfdfd" stroke="none" transform="matrix(1 0 0 1 168 5162 )" />
  </g>
</svg>