<?xml version="1.0" encoding="utf-8"?>
<svg version="1.1" xmlns:xlink="http://www.w3.org/1999/xlink" width="27px" height="22px" xmlns="http://www.w3.org/2000/svg">
  <g transform="matrix(1 0 0 1 -843 -5268 )">
    <path d="M 9.22336865588399 17.5984848484849  C 9.62994980479643 17.4621212121212  9.94366982710541 17.2222222222222  10.1645287228109 16.8787878787879  C 10.3753485778026 16.5353535353535  10.4305633017289 16.1868686868687  10.3301728945901 15.8333333333333  C 10.2297824874512 15.479797979798  10.0039040713887 15.2272727272727  9.65253764640268 15.0757575757576  C 9.31121026213051 14.9343434343434  8.94478527607362 14.9292929292929  8.55326268823201 15.0606060606061  C 8.16174010039041 15.1919191919192  7.86056887897379 15.4242424242424  7.64974902398215 15.7575757575758  C 7.42889012827663 16.1010101010101  7.36363636363636 16.4469696969697  7.45398773006135 16.7954545454545  C 7.54433909648634 17.1439393939394  7.76017847183491 17.3989898989899  8.10150585610708 17.5606060606061  C 8.44283324037925 17.7222222222222  8.81678750697156 17.7348484848485  9.22336865588399 17.5984848484849  Z M 11.2487451199108 15.3257575757576  C 11.3993307306191 15.270202020202  11.5097601784718 15.1767676767677  11.580033463469 15.0454545454545  C 11.6603457891801 14.9141414141414  11.6779141104294 14.780303030303  11.632738427217 14.6439393939394  C 11.5875627440045 14.5075757575758  11.4997211377579 14.4141414141414  11.3692136084774 14.3636363636364  C 11.228667038483 14.3131313131313  11.0856107083101 14.3156565656566  10.9400446179587 14.3712121212121  C 10.7944785276074 14.4267676767677  10.6865588399331 14.520202020202  10.6162855549359 14.6515151515152  C 10.4456218627998 14.9646464646465  10.51087562744 15.1919191919192  10.8120468488567 15.3333333333333  C 10.9525934188511 15.3838383838384  11.0981595092025 15.3813131313131  11.2487451199108 15.3257575757576  Z M 14.1625766871166 13.780303030303  C 14.6394311210262 14.6944444444444  14.6519799219186 15.6565656565657  14.2002230897936 16.6666666666667  C 13.7484662576687 17.6969696969697  12.9553820412716 18.4545454545455  11.8209704406023 18.9393939393939  C 10.6865588399331 19.4242424242424  9.56218627997769 19.4848484848485  8.4478527607362 19.1212121212121  C 7.37367540435025 18.7777777777778  6.63329615170106 18.1388888888889  6.22671500278862 17.2045454545455  C 5.82013385387619 16.270202020202  5.85276073619632 15.3232323232323  6.32459564974902 14.3636363636364  C 6.79643056330173 13.4242424242424  7.5568878973787 12.7222222222222  8.60596765197992 12.2575757575758  C 9.65504740658115 11.7929292929293  10.7116564417178 11.6969696969697  11.7757947573898 11.969696969697  C 12.8901282766313 12.2626262626263  13.6857222532069 12.8661616161616  14.1625766871166 13.780303030303  Z M 16.9032348020078 18.25  C 18.3739542665923 17.0530303030303  19.0390407138873 15.7171717171717  18.8984941438929 14.2424242424242  C 18.8081427774679 13.2727272727273  18.3614054656999 12.4141414141414  17.558282208589 11.6666666666667  C 16.755158951478 10.9191919191919  15.7085889570552 10.3686868686869  14.4185722253207 10.0151515151515  C 13.1285554935862 9.66161616161616  11.7506971556051 9.55555555555556  10.2849972113776 9.6969696969697  C 8.0462911321807 9.92929292929293  6.19157836029002 10.6439393939394  4.72085889570552 11.8409090909091  C 3.25013943112103 13.0378787878788  2.58505298382599 14.3737373737374  2.72559955382041 15.8484848484848  C 2.8159509202454 16.8181818181818  3.26268823201339 17.6767676767677  4.06581148912437 18.4242424242424  C 4.86893474623536 19.1717171717172  5.91550474065812 19.7222222222222  7.20552147239264 20.0757575757576  C 8.49553820412716 20.4292929292929  9.8733965421082 20.5353535353535  11.3390964863358 20.3939393939394  C 13.5778025655326 20.1616161616162  15.4325153374233 19.4469696969697  16.9032348020078 18.25  Z M 23.0245398773006 12.5378787878788  C 23.3658672615728 13.0681818181818  23.5365309537089 13.6565656565657  23.5365309537089 14.3030303030303  C 23.5365309537089 14.989898989899  23.350808700502 15.6944444444444  22.9793641940881 16.4166666666667  C 22.6079196876743 17.1388888888889  22.0607919687674 17.8308080808081  21.3379810373675 18.4924242424242  C 20.6151701059677 19.1540404040404  19.7693809258226 19.7474747474747  18.8006134969325 20.2727272727273  C 17.8318460680424 20.7979797979798  16.6974344673731 21.2171717171717  15.3973786949247 21.530303030303  C 14.0973229224763 21.8434343434343  12.739542665923 22  11.3240379252649 22  C 9.9085331846068 22  8.5281650864473 21.8308080808081  7.18293363078639 21.4924242424242  C 5.83770217512549 21.1540404040404  4.63050752928054 20.6843434343434  3.56134969325153 20.0833333333333  C 2.49219185722253 19.4823232323232  1.63134411600669 18.719696969697  0.978806469604016 17.7954545454545  C 0.326268823201338 16.8712121212121  0 15.8636363636364  0 14.7727272727273  C 0 13.6111111111111  0.348856664807585 12.3737373737374  1.04656999442276 11.0606060606061  C 1.74428332403793 9.74747474747475  2.7356385945343 8.44444444444444  4.02063580591188 7.15151515151515  C 5.71723368655884 5.44444444444444  7.4313998884551 4.25252525252525  9.16313441160067 3.57575757575758  C 10.8948689347462 2.8989898989899  12.1321807027329 2.93434343434343  12.8750697155605 3.68181818181818  C 13.5276073619632 4.32828282828283  13.6279977691021 5.38383838383838  13.1762409369771 6.84848484848485  C 13.1360847741216 6.98989898989899  13.1310652537646 7.09090909090909  13.1611823759063 7.15151515151515  C 13.191299498048 7.21212121212121  13.2414947016174 7.24747474747475  13.3117679866146 7.25757575757576  C 13.3820412716118 7.26767676767677  13.4548243167875 7.26515151515152  13.5301171221417 7.25  C 13.6054099274958 7.23484848484848  13.6731734523146 7.21717171717172  13.7334076965979 7.1969696969697  L 13.8237590630229 7.16666666666667  C 15.2191857222532 6.57070707070707  16.4539877300614 6.27272727272727  17.5281650864473 6.27272727272727  C 18.6023424428332 6.27272727272727  19.3703290574456 6.58080808080808  19.8321249302844 7.1969696969697  C 20.2838817624094 7.83333333333333  20.2838817624094 8.73232323232323  19.8321249302844 9.89393939393939  C 19.8120468488567 10.0252525252525  19.7894590072504 10.1262626262626  19.7643614054657 10.1969696969697  C 19.739263803681 10.2676767676768  19.7618516452872 10.3308080808081  19.8321249302844 10.3863636363636  C 19.9023982152817 10.4419191919192  19.962632459565 10.479797979798  20.0128276631344 10.5  C 20.0630228667039 10.520202020202  20.1483547127719 10.550505050505  20.2688232013385 10.5909090909091  C 20.8410485220301 10.7727272727273  21.3580591187953 11.010101010101  21.8198549916341 11.3030303030303  C 22.281650864473 11.5959595959596  22.6832124930284 12.0075757575758  23.0245398773006 12.5378787878788  Z M 20.9012827663134 3.85606060606061  C 21.4935861684328 4.04292929292929  22.0005577244841 4.37373737373737  22.4221974344674 4.84848484848485  C 22.8438371444506 5.32323232323232  23.1174010039041 5.87121212121212  23.2428890128277 6.49242424242424  C 23.3683770217513 7.11363636363636  23.3357501394311 7.70707070707071  23.1450083658673 8.27272727272727  C 23.0646960401562 8.5050505050505  22.9166201896263 8.67676767676768  22.7007808142777 8.78787878787879  C 22.4849414389292 8.8989898989899  22.2615727830452 8.91919191919192  22.0306748466258 8.84848484848485  C 21.7997769102064 8.76767676767677  21.6291132180703 8.61868686868687  21.5186837702175 8.40151515151515  C 21.4082543223648 8.18434343434343  21.388176240937 7.95959595959596  21.4584495259342 7.72727272727273  C 21.6592303402119 7.09090909090909  21.5387618516453 6.53030303030303  21.0970440602342 6.04545454545455  C 20.6553262688232 5.56060606060606  20.1182375906302 5.38383838383838  19.4857780256553 5.51515151515151  C 19.244841048522 5.56565656565657  19.0189626324596 5.52525252525252  18.8081427774679 5.39393939393939  C 18.5973229224763 5.26262626262626  18.4718349135527 5.07575757575758  18.4316787506972 4.83333333333333  C 18.3814835471277 4.59090909090909  18.4216397099833 4.36616161616161  18.5521472392638 4.15909090909091  C 18.6826547685443 3.9520202020202  18.8683770217513 3.82323232323232  19.1093139988846 3.77272727272727  C 19.7116564417178 3.64141414141414  20.3089793641941 3.66919191919192  20.9012827663134 3.85606060606061  Z M 22.0156162855549 0.34090909090909  C 23.2303402119353 0.71969696969697  24.2744004461796 1.3989898989899  25.1477969882878 2.37878787878788  C 26.021193530396 3.34848484848485  26.5858895705521 4.47222222222222  26.8418851087563 5.75  C 27.0978806469604 7.02777777777778  27.0301171221417 8.24747474747475  26.6385945343001 9.40909090909091  C 26.5482431678751 9.68181818181818  26.377579475739 9.88383838383838  26.1266034578918 10.0151515151515  C 25.8756274400446 10.1464646464646  25.6146123814836 10.1666666666667  25.3435582822086 10.0757575757576  C 25.0725041829336 9.98484848484848  24.8717233686559 9.81313131313131  24.7412158393754 9.56060606060606  C 24.6107083100948 9.30808080808081  24.5856107083101 9.04545454545455  24.6659230340212 8.77272727272727  C 24.94701617401 7.94444444444444  24.9972113775795 7.07575757575757  24.8165086447295 6.16666666666667  C 24.6358059118795 5.25757575757576  24.234244283324 4.45959595959596  23.611823759063 3.77272727272727  C 22.989403234802 3.07575757575758  22.2465142219743 2.59343434343434  21.38315672058 2.32575757575758  C 20.5197992191857 2.05808080808081  19.6514221974345 2.01515151515152  18.7780256553263 2.1969696969697  C 18.4969325153374 2.25757575757576  18.2359174567764 2.20959595959596  17.9949804796431 2.0530303030303  C 17.7540435025098 1.89646464646464  17.6034578918015 1.67676767676767  17.5432236475181 1.39393939393939  C 17.4829894032348 1.11111111111111  17.5306748466258 0.851010101010098  17.686279977691 0.613636363636365  C 17.8418851087563 0.376262626262626  18.0602342442833 0.227272727272728  18.3413273842722 0.166666666666667  C 19.5761293920803 -0.0959595959595996  20.8008923591746 -0.0378787878787867  22.0156162855549 0.34090909090909  Z " fill-rule="nonzero" fill="#ffffff" stroke="none" transform="matrix(1 0 0 1 843 5268 )" />
  </g>
</svg>