<?xml version="1.0" encoding="utf-8"?>
<svg version="1.1" xmlns:xlink="http://www.w3.org/1999/xlink" width="13px" height="13px" xmlns="http://www.w3.org/2000/svg">
  <g transform="matrix(1 0 0 1 -1803 -180 )">
    <path d="M 10.928125 11.0587837837838  C 9.75213815789474 12.2665540540541  8.18700657894737 12.9319256756757  6.52351973684211 12.9319256756757  C 4.86003289473684 12.9319256756757  3.29490131578947 12.2665540540541  2.11891447368421 11.0587837837838  C 0.942927631578948 9.85101351351351  0.295065789473684 8.24358108108108  0.295065789473684 6.53513513513514  C 0.295065789473684 4.82668918918919  0.942927631578948 3.21925675675676  2.11891447368421 2.01148648648649  C 3.29490131578947 0.803716216216217  4.86003289473684 0.138344594594595  6.52351973684211 0.138344594594595  C 8.18700657894737 0.138344594594595  9.75213815789474 0.803716216216217  10.928125 2.01148648648649  C 12.1041118421053 3.21925675675676  12.7519736842105 4.82668918918919  12.7519736842105 6.53513513513514  C 12.7519736842105 8.24358108108108  12.1041118421053 9.85101351351351  10.928125 11.0587837837838  Z M 11.6850328947368 6.53293918918919  C 11.6850328947368 3.61013513513513  9.36940789473684 1.23412162162162  6.52351973684211 1.23412162162162  C 3.67763157894737 1.23412162162162  1.36200657894737 3.61233108108108  1.36200657894737 6.53513513513513  C 1.36200657894737 9.45793918918919  3.67763157894737 11.8339527027027  6.52351973684211 11.8339527027027  C 9.36940789473684 11.8339527027027  11.6850328947368 9.45574324324324  11.6850328947368 6.53293918918919  Z " fill-rule="nonzero" fill="#ffffff" stroke="none" transform="matrix(1 0 0 1 1803 180 )" />
  </g>
</svg>