<?xml version="1.0" encoding="utf-8"?>
<svg version="1.1" xmlns:xlink="http://www.w3.org/1999/xlink" width="19px" height="16px" xmlns="http://www.w3.org/2000/svg">
  <g transform="matrix(1 0 0 1 -1925 -180 )">
    <path d="M 13.0356120102282 13.1217360616837  L 13.0349715263572 13.1193628903226  C 11.9288354197862 13.92130041271  10.5974828614847 14.343896656724  9.23624500472069 14.3251498549174  C 9.05776271203777 14.3227766835563  8.88141538552321 14.3087534023603  8.70528152871755 14.2947301211644  C 8.63333352163651 14.2878263540519  8.5639474649882 14.2761762291109  8.49178597324941 14.2645261041699  C 8.35258686073957 14.2459722121164  8.21573621400472 14.2295757595594  8.08123400314713 14.1998032516129  C 7.99775724154209 14.185779970417  7.91428047993706 14.160322311251  7.83528712037766 14.1415526722266  C 7.70313336034619 14.1113486703383  7.57097961526357 14.0809289214792  7.44330927222659 14.041447966011  C 7.38289003461841 14.0181477312352  7.3250327324941 13.9982993875688  7.26226502911094 13.9717630237608  C 7.11153716207711 13.9227893828482  6.96337124547601 13.8692851612903  6.8216101974823 13.8088771424076  C 6.78915887018096 13.7948538612116  6.7575615263572 13.7808305649095  6.72660466640441 13.7693961869394  C 6.55965114319434 13.6902185441385  6.3924841054288 13.6088834769473  6.23257593469709 13.5225863351692  C 6.22574408182534 13.5178399924469  6.21869872934697 13.5156825680567  6.21122637765539 13.5109362253344  C 5.66739624195819 13.2041429459496  5.16993637345339 12.8200914088054  4.73405058379229 12.3705193391031  C 4.72721873092054 12.3633998250197  4.72017337844217 12.354122886546  4.71270102675059 12.3472191043273  C 4.578198815893 12.2076334577498  4.44839352163651 12.06330146845  4.32542008025177 11.9073193693155  C 4.29980060582219 11.8747421960661  4.27674309677419 11.8445381941778  4.24877517151849 11.8072146630999  C 3.32770833016052 10.6198944138803  2.82788586373836 9.15440696092444  2.8294566797797 7.64575018095988  L 4.40441343981117 7.64575018095988  L 2.50024652006294 3.83767254508261  L 0 7.69407659606609  L 1.56001207159717 7.69407659606609  C 1.55908100287415 9.31784836884616  2.04123947054593 10.9044025579272  2.94389030133753 12.2477616390244  C 2.95207813348779 12.2670558633217  2.96201230272374 12.285544476891  2.97356617859953 12.3029918061369  C 3.06280732494099 12.4369681372148  3.16571217702596 12.5582156387097  3.26007722423289 12.6814048327301  C 3.29829293627065 12.7260636097561  3.33010376475216 12.7726640793076  3.36831947678993 12.8237951295043  C 3.50837257277734 12.9981153737215  3.6633703422502 13.1659633447679  3.81666015971676 13.3297121988985  C 3.83373979937058 13.3467558923682  3.84633603697876 13.3594847219512  3.85935927380016 13.3743709759245  C 4.37799468781893 13.9082723072331  4.96909832759575 14.3649653883849  5.61493327773407 14.7307464862313  C 5.63179943273013 14.7415336232887  5.64674412116444 14.747790179701  5.66574522738002 14.7605189941778  C 5.85041888906373 14.8625653778127  6.04149741935484 14.9583552201416  6.23236243509048 15.0433579254131  C 6.28125291817467 15.0649322146341  6.32800845003934 15.088016702439  6.3745504822974 15.1080807779701  C 6.54022303776554 15.1803546385523  6.70995201101495 15.2398996846577  6.87989448387097 15.3022493809599  C 6.96059581038552 15.3320219040126  7.03916217073171 15.3574795631786  7.12178494885917 15.3850946467349  C 7.27123184815106 15.4297534237608  7.42324068292683 15.4679399125098  7.57823846734854 15.5041847238395  C 7.68007585129819 15.5296423830055  7.77977828402832 15.5551000421715  7.88375061919748 15.5764585844217  C 7.92470054184121 15.5893735646362  7.96650924966873 15.5993229428649  8.00885901180173 15.6062311074744  C 8.15531696144768 15.6338461910307  8.29963995987412 15.6465750206137  8.44396297324941 15.6657761384736  C 8.49712337372148 15.6765632755311  8.55071075845791 15.6849772563336  8.60109569394178 15.6912337976397  C 8.86220076475216 15.7166914568057  9.12117088434304 15.7343823760818  9.38227595515342 15.7343823760818  C 10.9676940015736 15.7343823760818  12.8857381266719 15.221777286546  14.0721329724626 14.0902058599528  C 14.4267491070024 13.7499793372148  14.3577900346184 13.2839747021243  14.2040732328875 13.1126748550747  C 13.9942070959874 12.875357688749  13.4995378804091 12.7840984421715  13.0356120102282 13.1217360616837  Z M 18.9966216026751 8.30419745837923  L 17.4344745798584 8.30398172651456  C 17.4379364715575 6.68545815900207  16.9594675579241 5.10331594145637  16.0612711211644 3.76324124500393  C 16.0484613839496 3.74166695578285  16.0399215641227 3.71858246797797  16.0294602777341 3.69851839244689  C 15.916948122738 3.53908440220299  15.8023010015736 3.39237924154209  15.6855189291896 3.24157496396538  C 15.6715833001441 3.22404100822948  15.6588165854789 3.20559026596906  15.6473032321007 3.18634478174666  C 14.8652628223548 2.21266210501746  13.8657755725869 1.44036815737585  12.7309538568057 0.93291036097561  C 12.6970080621558 0.920181531392604  12.6694671361133 0.903137837922895  12.6353078418568 0.889761782533438  C 12.454904097561 0.813173058064516  12.2702304358773 0.747155738788355  12.0834218080252 0.681354166483084  C 12.0193731369001 0.659779877261998  11.9516950472069 0.634537965066876  11.8859384091267 0.613179407710464  C 11.722400804878 0.562264089378442  11.5612116664044 0.521920161132966  11.3948986270653 0.481360501022817  C 11.3035225295043 0.459786211801731  11.2102249653816 0.436701723996853  11.1190623524784 0.416637648465775  C 11.0744417867821 0.408007935798583  11.0319561573564 0.395063359244689  10.9852006404406 0.384707701022817  C 10.8622271990559 0.363133411801731  10.741175209284 0.352777753579858  10.6158533170732 0.335734060110149  C 10.5287471219512 0.324946923052714  10.4450568607396 0.312433825334382  10.3611531148702 0.303804112667191  C 10.1532084445319 0.282229823446105  9.9473987104642 0.274031589614476  9.74201599055862 0.271874165224233  C 9.70380027852085 0.271874165224233  9.66771953265145 0.265617623918175  9.62950382061369 0.265617623918175  C 9.62309895200629 0.265617623918175  9.6166940833989 0.267775048308418  9.6102892147915 0.267775048308418  C 8.01084024831306 0.269037330196484  6.45200126907672 0.776816703684063  5.15292887411487 1.71972465397325  C 4.71227402753737 2.0366509570417  4.77141231235248 2.48388595310779  4.96846871203777 2.70955300959874  C 5.10852180802518 2.86984997261998  5.53593991817467 3.09616425491739  5.88244321715185 2.82907456553895  C 6.97788894964595 1.99069771329662  8.30817979464988 1.61185322297404  9.64636997560975 1.62350333280881  C 9.83851597403619 1.62587650416994  10.0306619874115 1.63515344264359  10.2168301164437 1.65370733469709  C 10.2749009032258 1.65845367741936  10.330409754524 1.667730615893  10.3876265578285 1.67700756947286  C 10.5418607254482 1.6938733946313  10.6951381045959 1.71871641577289  10.8468555114083 1.75143886955153  C 10.9109041825334 1.76308897938631  10.9792227560976 1.78164287143981  11.0417769598741 1.79458743288749  C 11.1925048269079 1.82953777749803  11.33640084107 1.86448812210858  11.4800833556255 1.91087285979544  C 11.52597981325 1.92396106855902  11.570921888522 1.9402528491201  11.6145855515342 1.959630738631  C 11.7815390747443 2.01550814665618  11.9440092108576 2.07375872604249  12.1015689307632 2.1434436833989  C 12.1201430377655 2.14819002612116  12.1340202580645 2.1619975754524  12.1502459142408 2.16674391817467  C 13.1035577931481 2.59004518768308  13.94255600178 3.23812448543657  14.5969050645161 4.05665158143194  C 14.5997624512302 4.06150749943104  14.6028991001784 4.06618995964309  14.6062988678206 4.07067486262785  C 15.5617004516398 5.27116722447591  16.0815670978014 6.76602295005126  16.0794182439024 8.30657064484658  L 14.5027535169158 8.30657064484658  L 16.5006449850511 12.1586598168371  L 18.9966216026751 8.30419745837923  Z " fill-rule="nonzero" fill="#000000" stroke="none" transform="matrix(1 0 0 1 1925 180 )" />
  </g>
</svg>