<?xml version="1.0" encoding="utf-8"?>
<svg version="1.1" xmlns:xlink="http://www.w3.org/1999/xlink" width="1817px" height="82px" xmlns="http://www.w3.org/2000/svg">
  <g>
    <path d="M 1 16  A 15 15 0 0 1 16 1 L 1801 1  A 15 15 0 0 1 1816 16 L 1816 66  A 15 15 0 0 1 1801 81 L 16 81  A 15 15 0 0 1 1 66 L 1 16  Z " fill-rule="nonzero" fill="#ffffff" stroke="none" />
    <path d="M 0.5 16  A 15.5 15.5 0 0 1 16 0.5 L 1801 0.5  A 15.5 15.5 0 0 1 1816.5 16 L 1816.5 66  A 15.5 15.5 0 0 1 1801 81.5 L 16 81.5  A 15.5 15.5 0 0 1 0.5 66 L 0.5 16  Z " stroke-width="1" stroke="#a5a5a5" fill="none" stroke-opacity="0.435294117647059" />
  </g>
</svg>