<?xml version="1.0" encoding="utf-8"?>
<svg version="1.1" xmlns:xlink="http://www.w3.org/1999/xlink" width="133px" height="46px" xmlns="http://www.w3.org/2000/svg">
  <g transform="matrix(1 0 0 1 -983 0 )">
    <path d="M 984 20  A 19 19 0 0 1 1003 1 L 1096 1  A 19 19 0 0 1 1115 20 L 1115 26  A 19 19 0 0 1 1096 45 L 1003 45  A 19 19 0 0 1 984 26 L 984 20  Z " fill-rule="nonzero" fill="#ffffff" stroke="none" />
    <path d="M 983.5 20  A 19.5 19.5 0 0 1 1003 0.5 L 1096 0.5  A 19.5 19.5 0 0 1 1115.5 20 L 1115.5 26  A 19.5 19.5 0 0 1 1096 45.5 L 1003 45.5  A 19.5 19.5 0 0 1 983.5 26 L 983.5 20  Z " stroke-width="1" stroke="#797979" fill="none" stroke-opacity="0.501960784313725" />
  </g>
</svg>