<?xml version="1.0" encoding="utf-8"?>
<svg version="1.1" xmlns:xlink="http://www.w3.org/1999/xlink" width="233px" height="133px" xmlns="http://www.w3.org/2000/svg">
  <g transform="matrix(1 0 0 1 -1314 -240 )">
    <path d="M 1315 256  A 15 15 0 0 1 1330 241 L 1531 241  A 15 15 0 0 1 1546 256 L 1546 357  A 15 15 0 0 1 1531 372 L 1330 372  A 15 15 0 0 1 1315 357 L 1315 256  Z " fill-rule="nonzero" fill="#ffffff" stroke="none" />
    <path d="M 1314.5 256  A 15.5 15.5 0 0 1 1330 240.5 L 1531 240.5  A 15.5 15.5 0 0 1 1546.5 256 L 1546.5 357  A 15.5 15.5 0 0 1 1531 372.5 L 1330 372.5  A 15.5 15.5 0 0 1 1314.5 357 L 1314.5 256  Z " stroke-width="1" stroke="#a5a5a5" fill="none" stroke-opacity="0.435294117647059" />
  </g>
</svg>