<?xml version="1.0" encoding="utf-8"?>
<svg version="1.1" xmlns:xlink="http://www.w3.org/1999/xlink" width="1117px" height="320px" xmlns="http://www.w3.org/2000/svg">
  <defs>
    <linearGradient gradientUnits="userSpaceOnUse" x1="1117" y1="160" x2="-6.2005955925315E-14" y2="160" id="LinearGradient60">
      <stop id="Stop61" stop-color="#3194ad" offset="0" />
      <stop id="Stop62" stop-color="#f64c4c" stop-opacity="0.274509803921569" offset="0" />
      <stop id="Stop63" stop-color="#fffefe" offset="1" />
    </linearGradient>
  </defs>
  <g transform="matrix(1 0 0 1 -95 -268 )">
    <path d="M 1116.5657920311 320  L 0 320  L 35.8221574344023 287.068381855112  L 107.900680272109 94.2450914014898  L 143.071525753158 157.725118483412  L 180.847619047619 224.454976303318  C 180.847619047619 224.454976303318  208.636929057337 200.189573459716  214.715840621963 191.090047393365  C 220.794752186589 181.990521327014  252.274829931973 128.909952606635  252.274829931973 128.909952606635  L 288.748299319728 162.274881516588  L 322.18231292517 100.094786729858  L 431.602721088435 253.270142180095  L 471.115646258503 159.241706161137  L 541.023129251701 97.0616113744076  L 574.457142857143 157.725118483412  L 610.930612244898 188.056872037915  L 685.397278911565 63.696682464455  L 721.87074829932 157.725118483412  L 756.824489795918 128.909952606635  L 793.297959183673 191.090047393365  L 901.958503401361 0  L 969.586394557823 124.36018957346  L 1010.61904761905 162.274881516588  L 1045.57278911565 128.909952606635  L 1082.0462585034 253.270142180095  L 1116.5657920311 191.090047393365  L 1116.5657920311 320  Z " fill-rule="nonzero" fill="url(#LinearGradient60)" stroke="none" transform="matrix(1 0 0 1 95 268 )" />
  </g>
</svg>