<?xml version="1.0" encoding="utf-8"?>
<svg version="1.1" xmlns:xlink="http://www.w3.org/1999/xlink" width="228px" height="64px" preserveAspectRatio="xMinYMid meet" viewBox="952 323  228 62" xmlns="http://www.w3.org/2000/svg">
  <g transform="matrix(-0.656059028990508 0.754709580222774 -0.754709580222771 -0.656059028990509 2032.52611630274 -218.275516254837 )">
    <path d="M 0.506575963718878 320  L 37.4866213151927 286.635071090047  L 108.407256235828 95.0394944707739  L 180.847619047619 225.466034755134  L 215.801360544218 191.595576619274  L 252.781405895692 129.415481832544  L 289.254875283447 164.802527646129  L 322.18231292517 100.600315955766  L 432.109297052154 255.797788309636  L 472.63537414966 159.241706161137  L 541.52970521542 98.0726698262241  L 574.963718820862 159.241706161137  L 611.437188208617 189.57345971564  L 685.903854875283 65.2132701421801  L 721.364172335601 159.241706161137  L 756.824489795918 129.415481832544  L 792.791383219955 191.595576619274  L 903.224943310658 0  L 969.079818594104 125.876777251185  L 1011.12562358277 164.802527646129  L 1046.07936507937 129.415481832544  L 1083.05941043084 255.797788309636  L 1117 191.595576619274  " stroke-width="1" stroke="#d40000" fill="none" transform="matrix(1 0 0 1 95 268 )" />
  </g>
</svg>