<?xml version="1.0" encoding="utf-8"?>
<svg version="1.1" xmlns:xlink="http://www.w3.org/1999/xlink" width="60px" height="33px" xmlns="http://www.w3.org/2000/svg">
  <g transform="matrix(1 0 0 1 -33 -126 )">
    <path d="M 34 142  A 15 15 0 0 1 49 127 L 77 127  A 15 15 0 0 1 92 142 L 92 143  A 15 15 0 0 1 77 158 L 49 158  A 15 15 0 0 1 34 143 L 34 142  Z " fill-rule="nonzero" fill="#dcdada" stroke="none" />
    <path d="M 33.5 142  A 15.5 15.5 0 0 1 49 126.5 L 77 126.5  A 15.5 15.5 0 0 1 92.5 142 L 92.5 143  A 15.5 15.5 0 0 1 77 158.5 L 49 158.5  A 15.5 15.5 0 0 1 33.5 143 L 33.5 142  Z " stroke-width="1" stroke="#797979" fill="none" stroke-opacity="0.329411764705882" />
  </g>
</svg>