<?xml version="1.0" encoding="utf-8"?>
<svg version="1.1" xmlns:xlink="http://www.w3.org/1999/xlink" width="1104px" height="177px" xmlns="http://www.w3.org/2000/svg">
  <g transform="matrix(1 0 0 1 -102 -401 )">
    <path d="M 0.333333333332348 172.888888888888  C 0.333333333332348 172.888888888888  5.88888888888789 180.666666666666  19.2222222222217 141.777777777777  C 32.5555555555555 102.888888888888  61.4444444444434 65.1111111111121  61.4444444444434 65.1111111111121  L 98.1111111111096 29.5555555555561  C 98.1111111111096 29.5555555555561  127 28.4444444444439  139.222222222221 29  C 151.444444444442 29.5555555555561  182.555555555556 75.1111111111106  182.555555555556 75.1111111111106  C 182.555555555556 75.1111111111106  189.222222222224 75.1111111111106  204.777777777778 75.1111111111106  C 220.333333333332 75.1111111111106  230.333333333333 86.2222222222217  230.333333333333 86.2222222222217  L 251.444444444442 52  L 273.666666666665 52  C 273.666666666665 52  288.111111111109 38.4444444444445  301.444444444442 51.7777777777783  C 314.777777777776 65.1111111111121  315.888888888889 75.1111111111106  327 75.1111111111106  C 338.111111111111 75.1111111111106  360.333333333333 95.1111111111102  360.333333333333 95.1111111111102  L 414.777777777776 122.888888888888  L 439.222222222221 115.111111111112  C 439.222222222221 115.111111111112  448.111111111112 97.3333333333328  458.111111111111 86.2222222222217  C 468.111111111109 75.1111111111106  486.999999999998 65.1111111111121  486.999999999998 65.1111111111121  L 515.888888888889 9.55555555555657  L 531.444444444443 17.3333333333323  L 575.888888888887 29.5555555555561  L 612.555555555554 65.1111111111121  L 636.999999999999 9.55555555555657  L 692.555555555554 17.3333333333323  L 714.777777777776 41  L 733.666666666666 41  L 782.555555555556 75.1111111111106  L 801.444444444442 65.1111111111121  L 845.888888888887 29  L 895.888888888887 0.666666666665719  L 954.777777777778 17.3333333333323  L 982.555555555556 51.7777777777783  L 1027 65.1111111111121  L 1052.55555555556 86.2222222222217  L 1069.22222222222 106.222222222221  L 1100.33333333333 115.111111111112  " stroke-width="2" stroke="#32ace0" fill="none" transform="matrix(1 0 0 1 103 402 )" />
  </g>
</svg>