<?xml version="1.0" encoding="utf-8"?>
<svg version="1.1" xmlns:xlink="http://www.w3.org/1999/xlink" width="1101px" height="207px" xmlns="http://www.w3.org/2000/svg">
  <g transform="matrix(1 0 0 1 -100 -320 )">
    <path d="M 0 203.153846153848  L 30.7692307692302 155.153846153847  L 66.461538461539 123.153846153848  L 102.153846153848 113.307692307692  L 172.307692307692 163.769230769232  L 219.076923076925 113.307692307692  C 219.076923076925 113.307692307692  247.384615384614 104.692307692309  260.923076923077 104.692307692309  C 274.46153846154 104.692307692309  316.307692307692 94.8461538461532  316.307692307692 94.8461538461532  C 316.307692307692 94.8461538461532  334.769230769234 87.4615384615362  354.46153846154 113.307692307692  C 374.153846153847 139.153846153847  419.692307692309 178.538461538463  419.692307692309 178.538461538463  L 439.384615384615 134.230769230769  L 477.538461538463 104.692307692309  L 547.692307692307 66.5384615384615  L 600.615384615386 155.153846153847  L 619.076923076925 104.692307692309  L 644.923076923077 113.307692307692  L 700.307692307693 134.230769230769  L 717.538461538463 113.307692307692  C 717.538461538463 113.307692307692  711.384615384614 104.692307692306  744.615384615384 134.230769230769  C 777.846153846154 163.769230769232  817.23076923077 94.8461538461532  817.23076923077 94.8461538461532  L 854.153846153847 17.3076923076923  L 898.461538461538 0.0769230769247429  L 963.692307692309 66.5384615384615  L 988.307692307694 113.307692307692  C 988.307692307694 113.307692307692  1003.07692307692 113.307692307692  1015.38461538461 113.307692307692  C 1027.69230769231 113.307692307692  1049.84615384616 155.153846153847  1049.84615384616 155.153846153847  L 1080.61538461539 178  L 1097.84615384615 178  L 1098 187.153846153846  " stroke-width="2" stroke="#fe8aa8" fill="none" transform="matrix(1 0 0 1 101 321 )" />
  </g>
</svg>