<?xml version="1.0" encoding="utf-8"?>
<svg version="1.1" xmlns:xlink="http://www.w3.org/1999/xlink" width="32px" height="30px" xmlns="http://www.w3.org/2000/svg">
  <g transform="matrix(1 0 0 1 -1327 -412 )">
    <path d="M 0 6.42857142857143  L 16 0  L 32 6.42857142857143  L 32 8.57142857142857  L 29.8666666666667 8.57142857142857  C 29.8666666666667 8.86160714285714  29.7527777777778 9.11272321428571  29.525 9.32477678571429  C 29.2972222222222 9.53683035714285  29.0277777777778 9.64285714285714  28.7166666666667 10  L 3.28333333333333 10  C 2.97222222222222 9.64285714285714  2.70277777777778 9.53683035714285  2.475 9.32477678571429  C 2.24722222222222 9.11272321428571  2.13333333333333 8.86160714285714  2.13333333333333 8.57142857142857  L 0 8.57142857142857  L 0 6.42857142857143  Z M 4.26666666666667 23.5714285714286  L 4.26666666666667 10.7142857142857  L 9 10.7142857142857  L 9 23.5714285714286  L 11 23.5714285714286  L 11 10.7142857142857  L 15 10.7142857142857  L 15 23.5714285714286  L 17 23.5714285714286  L 17 10.7142857142857  L 21 10.7142857142857  L 21 23.5714285714286  L 23 23.5714285714286  L 23 10.7142857142857  L 27.7333333333333 10.7142857142857  L 27.7333333333333 23.5714285714286  L 28.7166666666667 23.5714285714286  C 29.0277777777778 23.5714285714286  29.2972222222222 23.6774553571429  29.525 23.8895089285714  C 29.7527777777778 24.1015625  29.8666666666667 24.3526785714286  29.8666666666667 24.6428571428571  L 29.8666666666667 25.7142857142857  L 2.13333333333333 25.7142857142857  L 2.13333333333333 24.6428571428571  C 2.13333333333333 24.3526785714286  2.24722222222222 24.1015625  2.475 23.8895089285714  C 2.70277777777778 23.6774553571429  2.97222222222222 23.5714285714286  3.28333333333333 23.5714285714286  L 4.26666666666667 23.5714285714286  Z M 1.15 26.7857142857143  L 30.85 26.7857142857143  C 31.1611111111111 26.7857142857143  31.4305555555556 26.8917410714286  31.6583333333333 27.1037946428571  C 31.8861111111111 27.3158482142857  32 27.5669642857143  32 27.8571428571429  L 32 30  L 0 30  L 0 27.8571428571429  C 0 27.5669642857143  0.113888888888889 27.3158482142857  0.341666666666667 27.1037946428571  C 0.569444444444445 26.8917410714286  0.838888888888889 26.7857142857143  1.15 26.7857142857143  Z " fill-rule="nonzero" fill="#646df7" stroke="none" transform="matrix(1 0 0 1 1327 412 )" />
  </g>
</svg>