<?xml version="1.0" encoding="utf-8"?>
<svg version="1.1" xmlns:xlink="http://www.w3.org/1999/xlink" width="1815px" height="396px" xmlns="http://www.w3.org/2000/svg">
  <g transform="matrix(1 0 0 1 0 -781 )">
    <path d="M 1 797  A 15 15 0 0 1 16 782 L 1799 782  A 15 15 0 0 1 1814 797 L 1814 1161  A 15 15 0 0 1 1799 1176 L 16 1176  A 15 15 0 0 1 1 1161 L 1 797  Z " fill-rule="nonzero" fill="#ffffff" stroke="none" />
    <path d="M 0.5 797  A 15.5 15.5 0 0 1 16 781.5 L 1799 781.5  A 15.5 15.5 0 0 1 1814.5 797 L 1814.5 1161  A 15.5 15.5 0 0 1 1799 1176.5 L 16 1176.5  A 15.5 15.5 0 0 1 0.5 1161 L 0.5 797  Z " stroke-width="1" stroke="#a5a5a5" fill="none" stroke-opacity="0.435294117647059" />
  </g>
</svg>