<?xml version="1.0" encoding="utf-8"?>
<svg version="1.1" xmlns:xlink="http://www.w3.org/1999/xlink" width="1812px" height="1154px" xmlns="http://www.w3.org/2000/svg">
  <g transform="matrix(1 0 0 1 0 -90 )">
    <path d="M 1 106  A 15 15 0 0 1 16 91 L 1796 91  A 15 15 0 0 1 1811 106 L 1811 1228  A 15 15 0 0 1 1796 1243 L 16 1243  A 15 15 0 0 1 1 1228 L 1 106  Z " fill-rule="nonzero" fill="#ffffff" stroke="none" />
    <path d="M 0.5 106  A 15.5 15.5 0 0 1 16 90.5 L 1796 90.5  A 15.5 15.5 0 0 1 1811.5 106 L 1811.5 1228  A 15.5 15.5 0 0 1 1796 1243.5 L 16 1243.5  A 15.5 15.5 0 0 1 0.5 1228 L 0.5 106  Z " stroke-width="1" stroke="#a5a5a5" fill="none" stroke-opacity="0.435294117647059" />
  </g>
</svg>