<?xml version="1.0" encoding="utf-8"?>
<svg version="1.1" xmlns:xlink="http://www.w3.org/1999/xlink" width="73px" height="33px" xmlns="http://www.w3.org/2000/svg">
  <g transform="matrix(1 0 0 1 -148 -155 )">
    <path d="M 149 171  A 15 15 0 0 1 164 156 L 205 156  A 15 15 0 0 1 220 171 L 220 172  A 15 15 0 0 1 205 187 L 164 187  A 15 15 0 0 1 149 172 L 149 171  Z " fill-rule="nonzero" fill="#b6b3b3" stroke="none" fill-opacity="0.486274509803922" />
    <path d="M 148.5 171  A 15.5 15.5 0 0 1 164 155.5 L 205 155.5  A 15.5 15.5 0 0 1 220.5 171 L 220.5 172  A 15.5 15.5 0 0 1 205 187.5 L 164 187.5  A 15.5 15.5 0 0 1 148.5 172 L 148.5 171  Z " stroke-width="1" stroke="#797979" fill="none" stroke-opacity="0.329411764705882" />
  </g>
</svg>