<?xml version="1.0" encoding="utf-8"?>
<svg version="1.1" xmlns:xlink="http://www.w3.org/1999/xlink" width="799px" height="220px" xmlns="http://www.w3.org/2000/svg">
  <g transform="matrix(1 0 0 1 -883 -361 )">
    <path d="M 0 114.343540805717  L 62.9325647123481 84.288420731514  C 62.9325647123481 84.288420731514  88.6864507565177 70.5060996837734  127.862988621914 59.6002863848476  C 186.83697014652 43.1833371839908  240.742033264697 38.1323434747028  240.742033264697 38.1323434747028  L 266.714202828524 32.7653577471668  L 288.690653997915 25.7882763013695  L 313.663893963133 16.1277019918045  C 313.663893963133 16.1277019918045  350.296413885594 -0.761308622278108  395.576121049046 0.0267448091959942  C 434.118542911183 0.69754172261525  463.503333754439 16.1277019918045  463.503333754439 16.1277019918045  C 463.503333754439 16.1277019918045  489.337225886896 35.5364381991223  527.434828065395 38.1323434747028  C 564.367130183552 40.6488472026452  597.359899968004 25.7882763013695  597.359899968004 25.7882763013695  C 597.359899968004 25.7882763013695  624.160094014564 16.1479517731078  658.294605483136 16.1277019918045  C 704.150572751071 16.1004986345955  740.206832569049 29.0084677378914  740.206832569049 29.0084677378914  L 759.186494942615 32.7653577471668  L 785.158664506441 35.5  L 798.5 35.5  L 798.5 219.5  L 3.1950837147604 219.5  L 0 114.343540805717  Z " fill-rule="nonzero" fill="#f4a6a6" stroke="none" transform="matrix(1 0 0 1 883 361 )" />
  </g>
</svg>