<?xml version="1.0" encoding="utf-8"?>
<svg version="1.1" xmlns:xlink="http://www.w3.org/1999/xlink" width="796px" height="114px" xmlns="http://www.w3.org/2000/svg">
  <g transform="matrix(1 0 0 1 -886 -363 )">
    <path d="M 0 113  L 63.1854499579475 83.2980286909648  C 63.1854499579475 83.2980286909648  89.042824201386 69.6776504219298  128.376787216148 58.8999808299716  C 187.587747002644 42.675931385422  241.709419680404 37.6842870378036  241.709419680404 37.6842870378036  L 267.785954583684 32.3803635897616  L 289.850714886459 25.4852631073069  L 314.924306139613 15.9382009008314  C 314.924306139613 15.9382009008314  351.704028449898 -0.752363217993965  397.165685449958 0.0264305567053623  C 435.862984359664 0.689345581745477  465.365853658537 15.9382009008314  465.365853658537 15.9382009008314  C 465.365853658537 15.9382009008314  491.303555482949 35.1188837445906  529.554247266611 37.6842870378036  C 566.634956403207 40.1712217544805  599.760302775442 25.4852631073069  599.760302775442 25.4852631073069  C 599.760302775442 25.4852631073069  626.668189455928 15.9582127464604  660.939865433137 15.9382009008314  C 706.980098154066 15.9113171840692  743.181244743482 28.6676171761322  743.181244743482 28.6676171761322  L 762.237174095879 32.3803635897616  L 788.313708999159 33.9715406241742  L 795 33.9715406241742  " stroke-width="1" stroke="#de3f45" fill="none" transform="matrix(1 0 0 1 886 363 )" />
  </g>
</svg>