<?xml version="1.0" encoding="utf-8"?>
<svg version="1.1" xmlns:xlink="http://www.w3.org/1999/xlink" width="799px" height="250px" xmlns="http://www.w3.org/2000/svg">
  <g transform="matrix(1 0 0 1 -883 -333 )">
    <path d="M 3.99772669866132 68.9775455229179  L 25.983977741199 77.8970557198469  L 50.9683539259006 86.816565916776  L 76.9521051579905 93.952174074319  L 96.9396061057518 98.5  L 109.931481721797 98.5  L 133.91648285911 93.952174074319  L 147.907733522544 90.3843699955475  L 167.895234470305 86.816565916776  L 188.882110465454 85.5  L 199.875235986723 85.5  L 218.863361887096 84.4380298642615  L 236.852112740082 86.816565916776  L 250.843363403515 90.3843699955475  L 267.832739209112 93.952174074319  L 296.814615583366 105.250220323763  L 316.802116531127 114.76436453382  L 332.792117289336 120.710704665106  L 345.783992905381 124.873142757006  L 368.769618995307 130.224848875164  L 384.759619753516 132.5  L 404.747120701277 132.5  L 448.719622786352 126.657044796392  L 504.684625440084 114.76436453382  L 554.653377809488 97.5199781530906  L 587.632754373294 84.4380298642615  L 605.62150522628 77.8970557198469  L 630.605881410981 71.356081575432  L 651.592757406131 68.9775455229179  L 674.578383496056 66.5990094704033  L 694.565884443818 61.8419373653746  L 717.551510533743 50.5438911159311  L 737.539011481504 35.6780407877162  L 754.528387287102 22.0014584857582  L 771.517763092699 7.13560815754344  L 788.507138898296 0  L 798.5 0  L 798.5 249.5  L 1.50906872111984 249.5  L 3.99772669866132 68.9775455229179  Z " fill-rule="nonzero" fill="#33ccff" stroke="none" fill-opacity="0.584313725490196" transform="matrix(1 0 0 1 883 333 )" />
  </g>
</svg>