<?xml version="1.0" encoding="utf-8"?>
<svg version="1.1" xmlns:xlink="http://www.w3.org/1999/xlink" width="794px" height="133px" xmlns="http://www.w3.org/2000/svg">
  <g transform="matrix(1 0 0 1 -887 -335 )">
    <path d="M 0.994357366771103 69.2266666666667  L 22.8702194357368 78.0266666666667  L 47.7291536050158 86.8266666666667  L 73.5824451410659 93.8666666666667  L 93.4695924764891 97.5  L 106.396238244514 97.5  L 130.260815047022 93.8666666666667  L 144.181818181818 90.3466666666667  L 164.068965517241 86.8266666666667  L 184.950470219436 84.5  L 195.888401253918 84.5  L 214.78119122257 84.5  L 232.679623824451 86.8266666666667  L 246.600626959248 90.3466666666667  L 263.504702194357 93.8666666666667  L 292.341065830721 105.013333333333  L 312.228213166144 114.4  L 328.137931034483 120.266666666667  L 341.064576802508 124.373333333333  L 363.934796238244 129.653333333333  L 379.844514106583 132.5  L 399.731661442006 132.5  L 443.483385579937 126.133333333333  L 499.167398119122 114.4  L 548.88526645768 97.3866666666666  L 581.699059561129 84.48  L 599.59749216301 78.0266666666667  L 624.456426332289 71.5733333333333  L 645.337931034483 69.2266666666667  L 668.208150470219 66.88  L 688.095297805643 62.1866666666666  L 710.965517241379 51.0399999999999  L 730.852664576803 36.3733333333333  L 747.756739811912 22.88  L 764.660815047022 8.21333333333337  L 781.564890282132 1.17333333333327  L 791.135579937304 1.17333333333327  " stroke-width="1" stroke="#0dbdd3" fill="none" transform="matrix(1 0 0 1 887 335 )" />
  </g>
</svg>