<?xml version="1.0" encoding="utf-8"?>
<svg version="1.1" xmlns:xlink="http://www.w3.org/1999/xlink" width="799px" height="146px" xmlns="http://www.w3.org/2000/svg">
  <g transform="matrix(1 0 0 1 -883 -962 )">
    <path d="M 0 75.7069105791276  L 62.9325647123481 55.8074018541988  C 62.9325647123481 55.8074018541988  88.6864507565177 46.6821207951924  127.862988621914 39.4613768301503  C 186.83697014652 28.5917072679391  240.742033264697 25.2474420266297  240.742033264697 25.2474420266297  L 266.714202828524 21.6939583257497  L 288.690653997915 17.0744295146054  L 313.663893963133 10.6781588530213  C 313.663893963133 10.6781588530213  350.296413885594 -0.504062786439843  395.576121049046 0.0177077503809094  C 434.118542911183 0.461842693055759  463.503333754439 10.6781588530213  463.503333754439 10.6781588530213  C 463.503333754439 10.6781588530213  489.337225886896 23.528691958323  527.434828065395 25.2474420266297  C 564.367130183552 26.9136202939888  597.359899968004 17.0744295146054  597.359899968004 17.0744295146054  C 597.359899968004 17.0744295146054  624.160094014564 10.6915662424686  658.294605483136 10.6781588530213  C 704.150572751071 10.6601474977916  740.206832569049 19.2065197351336  740.206832569049 19.2065197351336  L 759.186494942615 21.6939583257497  L 785.158664506441 23.5  L 798.5 23.5  L 798.5 145.5  L 3.1950837147604 145.5  L 0 75.7069105791276  Z " fill-rule="nonzero" fill="#f4a6a6" stroke="none" transform="matrix(1 0 0 1 883 962 )" />
  </g>
</svg>