<?xml version="1.0" encoding="utf-8"?>
<svg version="1.1" xmlns:xlink="http://www.w3.org/1999/xlink" width="796px" height="76px" xmlns="http://www.w3.org/2000/svg">
  <g transform="matrix(1 0 0 1 -886 -963 )">
    <path d="M 0 75  L 63.1854499579475 55.2863022285165  C 63.1854499579475 55.2863022285165  89.042824201386 46.2462281561481  128.376787216148 39.0929076305121  C 187.587747002644 28.3247332204128  241.709419680404 25.0116949365953  241.709419680404 25.0116949365953  L 267.785954583684 21.4913917631161  L 289.850714886459 16.9149976375931  L 314.924306139613 10.5784519253306  C 314.924306139613 10.5784519253306  351.704028449898 -0.499356118137587  397.165685449958 0.0175424048929396  C 435.862984359664 0.457530253370892  465.365853658537 10.5784519253306  465.365853658537 10.5784519253306  C 465.365853658537 10.5784519253306  491.303555482949 23.3089936357903  529.554247266611 25.0116949365953  C 566.634956403207 26.6623153237702  599.760302775442 16.9149976375931  599.760302775442 16.9149976375931  C 599.760302775442 16.9149976375931  626.668189455928 10.5917341237569  660.939865433137 10.5784519253306  C 706.980098154066 10.5606087504884  743.181244743482 19.0271795416807  743.181244743482 19.0271795416807  L 762.237174095879 21.4913917631161  L 788.313708999159 22.5474827151599  L 795 22.5474827151599  " stroke-width="1" stroke="#de3f45" fill="none" transform="matrix(1 0 0 1 886 963 )" />
  </g>
</svg>