<?xml version="1.0" encoding="utf-8"?>
<svg version="1.1" xmlns:xlink="http://www.w3.org/1999/xlink" width="794px" height="80px" xmlns="http://www.w3.org/2000/svg">
  <g transform="matrix(1 0 0 1 -887 -961 )">
    <path d="M 0.994357366771103 41.4311111111112  L 22.8702194357368 46.6977777777778  L 47.7291536050158 51.9644444444445  L 73.5824451410659 56.1777777777778  L 93.4695924764891 58.5  L 106.396238244514 58.5  L 130.260815047022 56.1777777777778  L 144.181818181818 54.0711111111111  L 164.068965517241 51.9644444444445  L 184.950470219436 50.5  L 195.888401253918 50.5  L 214.78119122257 50.5  L 232.679623824451 51.9644444444445  L 246.600626959248 54.0711111111111  L 263.504702194357 56.1777777777778  L 292.341065830721 62.8488888888889  L 312.228213166144 68.4666666666667  L 328.137931034483 71.9777777777778  L 341.064576802508 74.4355555555555  L 363.934796238244 77.5955555555555  L 379.844514106583 79.5  L 399.731661442006 79.5  L 443.483385579937 75.4888888888889  L 499.167398119122 68.4666666666667  L 548.88526645768 58.2844444444444  L 581.699059561129 50.56  L 599.59749216301 46.6977777777778  L 624.456426332289 42.8355555555555  L 645.337931034483 41.4311111111112  L 668.208150470219 40.0266666666667  L 688.095297805643 37.2177777777778  L 710.965517241379 30.5466666666666  L 730.852664576803 21.7688888888888  L 747.756739811912 13.6933333333334  L 764.660815047022 4.91555555555558  L 781.564890282132 0.702222222222182  L 791.135579937304 0.702222222222182  " stroke-width="1" stroke="#0dbdd3" fill="none" transform="matrix(1 0 0 1 887 961 )" />
  </g>
</svg>