<?xml version="1.0" encoding="utf-8"?>
<svg version="1.1" xmlns:xlink="http://www.w3.org/1999/xlink" width="799px" height="150px" xmlns="http://www.w3.org/2000/svg">
  <g transform="matrix(1 0 0 1 -883 -960 )">
    <path d="M 3.99772669866132 41.2757200117059  L 25.983977741199 46.6130975994265  L 50.9683539259006 51.9504751871471  L 76.9521051579905 56.2203772573234  L 96.9396061057518 59.5  L 109.931481721797 59.5  L 133.91648285911 56.2203772573234  L 147.907733522544 54.0854262222352  L 167.895234470305 51.9504751871471  L 188.882110465454 51.5  L 199.875235986723 51.5  L 218.863361887096 50.5271744970882  L 236.852112740082 51.9504751871471  L 250.843363403515 54.0854262222352  L 267.832739209112 56.2203772573234  L 296.814615583366 62.9810555351029  L 316.802116531127 68.6742582953381  L 332.792117289336 72.2325100204853  L 345.783992905381 74.7232862280881  L 368.769618995307 77.9257127807204  L 384.759619753516 79.5  L 404.747120701277 79.5  L 448.719622786352 75.7907617456322  L 504.684625440084 68.6742582953381  L 554.653377809488 58.3553282924116  L 587.632754373294 50.5271744970882  L 605.62150522628 46.6130975994265  L 630.605881410981 42.6990207017646  L 651.592757406131 41.2757200117059  L 674.578383496056 39.852419321647  L 694.565884443818 37.0058179415294  L 717.551510533743 30.2451396637499  L 737.539011481504 21.3495103508824  L 754.528387287102 13.1655313830441  L 771.517763092699 4.2699020701766  L 788.507138898296 0  L 798.5 0  L 798.5 149.5  L 1.50906872111984 149.5  L 3.99772669866132 41.2757200117059  Z " fill-rule="nonzero" fill="#33ccff" stroke="none" fill-opacity="0.584313725490196" transform="matrix(1 0 0 1 883 960 )" />
  </g>
</svg>