<?xml version="1.0" encoding="utf-8"?>
<svg version="1.1" xmlns:xlink="http://www.w3.org/1999/xlink" width="27px" height="30px" xmlns="http://www.w3.org/2000/svg">
  <g transform="matrix(1 0 0 1 -1293 -107 )">
    <path d="M 2 11  L 2 27.8571428571429  L 25 27.8571428571429  L 25 11  L 2 11  Z M 8.16165865384615 7.88504464285714  C 8.25901442307692 7.78459821428571  8.30769230769231 7.65625  8.30769230769231 7.5  L 8.30769230769231 2.67857142857143  C 8.30769230769231 2.52232142857142  8.25901442307692 2.39397321428571  8.16165865384615 2.29352678571429  C 8.06430288461539 2.19308035714286  7.93990384615385 2.14285714285714  7.78846153846154 2.14285714285714  L 6.75 2.14285714285714  C 6.59855769230769 2.14285714285714  6.47415865384616 2.19308035714286  6.37680288461538 2.29352678571429  C 6.27944711538462 2.39397321428571  6.23076923076923 2.52232142857142  6.23076923076923 2.67857142857143  L 6.23076923076923 7.5  C 6.23076923076923 7.65625  6.27944711538462 7.78459821428571  6.37680288461538 7.88504464285714  C 6.47415865384616 7.98549107142857  6.59855769230769 8.03571428571429  6.75 8.03571428571429  L 7.78846153846154 8.03571428571429  C 7.93990384615385 8.03571428571429  8.06430288461539 7.98549107142857  8.16165865384615 7.88504464285714  Z M 20.6231971153846 7.88504464285714  C 20.7205528846154 7.78459821428571  20.7692307692308 7.65625  20.7692307692308 7.5  L 20.7692307692308 2.67857142857143  C 20.7692307692308 2.52232142857142  20.7205528846154 2.39397321428571  20.6231971153846 2.29352678571429  C 20.5258413461538 2.19308035714286  20.4014423076923 2.14285714285714  20.25 2.14285714285714  L 19.2115384615385 2.14285714285714  C 19.0600961538462 2.14285714285714  18.9356971153846 2.19308035714286  18.8383413461538 2.29352678571429  C 18.7409855769231 2.39397321428571  18.6923076923077 2.52232142857142  18.6923076923077 2.67857142857143  L 18.6923076923077 7.5  C 18.6923076923077 7.65625  18.7409855769231 7.78459821428571  18.8383413461538 7.88504464285714  C 18.9356971153846 7.98549107142857  19.0600961538462 8.03571428571429  19.2115384615385 8.03571428571429  L 20.25 8.03571428571429  C 20.4014423076923 8.03571428571429  20.5258413461538 7.98549107142857  20.6231971153846 7.88504464285714  Z M 26.3834134615385 4.921875  C 26.7944711538462 5.34598214285714  27 5.84821428571428  27 6.42857142857143  L 27 27.8571428571429  C 27 28.4375  26.7944711538462 28.9397321428571  26.3834134615385 29.3638392857143  C 25.9723557692308 29.7879464285714  25.4855769230769 30  24.9230769230769 30  L 2.07692307692308 30  C 1.51442307692308 30  1.02764423076923 29.7879464285714  0.616586538461538 29.3638392857143  C 0.205528846153846 28.9397321428571  0 28.4375  0 27.8571428571429  L 0 6.42857142857143  C 0 5.84821428571428  0.205528846153846 5.34598214285714  0.616586538461538 4.921875  C 1.02764423076923 4.49776785714285  1.51442307692308 4.28571428571429  2.07692307692308 4.28571428571429  L 4.15384615384615 4.28571428571429  L 4.15384615384615 2.67857142857143  C 4.15384615384615 1.94196428571429  4.40805288461539 1.31138392857143  4.91646634615385 0.786830357142858  C 5.42487980769231 0.262276785714286  6.03605769230769 0  6.75 0  L 7.78846153846154 0  C 8.50240384615385 0  9.11358173076923 0.262276785714286  9.62199519230769 0.786830357142858  C 10.1304086538462 1.31138392857143  10.3846153846154 1.94196428571429  10.3846153846154 2.67857142857143  L 10.3846153846154 4.28571428571429  L 16.6153846153846 4.28571428571429  L 16.6153846153846 2.67857142857143  C 16.6153846153846 1.94196428571429  16.8695913461538 1.31138392857143  17.3780048076923 0.786830357142858  C 17.8864182692308 0.262276785714286  18.4975961538462 0  19.2115384615385 0  L 20.25 0  C 20.9639423076923 0  21.5751201923077 0.262276785714286  22.0835336538462 0.786830357142858  C 22.5919471153846 1.31138392857143  22.8461538461538 1.94196428571429  22.8461538461538 2.67857142857143  L 22.8461538461538 4.28571428571429  L 24.9230769230769 4.28571428571429  C 25.4855769230769 4.28571428571429  25.9723557692308 4.49776785714285  26.3834134615385 4.921875  Z " fill-rule="nonzero" fill="#000000" stroke="none" transform="matrix(1 0 0 1 1293 107 )" />
  </g>
</svg>