<?xml version="1.0" encoding="utf-8"?>
<svg version="1.1" xmlns:xlink="http://www.w3.org/1999/xlink" width="535px" height="278px" xmlns="http://www.w3.org/2000/svg">
  <g transform="matrix(1 0 0 1 -1279 -328 )">
    <path d="M 1280 344  A 15 15 0 0 1 1295 329 L 1798 329  A 15 15 0 0 1 1813 344 L 1813 590  A 15 15 0 0 1 1798 605 L 1295 605  A 15 15 0 0 1 1280 590 L 1280 344  Z " fill-rule="nonzero" fill="#ffffff" stroke="none" />
    <path d="M 1279.5 344  A 15.5 15.5 0 0 1 1295 328.5 L 1798 328.5  A 15.5 15.5 0 0 1 1813.5 344 L 1813.5 590  A 15.5 15.5 0 0 1 1798 605.5 L 1295 605.5  A 15.5 15.5 0 0 1 1279.5 590 L 1279.5 344  Z " stroke-width="1" stroke="#a5a5a5" fill="none" stroke-opacity="0.435294117647059" />
  </g>
</svg>