<?xml version="1.0" encoding="utf-8"?>
<svg version="1.1" xmlns:xlink="http://www.w3.org/1999/xlink" width="28px" height="29px" xmlns="http://www.w3.org/2000/svg">
  <g transform="matrix(1 0 0 1 -1651 -164 )">
    <path d="M 22.6967213114754 18.1108319374651  C 23.1939890710383 16.9611948632049  23.4426229508197 15.7548855388051  23.4426229508197 14.4919039642658  C 23.4426229508197 13.2289223897264  23.1939890710383 12.0226130653266  22.6967213114754 10.8729759910664  C 22.1994535519126 9.72333891680625  21.5273224043716 8.73022520007444  20.6803278688525 7.89363484087102  C 19.8333333333333 7.0570444816676  18.827868852459 6.39316955146101  17.6639344262295 5.90201005025126  C 16.5 5.4108505490415  15.2786885245902 5.16527079843663  14 5.16527079843663  C 12.7213114754098 5.16527079843663  11.5 5.4108505490415  10.3360655737705 5.90201005025126  C 9.17213114754098 6.39316955146101  8.16666666666667 7.0570444816676  7.31967213114754 7.89363484087102  C 6.47267759562842 8.73022520007444  5.80054644808743 9.72333891680625  5.30327868852459 10.8729759910664  C 4.80601092896175 12.0226130653266  4.55737704918033 13.2289223897264  4.55737704918033 14.4919039642658  C 4.55737704918033 15.7548855388051  4.80601092896175 16.9611948632049  5.30327868852459 18.1108319374651  C 5.80054644808743 19.2604690117253  6.47267759562842 20.2535827284571  7.31967213114754 21.0901730876605  C 8.16666666666667 21.926763446864  9.17213114754098 22.5906383770705  10.3360655737705 23.0817978782803  C 11.5 23.57295737949  12.7213114754098 23.8185371300949  14 23.8185371300949  C 15.2786885245902 23.8185371300949  16.5 23.57295737949  17.6639344262295 23.0817978782803  C 18.827868852459 22.5906383770705  19.8333333333333 21.926763446864  20.6803278688525 21.0901730876605  C 21.5273224043716 20.2535827284571  22.1994535519126 19.2604690117253  22.6967213114754 18.1108319374651  Z M 27.9016393442623 18.5075376884422  C 28 18.6370742601898  28.0218579234973 18.7935976177182  27.9672131147541 18.9771077610274  C 27.9234972677596 19.1390284757119  27.8142076502732 19.2469756188349  27.6393442622951 19.3009491903964  L 22.8524590163934 20.855388051368  L 22.8524590163934 25.8101619207147  C 22.8524590163934 25.9828773497115  22.7814207650273 26.1232086357714  22.6393442622951 26.2311557788945  C 22.4754098360656 26.3391029220175  22.3169398907104 26.3606923506421  22.1639344262295 26.2959240647683  L 17.3770491803279 24.7738693467337  L 14.4262295081967 28.7895030709101  C 14.3169398907104 28.92983435697  14.1748633879781 29  14 29  C 13.8251366120219 29  13.6830601092896 28.92983435697  13.5737704918033 28.7895030709101  L 10.6229508196721 24.7738693467337  L 5.83606557377049 26.2959240647683  C 5.68306010928962 26.3606923506421  5.52459016393443 26.3391029220175  5.36065573770492 26.2311557788945  C 5.21857923497268 26.1232086357714  5.14754098360656 25.9828773497115  5.14754098360656 25.8101619207147  L 5.14754098360656 20.855388051368  L 0.360655737704918 19.3009491903964  C 0.185792349726776 19.2469756188349  0.0765027322404371 19.1390284757119  0.0327868852459016 18.9771077610274  C -0.0218579234972677 18.7935976177182  0 18.6370742601898  0.0983606557377049 18.5075376884422  L 3.04918032786885 14.4919039642658  L 0.0983606557377049 10.4762702400893  C 0 10.3359389540294  -0.0218579234972677 10.179415596501  0.0327868852459016 10.0067001675042  C 0.0765027322404371 9.84477945281965  0.185792349726776 9.73683230969663  0.360655737704918 9.68285873813512  L 5.14754098360656 8.12841987716359  L 5.14754098360656 3.17364600781686  C 5.14754098360656 3.00093057882002  5.21857923497268 2.86059929276009  5.36065573770492 2.75265214963707  C 5.52459016393443 2.64470500651405  5.68306010928962 2.62311557788945  5.83606557377049 2.68788386376326  L 10.6229508196721 4.20993858179788  L 13.5737704918033 0.194304857621439  C 13.672131147541 0.064768285873812  13.8142076502732 0  14 0  C 14.1857923497268 0  14.327868852459 0.064768285873812  14.4262295081967 0.194304857621439  L 17.3770491803279 4.20993858179788  L 22.1639344262295 2.68788386376326  C 22.3169398907104 2.62311557788945  22.4754098360656 2.64470500651405  22.6393442622951 2.75265214963707  C 22.7814207650273 2.86059929276009  22.8524590163934 3.00093057882002  22.8524590163934 3.17364600781686  L 22.8524590163934 8.12841987716359  L 27.6393442622951 9.68285873813512  C 27.8142076502732 9.73683230969663  27.9234972677596 9.84477945281965  27.9672131147541 10.0067001675042  C 28.0218579234973 10.179415596501  28 10.3359389540294  27.9016393442623 10.4762702400893  L 24.9508196721311 14.4919039642658  L 27.9016393442623 18.5075376884422  Z " fill-rule="nonzero" fill="#000000" stroke="none" transform="matrix(1 0 0 1 1651 164 )" />
  </g>
</svg>