<?xml version="1.0" encoding="utf-8"?>
<svg version="1.1" xmlns:xlink="http://www.w3.org/1999/xlink" width="133px" height="47px" xmlns="http://www.w3.org/2000/svg">
  <g transform="matrix(1 0 0 1 -1379 0 )">
    <path d="M 1380 20  A 19 19 0 0 1 1399 1 L 1492 1  A 19 19 0 0 1 1511 20 L 1511 27  A 19 19 0 0 1 1492 46 L 1399 46  A 19 19 0 0 1 1380 27 L 1380 20  Z " fill-rule="nonzero" fill="#9e9e9e" stroke="none" fill-opacity="0.498039215686275" />
    <path d="M 1379.5 20  A 19.5 19.5 0 0 1 1399 0.5 L 1492 0.5  A 19.5 19.5 0 0 1 1511.5 20 L 1511.5 27  A 19.5 19.5 0 0 1 1492 46.5 L 1399 46.5  A 19.5 19.5 0 0 1 1379.5 27 L 1379.5 20  Z " stroke-width="1" stroke="#797979" fill="none" stroke-opacity="0.501960784313725" />
  </g>
</svg>