<?xml version="1.0" encoding="utf-8"?>
<svg version="1.1" xmlns:xlink="http://www.w3.org/1999/xlink" width="1256px" height="618px" xmlns="http://www.w3.org/2000/svg">
  <g transform="matrix(1 0 0 1 0 -92 )">
    <path d="M 1 108  A 15 15 0 0 1 16 93 L 1240 93  A 15 15 0 0 1 1255 108 L 1255 694  A 15 15 0 0 1 1240 709 L 16 709  A 15 15 0 0 1 1 694 L 1 108  Z " fill-rule="nonzero" fill="#ffffff" stroke="none" />
    <path d="M 0.5 108  A 15.5 15.5 0 0 1 16 92.5 L 1240 92.5  A 15.5 15.5 0 0 1 1255.5 108 L 1255.5 694  A 15.5 15.5 0 0 1 1240 709.5 L 16 709.5  A 15.5 15.5 0 0 1 0.5 694 L 0.5 108  Z " stroke-width="1" stroke="#a5a5a5" fill="none" stroke-opacity="0.435294117647059" />
  </g>
</svg>