<?xml version="1.0" encoding="utf-8"?>
<svg version="1.1" xmlns:xlink="http://www.w3.org/1999/xlink" width="133px" height="47px" xmlns="http://www.w3.org/2000/svg">
  <g transform="matrix(1 0 0 1 -785 0 )">
    <path d="M 786 20  A 19 19 0 0 1 805 1 L 898 1  A 19 19 0 0 1 917 20 L 917 27  A 19 19 0 0 1 898 46 L 805 46  A 19 19 0 0 1 786 27 L 786 20  Z " fill-rule="nonzero" fill="#d1d1d1" stroke="none" fill-opacity="0.498039215686275" />
    <path d="M 785.5 20  A 19.5 19.5 0 0 1 805 0.5 L 898 0.5  A 19.5 19.5 0 0 1 917.5 20 L 917.5 27  A 19.5 19.5 0 0 1 898 46.5 L 805 46.5  A 19.5 19.5 0 0 1 785.5 27 L 785.5 20  Z " stroke-width="1" stroke="#797979" fill="none" stroke-opacity="0.501960784313725" />
  </g>
</svg>