<?xml version="1.0" encoding="utf-8"?>
<svg version="1.1" xmlns:xlink="http://www.w3.org/1999/xlink" width="1200px" height="714px" xmlns="http://www.w3.org/2000/svg">
  <g transform="matrix(1 0 0 1 0 -93 )">
    <path d="M 1 109  A 15 15 0 0 1 16 94 L 1184 94  A 15 15 0 0 1 1199 109 L 1199 791  A 15 15 0 0 1 1184 806 L 16 806  A 15 15 0 0 1 1 791 L 1 109  Z " fill-rule="nonzero" fill="#ffffff" stroke="none" />
    <path d="M 0.5 109  A 15.5 15.5 0 0 1 16 93.5 L 1184 93.5  A 15.5 15.5 0 0 1 1199.5 109 L 1199.5 791  A 15.5 15.5 0 0 1 1184 806.5 L 16 806.5  A 15.5 15.5 0 0 1 0.5 791 L 0.5 109  Z " stroke-width="1" stroke="#a5a5a5" fill="none" stroke-opacity="0.435294117647059" />
  </g>
</svg>