<?xml version="1.0" encoding="utf-8"?>
<svg version="1.1" xmlns:xlink="http://www.w3.org/1999/xlink" width="489px" height="203px" xmlns="http://www.w3.org/2000/svg">
  <g transform="matrix(1 0 0 1 -1240 -90 )">
    <path d="M 1241 98  A 7 7 0 0 1 1248 91 L 1721 91  A 7 7 0 0 1 1728 98 L 1728 285  A 7 7 0 0 1 1721 292 L 1248 292  A 7 7 0 0 1 1241 285 L 1241 98  Z " fill-rule="nonzero" fill="#ffffff" stroke="none" />
    <path d="M 1240.5 98  A 7.5 7.5 0 0 1 1248 90.5 L 1721 90.5  A 7.5 7.5 0 0 1 1728.5 98 L 1728.5 285  A 7.5 7.5 0 0 1 1721 292.5 L 1248 292.5  A 7.5 7.5 0 0 1 1240.5 285 L 1240.5 98  Z " stroke-width="1" stroke="#d2d2d2" fill="none" stroke-opacity="0.435294117647059" />
  </g>
</svg>