<?xml version="1.0" encoding="utf-8"?>
<svg version="1.1" xmlns:xlink="http://www.w3.org/1999/xlink" width="489px" height="173px" xmlns="http://www.w3.org/2000/svg">
  <g transform="matrix(1 0 0 1 -1240 -317 )">
    <path d="M 1241 325  A 7 7 0 0 1 1248 318 L 1721 318  A 7 7 0 0 1 1728 325 L 1728 482  A 7 7 0 0 1 1721 489 L 1248 489  A 7 7 0 0 1 1241 482 L 1241 325  Z " fill-rule="nonzero" fill="#ffffff" stroke="none" />
    <path d="M 1240.5 325  A 7.5 7.5 0 0 1 1248 317.5 L 1721 317.5  A 7.5 7.5 0 0 1 1728.5 325 L 1728.5 482  A 7.5 7.5 0 0 1 1721 489.5 L 1248 489.5  A 7.5 7.5 0 0 1 1240.5 482 L 1240.5 325  Z " stroke-width="1" stroke="#d2d2d2" fill="none" stroke-opacity="0.435294117647059" />
  </g>
</svg>