<?xml version="1.0" encoding="utf-8"?>
<svg version="1.1" xmlns:xlink="http://www.w3.org/1999/xlink" width="687px" height="34px" xmlns="http://www.w3.org/2000/svg">
  <g transform="matrix(1 0 0 1 -270 -791 )">
    <path d="M 613.5 791  C 805.86 791  957 798.48  957 808  C 957 817.52  805.86 825  613.5 825  C 421.14 825  270 817.52  270 808  C 270 798.48  421.14 791  613.5 791  Z " fill-rule="nonzero" fill="#ffffff" stroke="none" />
    <path d="M 613.5 791.5  C 805.58 791.5  956.5 798.76  956.5 808  C 956.5 817.24  805.58 824.5  613.5 824.5  C 421.42 824.5  270.5 817.24  270.5 808  C 270.5 798.76  421.42 791.5  613.5 791.5  Z " stroke-width="1" stroke="#797979" fill="none" />
  </g>
</svg>