<?xml version="1.0" encoding="utf-8"?>
<svg version="1.1" xmlns:xlink="http://www.w3.org/1999/xlink" width="170px" height="170px" xmlns="http://www.w3.org/2000/svg">
  <g transform="matrix(1 0 0 1 -36 -637 )">
    <path d="M 121 637  C 168.6 637  206 674.4  206 722  C 206 769.6  168.6 807  121 807  C 73.4 807  36 769.6  36 722  C 36 674.4  73.4 637  121 637  Z " fill-rule="nonzero" fill="#ffffff" stroke="none" />
    <path d="M 121 637.5  C 168.32 637.5  205.5 674.68  205.5 722  C 205.5 769.32  168.32 806.5  121 806.5  C 73.68 806.5  36.5 769.32  36.5 722  C 36.5 674.68  73.68 637.5  121 637.5  Z " stroke-width="1" stroke="#797979" fill="none" />
  </g>
</svg>