<?xml version="1.0" encoding="utf-8"?>
<svg version="1.1" xmlns:xlink="http://www.w3.org/1999/xlink" width="1122px" height="103px" xmlns="http://www.w3.org/2000/svg">
  <g transform="matrix(1 0 0 1 -131 -634 )">
    <path d="M 0.600000000002183 99.6913705583759  L 45.852459016391 69.163934426229  L 125.852459016393 65.1248730964476  L 198.967213114754 58.6721311475411  L 276.67213114754 39.3278688524604  L 316.344262295083 84.9016393442624  L 355.360655737704 78.9999999999994  L 388.475409836063 45.6040609137056  L 456.999999999999 24  L 494.704918032786 0.639344262295708  L 541.918032786884 36.422335025381  L 581.590163934426 32.1147540983595  L 602.245901639344 20.639344262294  L 645.524590163934 6.21311475409834  L 670.200000000001 29.9411167512696  L 724.540983606555 32.1147540983595  L 754.377049180327 45.6040609137056  L 787.163934426228 54.940101522843  L 827.819672131145 61.9508196721313  L 852.737704918032 73  L 877.000000000001 73  L 908.147540983607 50  L 939 50  L 1003.8 54.940101522843  L 1045.4 65.1248730964476  L 1118.2 73.1492385786808  " stroke-width="2" stroke="#86c357" fill="none" transform="matrix(1 0 0 1 132 635 )" />
  </g>
</svg>