<?xml version="1.0" encoding="utf-8"?>
<svg version="1.1" xmlns:xlink="http://www.w3.org/1999/xlink" width="112px" height="6px" preserveAspectRatio="xMinYMid meet" viewBox="1032 331  112 4" xmlns="http://www.w3.org/2000/svg">
  <g transform="matrix(0.788010753606723 -0.615661475325656 0.615661475325658 0.788010753606717 25.6290287924419 740.432104203276 )">
    <path d="M 0.799999999999272 224  L 25.642276422766 138.400000000001  L 77.0243902439048 112.800000000003  L 201.902439024391 6.52845528455288  L 292.308943089433 77.4227642276429  L 318.975609756099 96.9349593495941  L 370.357723577238 120  L 399.626016260165 120  L 442.552845528456 128  L 470.400000000001 128  L 515.200000000001 120  L 530.357723577237 96.9349593495941  L 558.325203252035 54.6585365853664  L 602.552845528456 32.5447154471545  L 678.400000000001 0  L 718.325203252034 23.4390243902433  L 758.650406504066 59.861788617885  L 794.422764227643 72  L 832.796747967481 107.341463414634  L 869.869918699187 128  L 886.780487804881 96.9349593495941  L 909.544715447157 42.3008130081301  L 992.146341463416 108  L 1021.41463414634 108  L 1050.03252032521 150.400000000001  L 1070.19512195122 138  L 1100.11382113821 138  " stroke-width="2" stroke="#75a4ff" fill="none" transform="matrix(1 0 0 1 137 258 )" />
  </g>
</svg>