<?xml version="1.0" encoding="utf-8"?>
<svg version="1.1" xmlns:xlink="http://www.w3.org/1999/xlink" width="1110px" height="29px" xmlns="http://www.w3.org/2000/svg">
  <g transform="matrix(1 0 0 1 -143 -746 )">
    <path d="M 0.804359673023792 26  L 25.7820163487757 16.0642857142859  L 77.4441416893757 13.0928571428575  L 203.002724795642 0.757767131242745  L 293.90190735695 8.98657084785141  L 320.713896457767 11.2513792102207  L 372.376021798367 14  L 401.803814713898 14  L 444.964577656677 14.8571428571429  L 472.963487738421 14.8571428571429  L 518.007629427794 13.9285714285714  L 533.247956403271 11.2513792102207  L 561.367847411447 6.34429442508718  L 605.836512261581 3.77751161440186  L 682.097002724797 0  L 722.239782016351 2.7206010452961  L 762.784741144415 6.94824332171879  L 798.752043596731 8.35714285714286  L 837.335149863761 12.4592770034843  L 874.610354223433 14.8571428571429  L 891.613079019076 11.2513792102207  L 914.501362397823 4.90991579558654  L 997.553133514988 12.4592770034843  L 1026.98092643052 12.4592770034843  L 1055.75476839237 17.457142857143  L 1076.0272479564 16  L 1106.10899182561 16  " stroke-width="2" stroke="#75a4ff" fill="none" transform="matrix(1 0 0 1 144 747 )" />
  </g>
</svg>