<?xml version="1.0" encoding="utf-8"?>
<svg version="1.1" xmlns:xlink="http://www.w3.org/1999/xlink" width="1100px" height="85px" xmlns="http://www.w3.org/2000/svg">
  <g transform="matrix(1 0 0 1 -131 -643 )">
    <path d="M 0.799999999999272 77.546875  L 58.4000000000015 81.7031250000002  L 91.5757575757587 45.7812500000006  L 129.757575757578 38.953125  L 191.575757575759 36.2812500000011  L 260.060606060608 26.9393939393939  L 344.799999999999 45.7812500000006  L 380.666666666667 21.140625  L 418.242424242426 6.59375000000114  L 464.303030303031 12.8281250000008  L 487.333333333336 7  L 595.818181818182 7  L 620.666666666669 0.953125000000796  L 645.600000000002 6.59375000000114  L 681.878787878789 50.2343750000006  L 715.212121212123 45.7812500000006  L 760.666666666668 56.4687500000002  L 790.969696969699 73.0000000000022  L 826.121212121212 65.1212121212131  L 861.685950413224 73.0000000000022  L 897.030303030305 6.59375000000114  L 935.212121212121 16.6363636363646  L 997.636363636365 45.7812500000006  L 1050.36363636364 65.1212121212131  L 1074.60606060606 56  L 1096.42424242424 56  " stroke-width="2" stroke="#75a4ff" fill="none" transform="matrix(1 0 0 1 132 644 )" />
  </g>
</svg>