<?xml version="1.0" encoding="utf-8"?>
<svg version="1.1" xmlns:xlink="http://www.w3.org/1999/xlink" width="136.000000000001px" height="42px" preserveAspectRatio="xMinYMid meet" viewBox="286 431  136.000000000001 40" xmlns="http://www.w3.org/2000/svg">
  <path d="M 0.799999999999272 244  L 58.4000000000015 255.200000000001  L 138.400000000001 224.800000000003  L 168.799999999999 215.200000000001  L 263.200000000001 180.800000000003  L 298.400000000001 207.200000000001  L 344.799999999999 158.400000000001  L 381.600000000002 170.400000000001  L 427.200000000001 200.800000000003  L 470.400000000001 148  L 515.200000000001 140  L 584 132.800000000003  L 611.200000000001 69.6000000000022  L 645.600000000002 52.8000000000029  L 678.400000000001 20  L 712.799999999999 0  L 737.599999999999 10.4000000000015  L 783.200000000001 20  L 816.799999999999 37.6000000000022  L 869.599999999999 69.6000000000022  L 937.599999999999 92  L 976 132.800000000003  L 1028.8 170.400000000001  L 1090.4 158.400000000001  L 1106.4 170.400000000001  L 1119.2 187.200000000001  " stroke-width="2" stroke="#75a4ff" fill="none" transform="matrix(1 0 0 1 121 253 )" />
</svg>