<?xml version="1.0" encoding="utf-8"?>
<svg version="1.1" xmlns:xlink="http://www.w3.org/1999/xlink" width="1100px" height="72px" xmlns="http://www.w3.org/2000/svg">
  <g transform="matrix(1 0 0 1 -140 -588 )">
    <path d="M 0.799999999999272 65.2528582317073  L 58.4000000000015 68.7501905487807  L 91.5757575757587 38.52324695122  L 129.757575757578 32.7776295731707  L 191.575757575759 30.5293445121961  L 205.284403669728 13.9988913525507  L 248.587155963303 5.54839939024486  L 356.330796301857 31.8574014848958  L 380.666666666667 17.7890625  L 418.242424242426 5.54839939024486  L 464.303030303031 10.7943978658543  L 487.333333333336 6  L 595.818181818182 6  L 620.666666666669 0.80201981707384  L 645.600000000002 5.54839939024486  L 681.878787878789 42.2703887195127  L 715.212121212123 38.52324695122  L 760.666666666668 47.5163871951221  L 790.969696969699 61.4268292682945  L 826.121212121212 54.7971175166306  L 861.685950413224 61.4268292682945  L 897.030303030305 5.54839939024486  L 935.212121212121 13.9988913525507  L 997.636363636365 38.52324695122  L 1050.36363636364 54.7971175166306  L 1074.60606060606 47  L 1096.42424242424 47  " stroke-width="2" stroke="#75a4ff" fill="none" transform="matrix(1 0 0 1 141 589 )" />
  </g>
</svg>