<?xml version="1.0" encoding="utf-8"?>
<svg version="1.1" xmlns:xlink="http://www.w3.org/1999/xlink" width="1105px" height="55px" xmlns="http://www.w3.org/2000/svg">
  <g transform="matrix(1 0 0 1 -140 -738 )">
    <path d="M 0.526946107784454 0.29940119760397  L 78.1317365269452 24.2514970059872  L 122.682634730539 18.9820359281412  L 159.089820359283 14.1916167664644  C 159.089820359283 14.1916167664644  191.185628742511 9.40119760478774  207.473053892215 14.1916167664644  C 223.760479041918 18.9820359281412  286.035928143714 6.52694610778451  286.035928143714 6.52694610778451  C 286.035928143714 6.52694610778451  289.868263473057 -1.13772455089543  302.802395209583 6.52694610778451  C 315.736526946109 14.1916167664644  343.999999999999 14.1916167664644  343.999999999999 14.1916167664644  C 343.999999999999 14.1916167664644  391.904191616761 6.52694610778451  402.443113772453 6.52694610778451  C 412.982035928145 6.52694610778451  420.646706586826 7.48502994011892  427.832335329341 10.8383233532917  C 435.017964071855 14.1916167664644  493.940119760479 19.94011976048  519.329341317366 29.0419161676639  C 544.718562874253 38.1437125748478  603.161676646703 51.0778443113782  621.844311377245 40.059880239521  C 640.526946107786 29.0419161676639  662.562874251496 34.3113772455056  662.562874251496 34.3113772455056  C 662.562874251496 34.3113772455056  697.532934131741 24.2514970059872  721.005988023955 24.2514970059872  C 744.479041916169 24.2514970059872  735.856287425154 31.4371257484978  766.514970059883 18.9820359281412  C 797.173652694612 6.52694610778451  788.550898203597 -1.13772455089543  812.023952095811 6.52694610778451  C 835.497005988025 14.1916167664644  882.443113772461 18.9820359281412  900.646706586829 18.9820359281412  C 918.850299401197 18.9820359281412  944.718562874253 29.0419161676639  969.628742514971 29.0419161676639  C 994.538922155689 29.0419161676639  985.91616766467 33.8323353293406  1002.68263473054 29.0419161676639  C 1019.44910179641 24.2514970059872  1021.36526946108 13.7125748502951  1029.02994011976 18.9820359281412  C 1036.69461077844 24.2514970059872  1047.23353293414 59.2215568862276  1059.68862275449 49.6407185628743  C 1072.14371257485 40.059880239521  1077.89221556887 23.7724550898179  1085.07784431138 18.9820359281412  C 1092.26347305389 14.1916167664644  1092.73873873874 15.5855855855874  1092.73873873874 15.5855855855874  L 1101.84431137725 18.9820359281412  " stroke-width="2" stroke="#9f7cff" fill="none" transform="matrix(1 0 0 1 141 739 )" />
  </g>
</svg>