<?xml version="1.0" encoding="utf-8"?>
<svg version="1.1" xmlns:xlink="http://www.w3.org/1999/xlink" width="1107px" height="52px" xmlns="http://www.w3.org/2000/svg">
  <g transform="matrix(1 0 0 1 -140 -741 )">
    <path d="M 0.399999999997817 20.6000000000022  L 46 20  C 46 20  61.1999999999971 12.5999999999985  71.5999999999985 7  C 82 1.40000000000146  119.599999999999 0.600000000002183  119.599999999999 0.600000000002183  L 170 7  L 257.199999999997 20  L 307.599999999999 21  L 355.599999999999 7  L 374 20  C 374 20  376.400000000001 21  390 21  C 403.599999999999 21  416.399999999994 27.6000000000058  437.199999999997 27.8000000000029  C 458 28  467.599999999995 28.1999999999971  485.199999999997 28  C 502.799999999999 27.8000000000029  510 20.6000000000022  510 20.6000000000022  C 510 20.6000000000022  517.199999999997 21  535.599999999999 21  C 554 21  578 29.4000000000015  578 29.4000000000015  C 578 29.4000000000015  617.200000000001 48.6000000000022  634 48.6000000000022  C 650.799999999999 48.6000000000022  722 38.2000000000007  722 38.2000000000007  L 746 29.4000000000015  L 766 7  L 804.400000000001 20  L 836.400000000001 20  L 879.599999999999 38  L 901.200000000001 38  C 901.200000000001 38  929.199999999997 30.8000000000029  943.599999999999 29.4000000000015  C 958 28  972.399999999998 7  987.599999999999 7  C 1002.8 7  1036.4 29.4000000000015  1036.4 29.4000000000015  L 1070 48.6000000000022  L 1103.6 29.4000000000015  " stroke-width="2" stroke="#e4851d" fill="none" transform="matrix(1 0 0 1 141 742 )" />
  </g>
</svg>