<?xml version="1.0" encoding="utf-8"?>
<svg version="1.1" xmlns:xlink="http://www.w3.org/1999/xlink" width="1105px" height="47px" xmlns="http://www.w3.org/2000/svg">
  <g transform="matrix(1 0 0 1 -142 -743 )">
    <path d="M 0.124999999998522 12.0833333333342  L 35.9583333333334 4.58333333333337  L 52.625 0.833333333334849  C 52.625 0.833333333334849  80.9583333333341 7.08333333333496  88.0416666666667 12.0833333333342  C 95.1249999999993 17.0833333333334  103.041666666664 17.5000000000016  120.958333333332 22.5000000000008  C 138.874999999999 27.5  129.708333333333 32.4999999999992  145.124999999999 27.5  C 160.541666666665 22.5000000000008  189.291666666664 22.5000000000008  189.291666666664 22.5000000000008  L 213.458333333331 27.5  L 253.041666666664 30  L 306.374999999998 32.9166666666674  L 353.041666666664 15  L 411.374999999998 12.0833333333342  L 470.124999999999 0  L 486.791666666666 12.0833333333342  L 502.625 15  C 502.625 15  521.791666666672 22.5000000000008  532.625000000003 22.5000000000008  C 543.458333333334 22.5000000000008  580.54166666667 27.5  580.54166666667 27.5  L 615.958333333336 22  L 656.375000000002 22  L 677.208333333336 27.5  L 700.958333333335 33  L 730.125000000002 43.3333333333342  C 730.125000000002 43.3333333333342  755.125000000002 38.7499999999993  766.791666666669 38.7499999999993  C 778.458333333336 38.7499999999993  807.625000000003 43.3333333333342  807.625000000003 43.3333333333342  L 823.875000000002 30  L 837.208333333334 22.5000000000008  L 850.958333333335 15  L 865.125 4.58333333333337  L 882.208333333331 12.0833333333342  L 911.791666666666 22.5000000000008  L 924.70833333333 30  L 952.208333333332 22  L 965.125 22  L 985.541666666665 33  L 1009.29166666666 27.5  C 1009.29166666666 27.5  1017.625 32.4999999999992  1027.20833333333 27.5  C 1036.79166666667 22.5000000000008  1044.29166666667 15  1044.29166666667 15  L 1058.875 18.7500000000023  L 1081.79166666667 22.5000000000008  L 1092.625 27.5  L 1101.375 33  " stroke-width="2" stroke="#45ae2d" fill="none" transform="matrix(1 0 0 1 143 744 )" />
  </g>
</svg>