<?xml version="1.0" encoding="utf-8"?>
<svg version="1.1" xmlns:xlink="http://www.w3.org/1999/xlink" width="1324px" height="718px" xmlns="http://www.w3.org/2000/svg">
  <g transform="matrix(1 0 0 1 -195 -191 )">
    <path d="M 196 199  A 7 7 0 0 1 203 192 L 1511 192  A 7 7 0 0 1 1518 199 L 1518 901  A 7 7 0 0 1 1511 908 L 203 908  A 7 7 0 0 1 196 901 L 196 199  Z " fill-rule="nonzero" fill="#ffffff" stroke="none" />
    <path d="M 195.5 199  A 7.5 7.5 0 0 1 203 191.5 L 1511 191.5  A 7.5 7.5 0 0 1 1518.5 199 L 1518.5 901  A 7.5 7.5 0 0 1 1511 908.5 L 203 908.5  A 7.5 7.5 0 0 1 195.5 901 L 195.5 199  Z " stroke-width="1" stroke="#d2d2d2" fill="none" stroke-opacity="0.435294117647059" />
  </g>
</svg>