<?xml version="1.0" encoding="utf-8"?>
<svg version="1.1" xmlns:xlink="http://www.w3.org/1999/xlink" width="1324px" height="59px" xmlns="http://www.w3.org/2000/svg">
  <g transform="matrix(1 0 0 1 -195 -114 )">
    <path d="M 196 122  A 7 7 0 0 1 203 115 L 1511 115  A 7 7 0 0 1 1518 122 L 1518 165  A 7 7 0 0 1 1511 172 L 203 172  A 7 7 0 0 1 196 165 L 196 122  Z " fill-rule="nonzero" fill="#ffffff" stroke="none" />
    <path d="M 195.5 122  A 7.5 7.5 0 0 1 203 114.5 L 1511 114.5  A 7.5 7.5 0 0 1 1518.5 122 L 1518.5 165  A 7.5 7.5 0 0 1 1511 172.5 L 203 172.5  A 7.5 7.5 0 0 1 195.5 165 L 195.5 122  Z " stroke-width="1" stroke="#d2d2d2" fill="none" stroke-opacity="0.435294117647059" />
  </g>
</svg>