<?xml version="1.0" encoding="utf-8"?>
<svg version="1.1" xmlns:xlink="http://www.w3.org/1999/xlink" width="12px" height="8px" xmlns="http://www.w3.org/2000/svg">
  <g transform="matrix(1 0 0 1 -449 -129 )">
    <path d="M 11.77734375 6.48611111111111  C 11.92578125 6.66203703703703  12 6.87037037037037  12 7.11111111111111  C 12 7.35185185185185  11.92578125 7.56018518518518  11.77734375 7.73611111111111  C 11.62890625 7.91203703703703  11.453125 8  11.25 8  L 0.75 8  C 0.546875 8  0.37109375 7.91203703703703  0.22265625 7.73611111111111  C 0.07421875 7.56018518518518  0 7.35185185185185  0 7.11111111111111  C 0 6.87037037037037  0.07421875 6.66203703703703  0.22265625 6.48611111111111  L 5.47265625 0.263888888888889  C 5.62109375 0.0879629629629619  5.796875 0  6 0  C 6.203125 0  6.37890625 0.0879629629629619  6.52734375 0.263888888888889  L 11.77734375 6.48611111111111  Z " fill-rule="nonzero" fill="#ff0000" stroke="none" fill-opacity="0.709803921568627" transform="matrix(1 0 0 1 449 129 )" />
  </g>
</svg>