<?xml version="1.0" encoding="utf-8"?>
<svg version="1.1" xmlns:xlink="http://www.w3.org/1999/xlink" width="94px" height="41px" xmlns="http://www.w3.org/2000/svg">
  <defs>
    <mask fill="white" id="clip49">
      <path d="M 0.655625406822873 35.7890319304031  C 0.655625406822873 38.4749429307745  3.22259567485852 40.74763687546  6.25628787884017 40.74763687546  L 88.3993375279827 40.74763687546  C 91.4330296872976 40.74763687546  94 38.4749429307745  94 35.7890319304031  L 94 11.4092242608046  C 94 8.7233132604332  91.4330296872976 6.45061931574776  88.3993375279827 7  L 54.0952798589601 7  L 47.3278127034114 0.458971672156167  L 40.5603455478627 7  L 6.25628787884017 7  C 3.22259571952527 6.45061931574776  0.655625406822873 8.7233132604332  0.655625406822873 11.4092242608046  L 0.655625406822873 35.7890319304031  Z " fill-rule="evenodd" />
    </mask>
  </defs>
  <g transform="matrix(1 0 0 1 -130 -503 )">
    <path d="M 0.655625406822873 35.7890319304031  C 0.655625406822873 38.4749429307745  3.22259567485852 40.74763687546  6.25628787884017 40.74763687546  L 88.3993375279827 40.74763687546  C 91.4330296872976 40.74763687546  94 38.4749429307745  94 35.7890319304031  L 94 11.4092242608046  C 94 8.7233132604332  91.4330296872976 6.45061931574776  88.3993375279827 7  L 54.0952798589601 7  L 47.3278127034114 0.458971672156167  L 40.5603455478627 7  L 6.25628787884017 7  C 3.22259571952527 6.45061931574776  0.655625406822873 8.7233132604332  0.655625406822873 11.4092242608046  L 0.655625406822873 35.7890319304031  Z " fill-rule="nonzero" fill="#5aa2ff" stroke="none" transform="matrix(1 0 0 1 130 503 )" />
    <path d="M 0.655625406822873 35.7890319304031  C 0.655625406822873 38.4749429307745  3.22259567485852 40.74763687546  6.25628787884017 40.74763687546  L 88.3993375279827 40.74763687546  C 91.4330296872976 40.74763687546  94 38.4749429307745  94 35.7890319304031  L 94 11.4092242608046  C 94 8.7233132604332  91.4330296872976 6.45061931574776  88.3993375279827 7  L 54.0952798589601 7  L 47.3278127034114 0.458971672156167  L 40.5603455478627 7  L 6.25628787884017 7  C 3.22259571952527 6.45061931574776  0.655625406822873 8.7233132604332  0.655625406822873 11.4092242608046  L 0.655625406822873 35.7890319304031  Z " stroke-width="2" stroke="#797979" fill="none" transform="matrix(1 0 0 1 130 503 )" mask="url(#clip49)" />
  </g>
</svg>