<?xml version="1.0" encoding="utf-8"?>
<svg version="1.1" xmlns:xlink="http://www.w3.org/1999/xlink" width="96px" height="41px" xmlns="http://www.w3.org/2000/svg">
  <defs>
    <mask fill="white" id="clip50">
      <path d="M 0.669574883563785 35.7890319304031  C 0.669574883563785 38.4749429307745  3.29116154028104 40.74763687546  6.3894003869006 40.74763687546  L 90.2801744966632 40.74763687546  C 93.3784132976656 40.74763687546  96 38.4749429307745  96 35.7890319304031  L 96 11.4092242608046  C 96 8.7233132604332  93.3784132976656 6.45061931574776  90.2801744966632 7  L 55.2462432602146 7  L 48.3347874417819 0.458971672156167  L 41.4233316233492 7  L 6.3894003869006 7  C 3.29116158589815 6.45061931574776  0.669574883563785 8.7233132604332  0.669574883563785 11.4092242608046  L 0.669574883563785 35.7890319304031  Z " fill-rule="evenodd" />
    </mask>
  </defs>
  <g transform="matrix(1 0 0 1 -140 -748 )">
    <path d="M 0.669574883563785 35.7890319304031  C 0.669574883563785 38.4749429307745  3.29116154028104 40.74763687546  6.3894003869006 40.74763687546  L 90.2801744966632 40.74763687546  C 93.3784132976656 40.74763687546  96 38.4749429307745  96 35.7890319304031  L 96 11.4092242608046  C 96 8.7233132604332  93.3784132976656 6.45061931574776  90.2801744966632 7  L 55.2462432602146 7  L 48.3347874417819 0.458971672156167  L 41.4233316233492 7  L 6.3894003869006 7  C 3.29116158589815 6.45061931574776  0.669574883563785 8.7233132604332  0.669574883563785 11.4092242608046  L 0.669574883563785 35.7890319304031  Z " fill-rule="nonzero" fill="#5aa2ff" stroke="none" transform="matrix(1 0 0 1 140 748 )" />
    <path d="M 0.669574883563785 35.7890319304031  C 0.669574883563785 38.4749429307745  3.29116154028104 40.74763687546  6.3894003869006 40.74763687546  L 90.2801744966632 40.74763687546  C 93.3784132976656 40.74763687546  96 38.4749429307745  96 35.7890319304031  L 96 11.4092242608046  C 96 8.7233132604332  93.3784132976656 6.45061931574776  90.2801744966632 7  L 55.2462432602146 7  L 48.3347874417819 0.458971672156167  L 41.4233316233492 7  L 6.3894003869006 7  C 3.29116158589815 6.45061931574776  0.669574883563785 8.7233132604332  0.669574883563785 11.4092242608046  L 0.669574883563785 35.7890319304031  Z " stroke-width="2" stroke="#797979" fill="none" transform="matrix(1 0 0 1 140 748 )" mask="url(#clip50)" />
  </g>
</svg>